{
copyright = "Copyright (c) 2022 by Thanos Poulakidas. All rights reserved.";
familyName = "Geom ";
customParameters = (
{
name = glyphOrder;
value = (
.notdef,
null,
nonmarkingreturn,
space,
exclam,
quotedbl,
numbersign,
dollar,
percent,
ampersand,
quotesingle,
parenleft,
parenright,
asterisk,
plus,
comma,
hyphen,
period,
slash,
zero,
one,
two,
three,
four,
five,
six,
seven,
eight,
nine,
colon,
semicolon,
less,
equal,
greater,
question,
at,
A,
B,
C,
D,
E,
F,
G,
H,
J,
K,
L,
M,
N,
O,
P,
Q,
R,
S,
T,
U,
V,
W,
X,
Y,
Z,
bracketleft,
backslash,
bracketright,
asciicircum,
underscore,
grave,
a,
b,
c,
d,
e,
f,
g,
h,
i,
j,
k,
l,
m,
n,
o,
p,
q,
r,
s,
t,
u,
v,
w,
x,
y,
z,
braceleft,
bar,
braceright,
asciitilde,
uni00A0,
exclamdown,
cent,
sterling,
currency,
yen,
brokenbar,
section,
dieresis,
copyright,
ordfeminine,
guillemotleft,
logicalnot,
uni00AD,
registered,
degree,
plusminus,
twosuperior,
threesuperior,
acute,
uni00B5,
paragraph,
periodcentered,
cedilla,
onesuperior,
ordmasculine,
guillemotright,
onequarter,
onehalf,
threequarters,
questiondown,
Agrave,
Aacute,
Acircumflex,
Atilde,
Adieresis,
Aring,
AE,
Ccedilla,
Egrave,
Eacute,
Ecircumflex,
Edieresis,
Eth,
Ntilde,
Ograve,
Oacute,
Ocircumflex,
Otilde,
Odieresis,
multiply,
Oslash,
Ugrave,
Uacute,
Ucircumflex,
Udieresis,
Yacute,
Thorn,
germandbls,
agrave,
aacute,
acircumflex,
atilde,
adieresis,
aring,
ae,
ccedilla,
egrave,
eacute,
ecircumflex,
edieresis,
igrave,
iacute,
icircumflex,
idieresis,
eth,
ntilde,
ograve,
oacute,
ocircumflex,
otilde,
odieresis,
divide,
oslash,
ugrave,
uacute,
ucircumflex,
udieresis,
yacute,
thorn,
ydieresis,
Amacron,
amacron,
Abreve,
abreve,
Aogonek,
aogonek,
Cacute,
cacute,
Ccircumflex,
ccircumflex,
Cdotaccent,
cdotaccent,
Ccaron,
ccaron,
Dcaron,
dcaron,
Dcroat,
dcroat,
Emacron,
emacron,
Ebreve,
ebreve,
Edotaccent,
edotaccent,
Eogonek,
eogonek,
Ecaron,
ecaron,
Gcircumflex,
gcircumflex,
Gbreve,
gbreve,
Gdotaccent,
gdotaccent,
uni0122,
uni0123,
Hcircumflex,
hcircumflex,
itilde,
imacron,
ibreve,

glyphs = (
{
glyphname = .notdef;
layers = (
{
hints = (
{
horizontal = 1;
place = "{0, 57}";
type = Stem;
},
{
horizontal = 1;
place = "{663, 57}";
type = Stem;
},
{
place = "{34, 69}";
type = Stem;
},
{
place = "{493, 69}";
type = Stem;
}
);
layerId = "A096C860-9E6F-43F5-BF5F-7670645978FC";
paths = (
{
closed = 1;
nodes = (
"34 0 LINE",
"562 0 LINE",
"562 720 LINE",
"34 720 LINE"
);
},
{
closed = 1;
nodes = (
"299 421 LINE",
"135 663 LINE",
"460 663 LINE"
);
},
{
closed = 1;
nodes = (
"103 595 LINE",
"259 360 LINE",
"103 127 LINE"
);
},
{
closed = 1;
nodes = (
"337 360 LINE",
"493 594 LINE",
"493 127 LINE"
);
},
{
closed = 1;
nodes = (
"135 57 LINE",
"299 301 LINE",
"460 57 LINE"
);
}
);
width = 586;
}
);
},
{
glyphname = exclam;
layers = (
{
hints = (
{
horizontal = 1;
place = "{-13, 181}";
type = Stem;
},
{
horizontal = 1;
place = "{701, -20}";
target = down;
type = TopGhost;
},
{
place = "{68, 195}";
type = Stem;
}
);
layerId = "A096C860-9E6F-43F5-BF5F-7670645978FC";
paths = (
{
closed = 1;
nodes = (
"68 701 LINE",
"68 616 LINE",
"120 224 LINE",
"212 224 LINE",
"263 616 LINE",
"264 701 LINE"
);
},
{
closed = 1;
nodes = (
"66 19 OFFCURVE",
"110 -13 OFFCURVE",
"165 -13 CURVE SMOOTH",
"221 -13 OFFCURVE",
"265 19 OFFCURVE",
"265 78 CURVE SMOOTH",
"265 137 OFFCURVE",
"221 168 OFFCURVE",
"165 168 CURVE SMOOTH",
"110 168 OFFCURVE",
"66 137 OFFCURVE",
"66 78 CURVE SMOOTH"
);
}
);
width = 333;
}
);
unicode = 0021;
},
{
glyphname = quotedbl;
layers = (
{
hints = (
{
place = "{86, 452}";
type = Stem;
},
{
horizontal = 1;
place = "{358, 343}";
type = Stem;
},
{
horizontal = 1;
place = "{701, -20}";
target = down;
type = TopGhost;
}
);
layerId = "A096C860-9E6F-43F5-BF5F-7670645978FC";
paths = (
{
closed = 1;
nodes = (
"178 358 LINE",
"292 690 LINE",
"294 701 LINE",
"109 701 LINE",
"86 358 LINE"
);
},
{
closed = 1;
nodes = (
"329 358 LINE",
"422 358 LINE",
"536 690 LINE",
"538 701 LINE",
"353 701 LINE"
);
}
);
width = 623;
}
);
unicode = 0022;
},
{
glyphname = numbersign;
layers = (
{
hints = (
{
horizontal = 1;
place = "{0, 21}";
target = up;
type = BottomGhost;
},
{
horizontal = 1;
place = "{145, 146}";
type = Stem;
},
{
horizontal = 1;
place = "{414, 147}";
type = Stem;
},
{
horizontal = 1;
place = "{701, -20}";
target = down;
type = TopGhost;
},
{
place = "{31, 633}";
type = Stem;
}
);
layerId = "A096C860-9E6F-43F5-BF5F-7670645978FC";
paths = (
{
closed = 1;
nodes = (
"90 0 LINE",
"223 0 LINE",
"247 145 LINE",
"380 145 LINE",
"355 0 LINE",
"488 0 LINE",
"513 145 LINE",
"631 145 LINE",
"631 291 LINE",
"537 291 LINE",
"558 414 LINE",
"664 414 LINE",
"664 561 LINE",
"583 561 LINE",
"606 701 LINE",
"473 701 LINE",
"450 561 LINE",
"317 561 LINE",
"341 701 LINE",
"208 701 LINE",
"185 561 LINE",
"64 561 LINE",
"64 414 LINE",
"160 414 LINE",
"139 291 LINE",
"31 291 LINE",
"31 145 LINE",
"114 145 LINE"
);
},
{
closed = 1;
nodes = (
"428 418 LINE",
"407 288 LINE",
"268 288 LINE",
"290 418 LINE"
);
}
);
width = 695;
}
);
unicode = 0023;
},
{
glyphname = dollar;
layers = (
{
hints = (
{
place = "{44, 161}";
type = Stem;
},
{
place = "{274, 98}";
type = Stem;
},
{
place = "{279, 89}";
type = Stem;
},
{
place = "{444, 158}";
type = Stem;
},
{
horizontal = 1;
place = "{-1, 21}";
target = up;
type = BottomGhost;
},
{
horizontal = 1;
place = "{1, 21}";
target = up;
type = BottomGhost;
},
{
horizontal = 1;
place = "{569, 192}";
type = Stem;
},
{
horizontal = 1;
place = "{700, -20}";
target = down;
type = TopGhost;
},
{
horizontal = 1;
place = "{703, -20}";
target = down;
type = TopGhost;
}
);
layerId = "A096C860-9E6F-43F5-BF5F-7670645978FC";
paths = (
{
closed = 1;
nodes = (
"274 -98 LINE",
"372 -98 LINE",
"372 -1 LINE",
"508 12 OFFCURVE",
"602 89 OFFCURVE",
"602 209 CURVE SMOOTH",
"602 326 OFFCURVE",
"525 384 OFFCURVE",
"369 423 CURVE",
"369 569 LINE",
"414 561 OFFCURVE",
"452 543 OFFCURVE",
"482 505 CURVE",
"572 603 LINE",
"527 654 OFFCURVE",
"457 691 OFFCURVE",
"373 700 CURVE",
"373 761 LINE",
"276 761 LINE",
"276 703 LINE",
"131 692 OFFCURVE",
"44 611 OFFCURVE",
"44 496 CURVE SMOOTH",
"44 376 OFFCURVE",
"126 318 OFFCURVE",
"279 280 CURVE",
"279 132 LINE",
"220 138 OFFCURVE",
"160 173 OFFCURVE",
"121 220 CURVE",
"20 112 LINE",
"92 40 OFFCURVE",
"184 1 OFFCURVE",
"274 1 CURVE"
);
},
{
closed = 1;
nodes = (
"205 540 OFFCURVE",
"227 565 OFFCURVE",
"280 569 CURVE",
"280 441 LINE",
"223 459 OFFCURVE",
"205 481 OFFCURVE",
"205 510 CURVE SMOOTH"
);
},
{
closed = 1;
nodes = (
"444 164 OFFCURVE",
"421 139 OFFCURVE",
"368 133 CURVE",
"368 264 LINE",
"428 245 OFFCURVE",
"444 222 OFFCURVE",
"444 196 CURVE SMOOTH"
);
}
);
width = 632;
}
);
unicode = 0024;
},
{
glyphname = percent;
layers = (
{
hints = (
{
place = "{39, 113}";
type = Stem;
},
{
place = "{282, 113}";
type = Stem;
},
{
place = "{499, 113}";
type = Stem;
},
{
place = "{742, 113}";
type = Stem;
},
{
horizontal = 1;
place = "{-10, 102}";
type = Stem;
},
{
horizontal = 1;
place = "{-1, 21}";
target = up;
type = BottomGhost;
},
{
horizontal = 1;
place = "{262, 102}";
type = Stem;
},
{
horizontal = 1;
place = "{338, 101}";
type = Stem;
},
{
horizontal = 1;
place = "{611, 101}";
type = Stem;
},
{
horizontal = 1;
place = "{704, -20}";
target = down;
type = TopGhost;
}
);
layerId = "A096C860-9E6F-43F5-BF5F-7670645978FC";
paths = (
{
closed = 1;
nodes = (
"395 627 OFFCURVE",
"324 712 OFFCURVE",
"218 712 CURVE SMOOTH",
"111 712 OFFCURVE",
"39 628 OFFCURVE",
"39 526 CURVE SMOOTH",
"39 423 OFFCURVE",
"110 338 OFFCURVE",
"217 338 CURVE SMOOTH",
"323 338 OFFCURVE",
"395 423 OFFCURVE",
"395 527 CURVE SMOOTH"
);
},
{
closed = 1;
nodes = (
"773 702 LINE",
"650 704 LINE",
"120 -1 LINE",
"243 -3 LINE"
);
},
{
closed = 1;
nodes = (
"282 477 OFFCURVE",
"257 439 OFFCURVE",
"218 439 CURVE SMOOTH",
"180 439 OFFCURVE",
"152 477 OFFCURVE",
"152 526 CURVE SMOOTH",
"152 575 OFFCURVE",
"177 611 OFFCURVE",
"217 611 CURVE SMOOTH",
"255 611 OFFCURVE",
"282 574 OFFCURVE",
"282 525 CURVE SMOOTH"
);
},
{
closed = 1;
nodes = (
"855 282 OFFCURVE",
"784 364 OFFCURVE",
"677 364 CURVE SMOOTH",
"571 364 OFFCURVE",
"499 280 OFFCURVE",
"499 177 CURVE SMOOTH",
"499 76 OFFCURVE",
"570 -10 OFFCURVE",
"676 -10 CURVE SMOOTH",
"783 -10 OFFCURVE",
"855 77 OFFCURVE",
"855 178 CURVE SMOOTH"
);
},
{
closed = 1;
nodes = (
"742 129 OFFCURVE",
"717 92 OFFCURVE",
"677 92 CURVE SMOOTH",
"641 92 OFFCURVE",
"612 129 OFFCURVE",
"612 178 CURVE SMOOTH",
"612 228 OFFCURVE",
"636 262 OFFCURVE",
"676 262 CURVE SMOOTH",
"715 262 OFFCURVE",
"742 227 OFFCURVE",
"742 177 CURVE SMOOTH"
);
}
);
width = 893;
}
);
unicode = 0025;
},
{
glyphname = ampersand;
layers = (
{
hints = (
{
place = "{44, 176}";
type = Stem;
},
{
place = "{141, 150}";
type = Stem;
},
{
place = "{413, 142}";
type = Stem;
},
{
horizontal = 1;
place = "{-12, 131}";
type = Stem;
},
{
horizontal = 1;
place = "{-5, 21}";
target = up;
type = BottomGhost;
},
{
horizontal = 1;
place = "{597, 122}";
type = Stem;
}
);
layerId = "A096C860-9E6F-43F5-BF5F-7670645978FC";
paths = (
{
closed = 1;
nodes = (
"574 383 LINE",
"553 340 OFFCURVE",
"530 301 OFFCURVE",
"505 265 CURVE",
"415 361 LINE",
"499 400 OFFCURVE",
"555 457 OFFCURVE",
"555 542 CURVE SMOOTH",
"555 643 OFFCURVE",
"477 719 OFFCURVE",
"353 719 CURVE SMOOTH",
"223 719 OFFCURVE",
"141 634 OFFCURVE",
"141 534 CURVE SMOOTH",
"141 486 OFFCURVE",
"157 439 OFFCURVE",
"191 391 CURVE",
"93 349 OFFCURVE",
"44 283 OFFCURVE",
"44 192 CURVE SMOOTH",
"44 64 OFFCURVE",
"150 -12 OFFCURVE",
"290 -12 CURVE SMOOTH",
"372 -12 OFFCURVE",
"439 16 OFFCURVE",
"499 64 CURVE",
"564 -5 LINE",
"726 30 LINE",
"598 171 LINE",
"633 218 OFFCURVE",
"669 287 OFFCURVE",
"699 342 CURVE"
);
},
{
closed = 1;
nodes = (
"388 597 OFFCURVE",
"413 574 OFFCURVE",
"413 536 CURVE SMOOTH",
"413 497 OFFCURVE",
"386 466 OFFCURVE",
"332 441 CURVE",
"305 475 OFFCURVE",
"291 500 OFFCURVE",
"291 529 CURVE SMOOTH",
"291 570 OFFCURVE",
"317 597 OFFCURVE",
"353 597 CURVE SMOOTH"
);
},
{
closed = 1;
nodes = (
"408 159 LINE",
"379 135 OFFCURVE",
"347 119 OFFCURVE",
"312 119 CURVE SMOOTH",
"258 119 OFFCURVE",
"220 152 OFFCURVE",
"220 199 CURVE SMOOTH",
"220 237 OFFCURVE",
"240 267 OFFCURVE",
"283 290 CURVE"
);
}
);
width = 737;
}
);
unicode = 0026;
},
{
glyphname = quotesingle;
layers = (
{
hints = (
{
horizontal = 1;
place = "{701, -20}";
target = down;
type = TopGhost;
},
{
place = "{86, 211}";
type = Stem;
}
);
layerId = "A096C860-9E6F-43F5-BF5F-7670645978FC";
paths = (
{
closed = 1;
nodes = (
"86 358 LINE",
"181 358 LINE",
"295 690 LINE",
"297 701 LINE",
"108 701 LINE"
);
}
);
width = 383;
}
);
unicode = 0027;
},
{
glyphname = parenleft;
layers = (
{
hints = (
{
horizontal = 1;
place = "{711, -20}";
target = down;
type = TopGhost;
},
{
place = "{71, 169}";
type = Stem;
}
);
layerId = "A096C860-9E6F-43F5-BF5F-7670645978FC";
paths = (
{
closed = 1;
nodes = (
"240 422 OFFCURVE",
"297 518 OFFCURVE",
"425 612 CURVE",
"339 711 LINE",
"177 612 OFFCURVE",
"71 487 OFFCURVE",
"71 287 CURVE SMOOTH",
"71 86 OFFCURVE",
"169 -43 OFFCURVE",
"336 -136 CURVE",
"425 -38 LINE",
"297 56 OFFCURVE",
"240 151 OFFCURVE",
"240 287 CURVE SMOOTH"
);
}
);
width = 461;
}
);
unicode = 0028;
},
{
glyphname = parenright;
layers = (
{
hints = (
{
horizontal = 1;
place = "{711, -20}";
target = down;
type = TopGhost;
},
{
place = "{223, 168}";
type = Stem;
}
);
layerId = "A096C860-9E6F-43F5-BF5F-7670645978FC";
paths = (
{
closed = 1;
nodes = (
"223 152 OFFCURVE",
"166 56 OFFCURVE",
"37 -38 CURVE",
"127 -136 LINE",
"296 -41 OFFCURVE",
"391 87 OFFCURVE",
"391 287 CURVE SMOOTH",
"391 485 OFFCURVE",
"294 612 OFFCURVE",
"124 711 CURVE",
"37 612 LINE",
"167 518 OFFCURVE",
"223 422 OFFCURVE",
"223 287 CURVE SMOOTH"
);
}
);
width = 461;
}
);
unicode = 0029;
},
{
glyphname = asterisk;
layers = (
{
hints = (
{
horizontal = 1;
place = "{713, -20}";
target = down;
type = TopGhost;
},
{
place = "{165, 79}";
type = Stem;
}
);
layerId = "A096C860-9E6F-43F5-BF5F-7670645978FC";
paths = (
{
closed = 1;
nodes = (
"141 563 LINE",
"20 521 LINE",
"43 448 LINE",
"165 490 LINE",
"165 357 LINE",
"244 357 LINE",
"244 488 LINE",
"364 448 LINE",
"388 521 LINE",
"269 561 LINE",
"342 668 LINE",
"278 713 LINE",
"204 609 LINE",
"129 713 LINE",
"66 668 LINE"
);
}
);
width = 406;
}
);
unicode = 002A;
},
{
glyphname = plus;
layers = (
{
hints = (
{
horizontal = 1;
place = "{275, 152}";
type = Stem;
},
{
place = "{251, 157}";
type = Stem;
}
);
layerId = "A096C860-9E6F-43F5-BF5F-7670645978FC";
paths = (
{
closed = 1;
nodes = (
"408 605 LINE",
"251 605 LINE",
"251 427 LINE",
"75 427 LINE",
"75 275 LINE",
"251 275 LINE",
"251 97 LINE",
"408 97 LINE",
"408 275 LINE",
"584 275 LINE",
"584 427 LINE",
"408 427 LINE"
);
}
);
width = 659;
}
);
unicode = 002B;
},
{
glyphname = comma;
layers = (
{
hints = (
{
horizontal = 1;
place = "{-160, 344}";
type = Stem;
},
{
place = "{12, 218}";
type = Stem;
}
);
layerId = "A096C860-9E6F-43F5-BF5F-7670645978FC";
paths = (
{
closed = 1;
nodes = (
"230 184 LINE",
"71 184 LINE",
"12 -160 LINE",
"132 -160 LINE"
);
}
);
width = 275;
}
);
unicode = 002C;
},
{
glyphname = hyphen;
layers = (
{
hints = (
{
horizontal = 1;
place = "{197, 152}";
type = Stem;
},
{
place = "{24, 318}";
type = Stem;
}
);
layerId = "A096C860-9E6F-43F5-BF5F-7670645978FC";
paths = (
{
closed = 1;
nodes = (
"342 349 LINE",
"24 349 LINE",
"24 197 LINE",
"342 197 LINE"
);
}
);
width = 365;
}
);
unicode = 002D;
},
{
glyphname = period;
layers = (
{
hints = (
{
place = "{66, 207}";
type = Stem;
},
{
horizontal = 1;
place = "{-13, 203}";
type = Stem;
},
{
horizontal = 1;
place = "{-13, 21}";
target = up;
type = BottomGhost;
}
);
layerId = "A096C860-9E6F-43F5-BF5F-7670645978FC";
paths = (
{
closed = 1;
nodes = (
"66 24 OFFCURVE",
"111 -13 OFFCURVE",
"169 -13 CURVE SMOOTH",
"228 -13 OFFCURVE",
"273 24 OFFCURVE",
"273 89 CURVE SMOOTH",
"273 155 OFFCURVE",
"228 190 OFFCURVE",
"169 190 CURVE SMOOTH",
"111 190 OFFCURVE",
"66 155 OFFCURVE",
"66 89 CURVE SMOOTH"
);
}
);
width = 340;
}
);
unicode = 002E;
},
{
glyphname = slash;
layers = (
{
hints = (
{
horizontal = 1;
place = "{-122, 918}";
type = Stem;
},
{
place = "{-1, 581}";
type = Stem;
}
);
layerId = "A096C860-9E6F-43F5-BF5F-7670645978FC";
paths = (
{
closed = 1;
nodes = (
"580 793 LINE",
"440 796 LINE",
"-1 -120 LINE",
"139 -122 LINE"
);
}
);
width = 580;
}
);
unicode = 002F;
},
{
glyphname = zero;
layers = (
{
hints = (
{
horizontal = 1;
place = "{-14, 156}";
type = Stem;
},
{
horizontal = 1;
place = "{559, 156}";
type = Stem;
},
{
place = "{39, 177}";
type = Stem;
},
{
place = "{491, 177}";
type = Stem;
}
);
layerId = "A096C860-9E6F-43F5-BF5F-7670645978FC";
paths = (
{
closed = 1;
nodes = (
"159 715 OFFCURVE",
"39 551 OFFCURVE",
"39 351 CURVE SMOOTH",
"39 148 OFFCURVE",
"157 -14 OFFCURVE",
"352 -14 CURVE SMOOTH",
"548 -14 OFFCURVE",
"668 152 OFFCURVE",
"668 352 CURVE SMOOTH",
"668 554 OFFCURVE",
"549 715 OFFCURVE",
"354 715 CURVE SMOOTH"
);
},
{
closed = 1;
nodes = (
"436 559 OFFCURVE",
"491 472 OFFCURVE",
"491 350 CURVE SMOOTH",
"491 230 OFFCURVE",
"438 142 OFFCURVE",
"354 142 CURVE SMOOTH",
"271 142 OFFCURVE",
"216 230 OFFCURVE",
"216 353 CURVE SMOOTH",
"216 474 OFFCURVE",
"269 559 OFFCURVE",
"352 559 CURVE SMOOTH"
);
}
);
width = 706;
}
);
unicode = 0030;
},
{
glyphname = one;
layers = (
{
hints = (
{
horizontal = 1;
place = "{0, 21}";
target = up;
type = BottomGhost;
},
{
horizontal = 1;
place = "{542, 164}";
type = Stem;
},
{
place = "{160, 173}";
type = Stem;
}
);
layerId = "A096C860-9E6F-43F5-BF5F-7670645978FC";
paths = (
{
closed = 1;
nodes = (
"333 706 LINE",
"13 706 LINE",
"13 542 LINE",
"160 542 LINE",
"160 0 LINE",
"333 0 LINE"
);
}
);
width = 414;
}
);
unicode = 0031;
},
{
glyphname = two;
layers = (
{
hints = (
{
horizontal = 1;
place = "{0, 144}";
type = Stem;
},
{
horizontal = 1;
place = "{560, 153}";
type = Stem;
},
{
place = "{362, 177}";
type = Stem;
}
);
layerId = "A096C860-9E6F-43F5-BF5F-7670645978FC";
paths = (
{
closed = 1;
nodes = (
"136 713 OFFCURVE",
"15 628 OFFCURVE",
"11 463 CURVE",
"174 463 LINE",
"176 529 OFFCURVE",
"224 560 OFFCURVE",
"276 560 CURVE SMOOTH",
"330 560 OFFCURVE",
"362 528 OFFCURVE",
"362 483 CURVE SMOOTH",
"362 444 OFFCURVE",
"339 393 OFFCURVE",
"282 325 CURVE SMOOTH",
"6 0 LINE",
"547 0 LINE",
"547 144 LINE",
"338 144 LINE",
"417 246 LINE SMOOTH",
"498 350 OFFCURVE",
"539 415 OFFCURVE",
"539 496 CURVE SMOOTH",
"539 624 OFFCURVE",
"436 713 OFFCURVE",
"280 713 CURVE SMOOTH"
);
}
);
width = 593;
}
);
unicode = 0032;
},
{
glyphname = three;
layers = (
{
hints = (
{
place = "{419, 171}";
type = Stem;
},
{
horizontal = 1;
place = "{-14, 151}";
type = Stem;
},
{
horizontal = 1;
place = "{560, 143}";
type = Stem;
},
{
horizontal = 1;
place = "{575, 128}";
type = Stem;
}
);
layerId = "A096C860-9E6F-43F5-BF5F-7670645978FC";
paths = (
{
closed = 1;
nodes = (
"574 575 LINE",
"574 703 LINE",
"84 703 LINE",
"84 560 LINE",
"358 560 LINE",
"188 401 LINE",
"214 309 LINE",
"230 310 OFFCURVE",
"279 310 OFFCURVE",
"294 310 CURVE SMOOTH",
"371 310 OFFCURVE",
"419 281 OFFCURVE",
"419 224 CURVE SMOOTH",
"419 172 OFFCURVE",
"377 137 OFFCURVE",
"314 137 CURVE SMOOTH",
"256 137 OFFCURVE",
"203 165 OFFCURVE",
"161 217 CURVE",
"37 118 LINE",
"99 38 OFFCURVE",
"197 -14 OFFCURVE",
"323 -14 CURVE SMOOTH",
"483 -14 OFFCURVE",
"590 82 OFFCURVE",
"590 222 CURVE SMOOTH",
"590 343 OFFCURVE",
"507 404 OFFCURVE",
"402 422 CURVE"
);
}
);
width = 637;
}
);
unicode = 0033;
},
{
glyphname = four;
layers = (
{
hints = (
{
horizontal = 1;
place = "{0, 21}";
target = up;
type = BottomGhost;
},
{
horizontal = 1;
place = "{139, 133}";
type = Stem;
},
{
horizontal = 1;
place = "{706, -20}";
target = down;
type = TopGhost;
},
{
place = "{395, 170}";
type = Stem;
}
);
layerId = "A096C860-9E6F-43F5-BF5F-7670645978FC";
paths = (
{
closed = 1;
nodes = (
"381 706 LINE",
"21 267 LINE",
"50 139 LINE",
"395 139 LINE",
"395 0 LINE",
"565 0 LINE",
"565 139 LINE",
"656 139 LINE",
"656 272 LINE",
"565 272 LINE",
"565 706 LINE"
);
},
{
closed = 1;
nodes = (
"395 272 LINE",
"207 272 LINE",
"395 507 LINE"
);
}
);
width = 682;
}
);
unicode = 0034;
},
{
glyphname = five;
layers = (
{
hints = (
{
horizontal = 1;
place = "{-14, 150}";
type = Stem;
},
{
horizontal = 1;
place = "{325, 132}";
type = Stem;
},
{
horizontal = 1;
place = "{555, 146}";
type = Stem;
},
{
place = "{89, 145}";
type = Stem;
},
{
place = "{410, 171}";
type = Stem;
}
);
layerId = "A096C860-9E6F-43F5-BF5F-7670645978FC";
paths = (
{
closed = 1;
nodes = (
"184 293 LINE",
"217 311 OFFCURVE",
"252 325 OFFCURVE",
"294 325 CURVE SMOOTH",
"362 325 OFFCURVE",
"410 289 OFFCURVE",
"410 232 CURVE SMOOTH",
"410 174 OFFCURVE",
"367 136 OFFCURVE",
"296 136 CURVE SMOOTH",
"235 136 OFFCURVE",
"181 164 OFFCURVE",
"125 212 CURVE",
"25 95 LINE",
"96 28 OFFCURVE",
"178 -14 OFFCURVE",
"298 -14 CURVE SMOOTH",
"466 -14 OFFCURVE",
"581 81 OFFCURVE",
"581 235 CURVE SMOOTH",
"581 384 OFFCURVE",
"467 457 OFFCURVE",
"341 457 CURVE SMOOTH",
"296 457 OFFCURVE",
"263 447 OFFCURVE",
"230 432 CURVE",
"239 555 LINE",
"550 555 LINE",
"552 701 LINE",
"100 701 LINE",
"78 351 LINE"
);
}
);
width = 623;
}
);
unicode = 0035;
},
{
glyphname = six;
layers = (
{
hints = (
{
horizontal = 1;
place = "{-14, 138}";
type = Stem;
},
{
horizontal = 1;
place = "{326, 127}";
type = Stem;
},
{
horizontal = 1;
place = "{706, -20}";
target = down;
type = TopGhost;
},
{
place = "{37, 177}";
type = Stem;
},
{
place = "{430, 172}";
type = Stem;
}
);
layerId = "A096C860-9E6F-43F5-BF5F-7670645978FC";
paths = (
{
closed = 1;
nodes = (
"296 706 LINE",
"161 504 LINE SMOOTH",
"66 361 OFFCURVE",
"37 297 OFFCURVE",
"37 222 CURVE SMOOTH",
"37 83 OFFCURVE",
"150 -14 OFFCURVE",
"327 -14 CURVE SMOOTH",
"483 -14 OFFCURVE",
"602 83 OFFCURVE",
"602 236 CURVE SMOOTH",
"602 374 OFFCURVE",
"521 453 OFFCURVE",
"398 453 CURVE SMOOTH",
"333 453 OFFCURVE",
"307 439 OFFCURVE",
"272 412 CURVE",
"481 706 LINE"
);
},
{
closed = 1;
nodes = (
"214 282 OFFCURVE",
"255 326 OFFCURVE",
"322 326 CURVE SMOOTH",
"388 326 OFFCURVE",
"430 283 OFFCURVE",
"430 226 CURVE SMOOTH",
"430 168 OFFCURVE",
"390 124 OFFCURVE",
"323 124 CURVE SMOOTH",
"258 124 OFFCURVE",
"214 170 OFFCURVE",
"214 227 CURVE SMOOTH"
);
}
);
width = 639;
}
);
unicode = 0036;
},
{
glyphname = seven;
layers = (
{
hints = (
{
horizontal = 1;
place = "{0, 21}";
target = up;
type = BottomGhost;
},
{
horizontal = 1;
place = "{553, 148}";
type = Stem;
},
{
place = "{31, 529}";
type = Stem;
}
);
layerId = "A096C860-9E6F-43F5-BF5F-7670645978FC";
paths = (
{
closed = 1;
nodes = (
"560 567 LINE",
"560 701 LINE",
"31 701 LINE",
"31 553 LINE",
"366 553 LINE",
"52 0 LINE",
"245 0 LINE"
);
}
);
width = 551;
}
);
unicode = 0037;
},
{
glyphname = eight;
layers = (
{
hints = (
{
place = "{46, 170}";
type = Stem;
},
{
place = "{71, 162}";
type = Stem;
},
{
place = "{422, 162}";
type = Stem;
},
{
place = "{439, 170}";
type = Stem;
},
{
horizontal = 1;
place = "{-12, 133}";
type = Stem;
},
{
horizontal = 1;
place = "{297, 117}";
type = Stem;
},
{
horizontal = 1;
place = "{580, 133}";
type = Stem;
}
);
layerId = "A096C860-9E6F-43F5-BF5F-7670645978FC";
paths = (
{
closed = 1;
nodes = (
"584 630 OFFCURVE",
"478 713 OFFCURVE",
"327 713 CURVE SMOOTH",
"177 713 OFFCURVE",
"71 630 OFFCURVE",
"71 519 CURVE SMOOTH",
"71 443 OFFCURVE",
"111 395 OFFCURVE",
"169 364 CURVE",
"91 331 OFFCURVE",
"46 274 OFFCURVE",
"46 194 CURVE SMOOTH",
"46 73 OFFCURVE",
"164 -12 OFFCURVE",
"327 -12 CURVE SMOOTH",
"491 -12 OFFCURVE",
"609 71 OFFCURVE",
"609 195 CURVE SMOOTH",
"609 273 OFFCURVE",
"560 331 OFFCURVE",
"486 364 CURVE",
"543 396 OFFCURVE",
"584 443 OFFCURVE",
"584 518 CURVE SMOOTH"
);
},
{
closed = 1;
nodes = (
"233 544 OFFCURVE",
"270 580 OFFCURVE",
"327 580 CURVE SMOOTH",
"385 580 OFFCURVE",
"422 543 OFFCURVE",
"422 499 CURVE SMOOTH",
"422 453 OFFCURVE",
"384 414 OFFCURVE",
"327 414 CURVE SMOOTH",
"272 414 OFFCURVE",
"233 454 OFFCURVE",
"233 499 CURVE SMOOTH"
);
},
{
closed = 1;
nodes = (
"216 262 OFFCURVE",
"263 297 OFFCURVE",
"327 297 CURVE SMOOTH",
"392 297 OFFCURVE",
"439 262 OFFCURVE",
"439 211 CURVE SMOOTH",
"439 163 OFFCURVE",
"398 121 OFFCURVE",
"327 121 CURVE SMOOTH",
"257 121 OFFCURVE",
"216 163 OFFCURVE",
"216 211 CURVE SMOOTH"
);
}
);
width = 655;
}
);
unicode = 0038;
},
{
glyphname = nine;
layers = (
{
hints = (
{
horizontal = 1;
place = "{0, 21}";
target = up;
type = BottomGhost;
},
{
horizontal = 1;
place = "{252, 128}";
type = Stem;
},
{
horizontal = 1;
place = "{582, 138}";
type = Stem;
},
{
place = "{37, 171}";
type = Stem;
},
{
place = "{424, 178}";
type = Stem;
}
);
layerId = "A096C860-9E6F-43F5-BF5F-7670645978FC";
paths = (
{
closed = 1;
nodes = (
"342 0 LINE",
"519 272 LINE",
"580 368 OFFCURVE",
"602 426 OFFCURVE",
"602 483 CURVE SMOOTH",
"602 623 OFFCURVE",
"491 720 OFFCURVE",
"308 720 CURVE SMOOTH",
"158 720 OFFCURVE",
"37 624 OFFCURVE",
"37 472 CURVE SMOOTH",
"37 334 OFFCURVE",
"119 252 OFFCURVE",
"242 252 CURVE SMOOTH",
"299 252 OFFCURVE",
"330 267 OFFCURVE",
"367 294 CURVE",
"158 0 LINE"
);
},
{
closed = 1;
nodes = (
"424 425 OFFCURVE",
"383 380 OFFCURVE",
"317 380 CURVE SMOOTH",
"251 380 OFFCURVE",
"208 426 OFFCURVE",
"208 482 CURVE SMOOTH",
"208 538 OFFCURVE",
"249 582 OFFCURVE",
"315 582 CURVE SMOOTH",
"381 582 OFFCURVE",
"424 537 OFFCURVE",
"424 481 CURVE SMOOTH"
);
}
);
width = 639;
}
);
unicode = 0039;
},
{
glyphname = colon;
layers = (
{
hints = (
{
place = "{66, 207}";
type = Stem;
},
{
horizontal = 1;
place = "{-13, 203}";
type = Stem;
},
{
horizontal = 1;
place = "{-13, 21}";
target = up;
type = BottomGhost;
},
{
horizontal = 1;
place = "{339, 203}";
type = Stem;
},
{
horizontal = 1;
place = "{542, -20}";
target = down;
type = TopGhost;
}
);
layerId = "A096C860-9E6F-43F5-BF5F-7670645978FC";
paths = (
{
closed = 1;
nodes = (
"66 375 OFFCURVE",
"111 339 OFFCURVE",
"169 339 CURVE SMOOTH",
"228 339 OFFCURVE",
"273 375 OFFCURVE",
"273 441 CURVE SMOOTH",
"273 507 OFFCURVE",
"228 542 OFFCURVE",
"169 542 CURVE SMOOTH",
"111 542 OFFCURVE",
"66 507 OFFCURVE",
"66 441 CURVE SMOOTH"
);
},
{
closed = 1;
nodes = (
"66 24 OFFCURVE",
"111 -13 OFFCURVE",
"169 -13 CURVE SMOOTH",
"228 -13 OFFCURVE",
"273 24 OFFCURVE",
"273 89 CURVE SMOOTH",
"273 155 OFFCURVE",
"228 190 OFFCURVE",
"169 190 CURVE SMOOTH",
"111 190 OFFCURVE",
"66 155 OFFCURVE",
"66 89 CURVE SMOOTH"
);
}
);
width = 340;
}
);
unicode = 003A;
},
{
glyphname = semicolon;
layers = (
{
hints = (
{
place = "{36, 208}";
type = Stem;
},
{
horizontal = 1;
place = "{339, 203}";
type = Stem;
},
{
horizontal = 1;
place = "{542, -20}";
target = down;
type = TopGhost;
}
);
layerId = "A096C860-9E6F-43F5-BF5F-7670645978FC";
paths = (
{
closed = 1;
nodes = (
"36 375 OFFCURVE",
"81 339 OFFCURVE",
"140 339 CURVE SMOOTH",
"198 339 OFFCURVE",
"244 375 OFFCURVE",
"244 441 CURVE SMOOTH",
"244 507 OFFCURVE",
"198 542 OFFCURVE",
"140 542 CURVE SMOOTH",
"81 542 OFFCURVE",
"36 507 OFFCURVE",
"36 441 CURVE SMOOTH"
);
},
{
closed = 1;
nodes = (
"230 184 LINE",
"71 184 LINE",
"12 -160 LINE",
"132 -160 LINE"
);
}
);
width = 290;
}
);
unicode = 003B;
},
{
glyphname = less;
layers = (
{
hints = (
{
horizontal = 1;
place = "{67, 566}";
type = Stem;
},
{
place = "{81, 494}";
type = Stem;
}
);
layerId = "A096C860-9E6F-43F5-BF5F-7670645978FC";
paths = (
{
closed = 1;
nodes = (
"575 633 LINE",
"81 430 LINE",
"81 270 LINE",
"575 67 LINE",
"575 229 LINE",
"238 351 LINE",
"575 472 LINE"
);
}
);
width = 654;
}
);
unicode = 003C;
},
{
glyphname = equal;
layers = (
{
hints = (
{
horizontal = 1;
place = "{144, 152}";
type = Stem;
},
{
horizontal = 1;
place = "{409, 152}";
type = Stem;
},
{
place = "{75, 489}";
type = Stem;
}
);
layerId = "A096C860-9E6F-43F5-BF5F-7670645978FC";
paths = (
{
closed = 1;
nodes = (
"75 561 LINE",
"75 409 LINE",
"564 409 LINE",
"564 561 LINE"
);
},
{
closed = 1;
nodes = (
"75 296 LINE",
"75 144 LINE",
"564 144 LINE",
"564 296 LINE"
);
}
);
width = 639;
}
);
unicode = 003D;
},
{
glyphname = greater;
layers = (
{
hints = (
{
horizontal = 1;
place = "{68, 565}";
type = Stem;
},
{
place = "{81, 494}";
type = Stem;
}
);
layerId = "A096C860-9E6F-43F5-BF5F-7670645978FC";
paths = (
{
closed = 1;
nodes = (
"81 471 LINE",
"418 350 LINE",
"81 228 LINE",
"81 68 LINE",
"575 270 LINE",
"575 430 LINE",
"81 633 LINE"
);
}
);
width = 655;
}
);
unicode = 003E;
},
{
glyphname = question;
layers = (
{
hints = (
{
place = "{141, 199}";
type = Stem;
},
{
place = "{154, 158}";
type = Stem;
},
{
place = "{298, 173}";
type = Stem;
},
{
horizontal = 1;
place = "{-12, 180}";
type = Stem;
},
{
horizontal = 1;
place = "{563, 147}";
type = Stem;
}
);
layerId = "A096C860-9E6F-43F5-BF5F-7670645978FC";
paths = (
{
closed = 1;
nodes = (
"257 563 OFFCURVE",
"298 541 OFFCURVE",
"298 502 CURVE SMOOTH",
"298 470 OFFCURVE",
"271 442 OFFCURVE",
"242 419 CURVE SMOOTH",
"199 383 OFFCURVE",
"154 341 OFFCURVE",
"154 260 CURVE SMOOTH",
"154 213 LINE",
"312 213 LINE",
"312 245 LINE SMOOTH",
"312 288 OFFCURVE",
"325 303 OFFCURVE",
"361 333 CURVE",
"425 382 OFFCURVE",
"471 426 OFFCURVE",
"471 514 CURVE SMOOTH",
"471 639 OFFCURVE",
"365 710 OFFCURVE",
"244 710 CURVE SMOOTH",
"163 710 OFFCURVE",
"88 682 OFFCURVE",
"40 619 CURVE",
"40 471 LINE",
"82 514 OFFCURVE",
"145 563 OFFCURVE",
"214 563 CURVE SMOOTH"
);
},
{
closed = 1;
nodes = (
"141 19 OFFCURVE",
"184 -12 OFFCURVE",
"240 -12 CURVE SMOOTH",
"295 -12 OFFCURVE",
"340 19 OFFCURVE",
"340 78 CURVE SMOOTH",
"340 137 OFFCURVE",
"295 168 OFFCURVE",
"240 168 CURVE SMOOTH",
"184 168 OFFCURVE",
"141 137 OFFCURVE",
"141 78 CURVE SMOOTH"
);
}
);
width = 510;
}
);
unicode = 003F;
},
{
glyphname = at;
layers = (
{
hints = (
{
place = "{39, 52}";
type = Stem;
},
{
place = "{218, 146}";
type = Stem;
},
{
place = "{546, 133}";
type = Stem;
},
{
place = "{850, 52}";
type = Stem;
},
{
horizontal = 1;
place = "{-151, 49}";
type = Stem;
},
{
horizontal = 1;
place = "{66, 62}";
type = Stem;
},
{
horizontal = 1;
place = "{68, 123}";
type = Stem;
},
{
horizontal = 1;
place = "{397, 124}";
type = Stem;
},
{
horizontal = 1;
place = "{668, 47}";
type = Stem;
}
);
layerId = "A096C860-9E6F-43F5-BF5F-7670645978FC";
paths = (
{
closed = 1;
nodes = (
"727 -42 LINE",
"651 -86 OFFCURVE",
"578 -102 OFFCURVE",
"482 -102 CURVE SMOOTH",
"246 -102 OFFCURVE",
"91 61 OFFCURVE",
"91 281 CURVE SMOOTH",
"91 499 OFFCURVE",
"249 668 OFFCURVE",
"477 668 CURVE SMOOTH",
"700 668 OFFCURVE",
"850 519 OFFCURVE",
"850 329 CURVE SMOOTH",
"850 199 OFFCURVE",
"805 128 OFFCURVE",
"740 128 CURVE SMOOTH",
"688 128 OFFCURVE",
"673 177 OFFCURVE",
"679 227 CURVE",
"724 487 LINE",
"583 508 LINE",
"571 446 LINE",
"545 488 OFFCURVE",
"503 521 OFFCURVE",
"438 521 CURVE SMOOTH",
"319 521 OFFCURVE",
"218 406 OFFCURVE",
"218 266 CURVE SMOOTH",
"218 146 OFFCURVE",
"296 68 OFFCURVE",
"399 68 CURVE SMOOTH",
"463 68 OFFCURVE",
"509 99 OFFCURVE",
"547 143 CURVE",
"570 100 OFFCURVE",
"614 66 OFFCURVE",
"694 66 CURVE SMOOTH",
"802 66 OFFCURVE",
"902 153 OFFCURVE",
"902 330 CURVE SMOOTH",
"902 541 OFFCURVE",
"720 715 OFFCURVE",
"477 715 CURVE SMOOTH",
"228 715 OFFCURVE",
"39 520 OFFCURVE",
"39 281 CURVE SMOOTH",
"39 40 OFFCURVE",
"225 -151 OFFCURVE",
"481 -151 CURVE SMOOTH",
"585 -151 OFFCURVE",
"670 -122 OFFCURVE",
"747 -74 CURVE"
);
},
{
closed = 1;
nodes = (
"515 397 OFFCURVE",
"546 365 OFFCURVE",
"546 314 CURVE SMOOTH",
"546 247 OFFCURVE",
"500 191 OFFCURVE",
"442 191 CURVE SMOOTH",
"396 191 OFFCURVE",
"364 222 OFFCURVE",
"364 277 CURVE SMOOTH",
"364 343 OFFCURVE",
"410 397 OFFCURVE",
"468 397 CURVE SMOOTH"
);
}
);
width = 941;
}
);
unicode = 0040;
},
{
glyphname = A;
layers = (
{
hints = (
{
horizontal = 1;
place = "{0, 21}";
target = up;
type = BottomGhost;
},
{
horizontal = 1;
place = "{137, 138}";
type = Stem;
},
{
horizontal = 1;
place = "{705, -20}";
target = down;
type = TopGhost;
},
{
place = "{-7, 767}";
type = Stem;
}
);
layerId = "A096C860-9E6F-43F5-BF5F-7670645978FC";
paths = (
{
closed = 1;
nodes = (
"515 137 LINE",
"571 0 LINE",
"760 0 LINE",
"460 705 LINE",
"293 705 LINE",
"-7 0 LINE",
"178 0 LINE",
"234 137 LINE"
);
},
{
closed = 1;
nodes = (
"375 497 LINE",
"463 275 LINE",
"287 275 LINE"
);
}
);
width = 752;
}
);
unicode = 0041;
},
{
glyphname = B;
layers = (
{
hints = (
{
place = "{62, 171}";
type = Stem;
},
{
place = "{456, 176}";
type = Stem;
},
{
place = "{493, 176}";
type = Stem;
},
{
horizontal = 1;
place = "{0, 142}";
type = Stem;
},
{
horizontal = 1;
place = "{291, 126}";
type = Stem;
},
{
horizontal = 1;
place = "{559, 142}";
type = Stem;
}
);
layerId = "A096C860-9E6F-43F5-BF5F-7670645978FC";
paths = (
{
closed = 1;
nodes = (
"62 0 LINE",
"399 0 LINE SMOOTH",
"574 0 OFFCURVE",
"669 77 OFFCURVE",
"669 195 CURVE SMOOTH",
"669 287 OFFCURVE",
"615 342 OFFCURVE",
"525 366 CURVE",
"589 393 OFFCURVE",
"632 445 OFFCURVE",
"632 525 CURVE SMOOTH",
"632 639 OFFCURVE",
"536 701 OFFCURVE",
"393 701 CURVE SMOOTH",
"62 701 LINE"
);
},
{
closed = 1;
nodes = (
"233 559 LINE",
"359 559 LINE SMOOTH",
"421 559 OFFCURVE",
"456 535 OFFCURVE",
"456 489 CURVE SMOOTH",
"456 444 OFFCURVE",
"422 417 OFFCURVE",
"355 417 CURVE SMOOTH",
"233 417 LINE"
);
},
{
closed = 1;
nodes = (
"233 291 LINE",
"377 291 LINE SMOOTH",
"457 291 OFFCURVE",
"493 263 OFFCURVE",
"493 218 CURVE SMOOTH",
"493 171 OFFCURVE",
"454 142 OFFCURVE",
"384 142 CURVE SMOOTH",
"233 142 LINE"
);
}
);
width = 705;
}
);
unicode = 0042;
},
{
glyphname = C;
layers = (
{
hints = (
{
horizontal = 1;
place = "{-14, 160}";
type = Stem;
},
{
horizontal = 1;
place = "{555, 160}";
type = Stem;
},
{
place = "{39, 182}";
type = Stem;
}
);
layerId = "A096C860-9E6F-43F5-BF5F-7670645978FC";
paths = (
{
closed = 1;
nodes = (
"626 236 LINE",
"564 179 OFFCURVE",
"500 146 OFFCURVE",
"422 146 CURVE SMOOTH",
"296 146 OFFCURVE",
"221 236 OFFCURVE",
"221 352 CURVE SMOOTH",
"221 464 OFFCURVE",
"297 555 OFFCURVE",
"422 555 CURVE SMOOTH",
"506 555 OFFCURVE",
"574 519 OFFCURVE",
"620 470 CURVE",
"620 651 LINE",
"564 690 OFFCURVE",
"497 715 OFFCURVE",
"408 715 CURVE SMOOTH",
"196 715 OFFCURVE",
"39 555 OFFCURVE",
"39 350 CURVE SMOOTH",
"39 142 OFFCURVE",
"200 -14 OFFCURVE",
"400 -14 CURVE SMOOTH",
"490 -14 OFFCURVE",
"561 11 OFFCURVE",
"626 58 CURVE"
);
}
);
width = 672;
}
);
unicode = 0043;
},
{
glyphname = D;
layers = (
{
hints = (
{
horizontal = 1;
place = "{0, 156}";
type = Stem;
},
{
horizontal = 1;
place = "{545, 156}";
type = Stem;
},
{
place = "{62, 175}";
type = Stem;
},
{
place = "{534, 181}";
type = Stem;
}
);
layerId = "A096C860-9E6F-43F5-BF5F-7670645978FC";
paths = (
{
closed = 1;
nodes = (
"62 0 LINE",
"320 0 LINE SMOOTH",
"568 0 OFFCURVE",
"715 151 OFFCURVE",
"715 354 CURVE SMOOTH",
"715 559 OFFCURVE",
"568 701 OFFCURVE",
"323 701 CURVE SMOOTH",
"62 701 LINE"
);
},
{
closed = 1;
nodes = (
"237 545 LINE",
"333 545 LINE SMOOTH",
"455 545 OFFCURVE",
"534 466 OFFCURVE",
"534 351 CURVE SMOOTH",
"534 230 OFFCURVE",
"453 156 OFFCURVE",
"325 156 CURVE SMOOTH",
"237 156 LINE"
);
}
);
width = 756;
}
);
unicode = 0044;
},
{
glyphname = E;
layers = (
{
hints = (
{
horizontal = 1;
place = "{0, 150}";
type = Stem;
},
{
horizontal = 1;
place = "{284, 140}";
type = Stem;
},
{
horizontal = 1;
place = "{551, 150}";
type = Stem;
},
{
place = "{62, 174}";
type = Stem;
}
);
layerId = "A096C860-9E6F-43F5-BF5F-7670645978FC";
paths = (
{
closed = 1;
nodes = (
"236 284 LINE",
"573 284 LINE",
"573 424 LINE",
"236 424 LINE",
"236 551 LINE",
"607 551 LINE",
"607 701 LINE",
"62 701 LINE",
"62 0 LINE",
"613 0 LINE",
"613 150 LINE",
"236 150 LINE"
);
}
);
width = 666;
}
);
unicode = 0045;
},
{
glyphname = F;
layers = (
{
hints = (
{
horizontal = 1;
place = "{0, 21}";
target = up;
type = BottomGhost;
},
{
horizontal = 1;
place = "{261, 146}";
type = Stem;
},
{
horizontal = 1;
place = "{547, 154}";
type = Stem;
},
{
place = "{62, 176}";
type = Stem;
}
);
layerId = "A096C860-9E6F-43F5-BF5F-7670645978FC";
paths = (
{
closed = 1;
nodes = (
"238 261 LINE",
"570 261 LINE",
"570 407 LINE",
"238 407 LINE",
"238 547 LINE",
"605 547 LINE",
"605 701 LINE",
"62 701 LINE",
"62 0 LINE",
"238 0 LINE"
);
}
);
width = 647;
}
);
unicode = 0046;
},
{
glyphname = G;
layers = (
{
hints = (
{
place = "{39, 180}";
type = Stem;
},
{
place = "{415, 199}";
type = Stem;
},
{
place = "{565, 167}";
type = Stem;
},
{
horizontal = 1;
place = "{-14, 152}";
type = Stem;
},
{
horizontal = 1;
place = "{276, 131}";
type = Stem;
},
{
horizontal = 1;
place = "{558, 157}";
type = Stem;
}
);
layerId = "A096C860-9E6F-43F5-BF5F-7670645978FC";
paths = (
{
closed = 1;
nodes = (
"565 276 LINE",
"565 180 OFFCURVE",
"482 138 OFFCURVE",
"411 138 CURVE SMOOTH",
"305 138 OFFCURVE",
"219 226 OFFCURVE",
"219 350 CURVE SMOOTH",
"219 465 OFFCURVE",
"308 558 OFFCURVE",
"427 558 CURVE SMOOTH",
"498 558 OFFCURVE",
"563 532 OFFCURVE",
"614 488 CURVE",
"614 675 LINE",
"561 701 OFFCURVE",
"487 715 OFFCURVE",
"417 715 CURVE SMOOTH",
"201 715 OFFCURVE",
"39 555 OFFCURVE",
"39 350 CURVE SMOOTH",
"39 140 OFFCURVE",
"201 -14 OFFCURVE",
"402 -14 CURVE SMOOTH",
"572 -14 OFFCURVE",
"732 84 OFFCURVE",
"732 370 CURVE SMOOTH",
"732 407 LINE",
"415 407 LINE",
"415 276 LINE"
);
}
);
width = 771;
}
);
unicode = 0047;
},
{
glyphname = H;
layers = (
{
hints = (
{
horizontal = 1;
place = "{0, 21}";
target = up;
type = BottomGhost;
},
{
horizontal = 1;
place = "{275, 156}";
type = Stem;
},
{
horizontal = 1;
place = "{701, -20}";
target = down;
type = TopGhost;
},
{
place = "{62, 175}";
type = Stem;
},
{
place = "{508, 176}";
type = Stem;
}
);
layerId = "A096C860-9E6F-43F5-BF5F-7670645978FC";
paths = (
{
closed = 1;
nodes = (
"62 0 LINE",
"237 0 LINE",
"237 275 LINE",
"508 275 LINE",
"508 0 LINE",
"684 0 LINE",
"684 701 LINE",
"508 701 LINE",
"508 431 LINE",
"237 431 LINE",
"237 701 LINE",
"62 701 LINE"
);
}
);
width = 747;
}
);
unicode = 0048;
},
{
glyphname = J;
layers = (
{
hints = (
{
horizontal = 1;
place = "{-12, 155}";
type = Stem;
},
{
horizontal = 1;
place = "{701, -20}";
target = down;
type = TopGhost;
},
{
place = "{226, 175}";
type = Stem;
}
);
layerId = "A096C860-9E6F-43F5-BF5F-7670645978FC";
paths = (
{
closed = 1;
nodes = (
"0 38 LINE",
"44 8 OFFCURVE",
"93 -12 OFFCURVE",
"147 -12 CURVE SMOOTH",
"306 -12 OFFCURVE",
"401 91 OFFCURVE",
"401 248 CURVE SMOOTH",
"401 701 LINE",
"226 701 LINE",
"226 249 LINE SMOOTH",
"226 177 OFFCURVE",
"188 143 OFFCURVE",
"135 143 CURVE SMOOTH",
"80 143 OFFCURVE",
"39 179 OFFCURVE",
"0 213 CURVE"
);
}
);
width = 457;
}
);
unicode = 004A;
},
{
glyphname = K;
layers = (
{
hints = (
{
horizontal = 1;
place = "{0, 21}";
target = up;
type = BottomGhost;
},
{
horizontal = 1;
place = "{701, -20}";
target = down;
type = TopGhost;
},
{
place = "{62, 175}";
type = Stem;
}
);
layerId = "A096C860-9E6F-43F5-BF5F-7670645978FC";
paths = (
{
closed = 1;
nodes = (
"237 701 LINE",
"62 701 LINE",
"62 0 LINE",
"237 0 LINE",
"237 362 LINE",
"492 0 LINE",
"704 0 LINE",
"421 395 LINE",
"692 701 LINE",
"483 701 LINE",
"237 415 LINE"
);
}
);
width = 698;
}
);
unicode = 004B;
},
{
glyphname = L;
layers = (
{
hints = (
{
horizontal = 1;
place = "{0, 154}";
type = Stem;
},
{
horizontal = 1;
place = "{701, -20}";
target = down;
type = TopGhost;
},
{
place = "{62, 175}";
type = Stem;
}
);
layerId = "A096C860-9E6F-43F5-BF5F-7670645978FC";
paths = (
{
closed = 1;
nodes = (
"237 701 LINE",
"62 701 LINE",
"62 0 LINE",
"577 0 LINE",
"577 154 LINE",
"237 154 LINE"
);
}
);
width = 594;
}
);
unicode = 004C;
},
{
glyphname = M;
layers = (
{
hints = (
{
horizontal = 1;
place = "{0, 21}";
target = up;
type = BottomGhost;
},
{
horizontal = 1;
place = "{700, -20}";
target = down;
type = TopGhost;
},
{
place = "{20, 172}";
type = Stem;
},
{
place = "{584, 175}";
type = Stem;
}
);
layerId = "A096C860-9E6F-43F5-BF5F-7670645978FC";
paths = (
{
closed = 1;
nodes = (
"388 132 LINE",
"584 429 LINE",
"584 0 LINE",
"759 0 LINE",
"759 700 LINE",
"574 700 LINE",
"389 404 LINE",
"204 700 LINE",
"20 700 LINE",
"20 0 LINE",
"192 0 LINE",
"192 428 LINE"
);
}
);
width = 779;
}
);
unicode = 004D;
},
{
glyphname = N;
layers = (
{
hints = (
{
horizontal = 1;
place = "{0, 21}";
target = up;
type = BottomGhost;
},
{
horizontal = 1;
place = "{700, -20}";
target = down;
type = TopGhost;
},
{
horizontal = 1;
place = "{701, -20}";
target = down;
type = TopGhost;
},
{
place = "{62, 173}";
type = Stem;
},
{
place = "{536, 174}";
type = Stem;
}
);
layerId = "A096C860-9E6F-43F5-BF5F-7670645978FC";
paths = (
{
closed = 1;
nodes = (
"227 700 LINE",
"62 700 LINE",
"62 0 LINE",
"235 0 LINE",
"235 416 LINE",
"554 0 LINE",
"710 0 LINE",
"710 701 LINE",
"536 701 LINE",
"536 296 LINE"
);
}
);
width = 773;
}
);
unicode = 004E;
},
{
glyphname = O;
layers = (
{
hints = (
{
horizontal = 1;
place = "{-14, 159}";
type = Stem;
},
{
horizontal = 1;
place = "{556, 159}";
type = Stem;
},
{
place = "{39, 181}";
type = Stem;
},
{
place = "{609, 181}";
type = Stem;
}
);
layerId = "A096C860-9E6F-43F5-BF5F-7670645978FC";
paths = (
{
closed = 1;
nodes = (
"790 552 OFFCURVE",
"630 715 OFFCURVE",
"415 715 CURVE SMOOTH",
"199 715 OFFCURVE",
"39 552 OFFCURVE",
"39 350 CURVE SMOOTH",
"39 149 OFFCURVE",
"198 -14 OFFCURVE",
"414 -14 CURVE SMOOTH",
"628 -14 OFFCURVE",
"790 151 OFFCURVE",
"790 352 CURVE SMOOTH"
);
},
{
closed = 1;
nodes = (
"609 240 OFFCURVE",
"531 145 OFFCURVE",
"415 145 CURVE SMOOTH",
"300 145 OFFCURVE",
"220 241 OFFCURVE",
"220 352 CURVE SMOOTH",
"220 463 OFFCURVE",
"298 556 OFFCURVE",
"414 556 CURVE SMOOTH",
"530 556 OFFCURVE",
"609 460 OFFCURVE",
"609 350 CURVE SMOOTH"
);
}
);
width = 829;
}
);
unicode = 004F;
},
{
glyphname = P;
layers = (
{
hints = (
{
horizontal = 1;
place = "{0, 21}";
target = up;
type = BottomGhost;
},
{
horizontal = 1;
place = "{213, 140}";
type = Stem;
},
{
horizontal = 1;
place = "{552, 149}";
type = Stem;
},
{
place = "{62, 176}";
type = Stem;
},
{
place = "{458, 176}";
type = Stem;
}
);
layerId = "A096C860-9E6F-43F5-BF5F-7670645978FC";
paths = (
{
closed = 1;
nodes = (
"62 0 LINE",
"238 0 LINE",
"238 213 LINE",
"340 213 LINE SMOOTH",
"509 213 OFFCURVE",
"634 301 OFFCURVE",
"634 461 CURVE SMOOTH",
"634 613 OFFCURVE",
"522 701 OFFCURVE",
"350 701 CURVE SMOOTH",
"62 701 LINE"
);
},
{
closed = 1;
nodes = (
"238 552 LINE",
"336 552 LINE SMOOTH",
"413 552 OFFCURVE",
"458 518 OFFCURVE",
"458 453 CURVE SMOOTH",
"458 392 OFFCURVE",
"412 353 OFFCURVE",
"336 353 CURVE SMOOTH",
"238 353 LINE"
);
}
);
width = 658;
}
);
unicode = 0050;
},
{
glyphname = Q;
layers = (
{
hints = (
{
horizontal = 1;
place = "{-14, 159}";
type = Stem;
},
{
horizontal = 1;
place = "{556, 159}";
type = Stem;
},
{
place = "{39, 181}";
type = Stem;
},
{
place = "{609, 181}";
type = Stem;
}
);
layerId = "A096C860-9E6F-43F5-BF5F-7670645978FC";
paths = (
{
closed = 1;
nodes = (
"836 -137 LINE",
"836 48 LINE",
"729 153 LINE",
"771 212 OFFCURVE",
"790 272 OFFCURVE",
"790 351 CURVE SMOOTH",
"790 553 OFFCURVE",
"630 715 OFFCURVE",
"415 715 CURVE SMOOTH",
"199 715 OFFCURVE",
"39 552 OFFCURVE",
"39 350 CURVE SMOOTH",
"39 147 OFFCURVE",
"198 -14 OFFCURVE",
"414 -14 CURVE SMOOTH",
"497 -14 OFFCURVE",
"584 12 OFFCURVE",
"632 53 CURVE"
);
},
{
closed = 1;
nodes = (
"609 238 OFFCURVE",
"531 145 OFFCURVE",
"415 145 CURVE SMOOTH",
"300 145 OFFCURVE",
"220 240 OFFCURVE",
"220 351 CURVE SMOOTH",
"220 463 OFFCURVE",
"298 556 OFFCURVE",
"414 556 CURVE SMOOTH",
"530 556 OFFCURVE",
"609 460 OFFCURVE",
"609 350 CURVE SMOOTH"
);
}
);
width = 875;
}
);
unicode = 0051;
},
{
glyphname = R;
layers = (
{
hints = (
{
horizontal = 1;
place = "{0, 21}";
target = up;
type = BottomGhost;
},
{
horizontal = 1;
place = "{227, 138}";
type = Stem;
},
{
horizontal = 1;
place = "{548, 153}";
type = Stem;
},
{
place = "{62, 176}";
type = Stem;
},
{
place = "{479, 177}";
type = Stem;
}
);
layerId = "A096C860-9E6F-43F5-BF5F-7670645978FC";
paths = (
{
closed = 1;
nodes = (
"238 0 LINE",
"238 227 LINE",
"324 227 LINE",
"477 0 LINE",
"681 0 LINE",
"504 254 LINE",
"597 288 OFFCURVE",
"656 360 OFFCURVE",
"656 468 CURVE SMOOTH",
"656 608 OFFCURVE",
"560 701 OFFCURVE",
"374 701 CURVE SMOOTH",
"62 701 LINE",
"62 0 LINE"
);
},
{
closed = 1;
nodes = (
"238 365 LINE",
"238 548 LINE",
"364 548 LINE SMOOTH",
"436 548 OFFCURVE",
"479 519 OFFCURVE",
"479 458 CURVE SMOOTH",
"479 399 OFFCURVE",
"434 365 OFFCURVE",
"362 365 CURVE SMOOTH"
);
}
);
width = 677;
}
);
unicode = 0052;
},
{
glyphname = S;
layers = (
{
hints = (
{
horizontal = 1;
place = "{-12, 147}";
type = Stem;
},
{
horizontal = 1;
place = "{571, 142}";
type = Stem;
},
{
place = "{50, 178}";
type = Stem;
}
);
layerId = "A096C860-9E6F-43F5-BF5F-7670645978FC";
paths = (
{
closed = 1;
nodes = (
"223 135 OFFCURVE",
"105 186 OFFCURVE",
"20 259 CURVE",
"20 99 LINE",
"104 22 OFFCURVE",
"219 -12 OFFCURVE",
"330 -12 CURVE SMOOTH",
"480 -12 OFFCURVE",
"591 56 OFFCURVE",
"605 181 CURVE",
"625 469 OFFCURVE",
"228 400 OFFCURVE",
"228 514 CURVE SMOOTH",
"228 544 OFFCURVE",
"259 571 OFFCURVE",
"325 571 CURVE SMOOTH",
"410 571 OFFCURVE",
"513 524 OFFCURVE",
"581 461 CURVE",
"581 626 LINE",
"510 684 OFFCURVE",
"423 713 OFFCURVE",
"312 713 CURVE SMOOTH",
"176 713 OFFCURVE",
"50 643 OFFCURVE",
"50 499 CURVE SMOOTH",
"50 249 OFFCURVE",
"429 307 OFFCURVE",
"429 193 CURVE SMOOTH",
"429 142 OFFCURVE",
"368 135 OFFCURVE",
"329 135 CURVE SMOOTH"
);
}
);
width = 637;
}
);
unicode = 0053;
},
{
glyphname = T;
layers = (
{
hints = (
{
horizontal = 1;
place = "{0, 21}";
target = up;
type = BottomGhost;
},
{
horizontal = 1;
place = "{547, 154}";
type = Stem;
},
{
place = "{220, 176}";
type = Stem;
}
);
layerId = "A096C860-9E6F-43F5-BF5F-7670645978FC";
paths = (
{
closed = 1;
nodes = (
"396 547 LINE",
"606 547 LINE",
"606 701 LINE",
"10 701 LINE",
"10 547 LINE",
"220 547 LINE",
"220 0 LINE",
"396 0 LINE"
);
}
);
width = 618;
}
);
unicode = 0054;
},
{
glyphname = U;
layers = (
{
hints = (
{
horizontal = 1;
place = "{-13, 159}";
type = Stem;
},
{
horizontal = 1;
place = "{701, -20}";
target = down;
type = TopGhost;
},
{
place = "{56, 178}";
type = Stem;
},
{
place = "{514, 178}";
type = Stem;
}
);
layerId = "A096C860-9E6F-43F5-BF5F-7670645978FC";
paths = (
{
closed = 1;
nodes = (
"569 -13 OFFCURVE",
"692 88 OFFCURVE",
"692 308 CURVE SMOOTH",
"692 701 LINE",
"514 701 LINE",
"514 303 LINE SMOOTH",
"514 195 OFFCURVE",
"461 146 OFFCURVE",
"374 146 CURVE SMOOTH",
"286 146 OFFCURVE",
"234 200 OFFCURVE",
"234 307 CURVE SMOOTH",
"234 701 LINE",
"56 701 LINE",
"56 303 LINE SMOOTH",
"56 90 OFFCURVE",
"175 -13 OFFCURVE",
"372 -13 CURVE SMOOTH"
);
}
);
width = 749;
}
);
unicode = 0055;
},
{
glyphname = V;
layers = (
{
hints = (
{
horizontal = 1;
place = "{-4, 21}";
target = up;
type = BottomGhost;
},
{
horizontal = 1;
place = "{701, -20}";
target = down;
type = TopGhost;
},
{
place = "{-7, 732}";
type = Stem;
}
);
layerId = "A096C860-9E6F-43F5-BF5F-7670645978FC";
paths = (
{
closed = 1;
nodes = (
"-7 701 LINE",
"276 -4 LINE",
"442 -4 LINE",
"725 701 LINE",
"532 701 LINE",
"361 229 LINE",
"189 701 LINE"
);
}
);
width = 719;
}
);
unicode = 0056;
},
{
glyphname = W;
layers = (
{
hints = (
{
horizontal = 1;
place = "{-4, 21}";
target = up;
type = BottomGhost;
},
{
horizontal = 1;
place = "{701, -20}";
target = down;
type = TopGhost;
},
{
horizontal = 1;
place = "{703, -20}";
target = down;
type = TopGhost;
},
{
place = "{-2, 1070}";
type = Stem;
}
);
layerId = "A096C860-9E6F-43F5-BF5F-7670645978FC";
paths = (
{
closed = 1;
nodes = (
"184 701 LINE",
"-2 701 LINE",
"233 -4 LINE",
"387 -4 LINE",
"533 429 LINE",
"680 -4 LINE",
"834 -4 LINE",
"1068 701 LINE",
"886 701 LINE",
"754 267 LINE",
"611 703 LINE",
"459 703 LINE",
"317 267 LINE"
);
}
);
width = 1066;
}
);
unicode = 0057;
},
{
glyphname = X;
layers = (
{
hints = (
{
horizontal = 1;
place = "{0, 21}";
target = up;
type = BottomGhost;
},
{
horizontal = 1;
place = "{701, -20}";
target = down;
type = TopGhost;
},
{
place = "{2, 692}";
type = Stem;
}
);
layerId = "A096C860-9E6F-43F5-BF5F-7670645978FC";
paths = (
{
closed = 1;
nodes = (
"12 701 LINE",
"244 357 LINE",
"2 0 LINE",
"200 0 LINE",
"346 225 LINE",
"492 0 LINE",
"694 0 LINE",
"452 359 LINE",
"684 701 LINE",
"486 701 LINE",
"350 490 LINE",
"214 701 LINE"
);
}
);
width = 696;
}
);
unicode = 0058;
},
{
glyphname = Y;
layers = (
{
hints = (
{
horizontal = 1;
place = "{0, 21}";
target = up;
type = BottomGhost;
},
{
horizontal = 1;
place = "{701, -20}";
target = down;
type = TopGhost;
},
{
place = "{261, 177}";
type = Stem;
}
);
layerId = "A096C860-9E6F-43F5-BF5F-7670645978FC";
paths = (
{
closed = 1;
nodes = (
"438 268 LINE",
"704 701 LINE",
"508 701 LINE",
"351 431 LINE",
"195 701 LINE",
"-6 701 LINE",
"261 265 LINE",
"261 0 LINE",
"438 0 LINE"
);
}
);
width = 698;
}
);
unicode = 0059;
},
{
glyphname = Z;
layers = (
{
hints = (
{
horizontal = 1;
place = "{0, 149}";
type = Stem;
},
{
horizontal = 1;
place = "{552, 149}";
type = Stem;
},
{
place = "{-2, 617}";
type = Stem;
}
);
layerId = "A096C860-9E6F-43F5-BF5F-7670645978FC";
paths = (
{
closed = 1;
nodes = (
"615 571 LINE",
"615 701 LINE",
"13 701 LINE",
"13 552 LINE",
"374 552 LINE",
"-2 130 LINE",
"-2 0 LINE",
"611 0 LINE",
"611 149 LINE",
"240 149 LINE"
);
}
);
width = 627;
}
);
unicode = 005A;
},
{
glyphname = bracketleft;
layers = (
{
hints = (
{
horizontal = 1;
place = "{-135, 119}";
type = Stem;
},
{
horizontal = 1;
place = "{586, 118}";
type = Stem;
},
{
place = "{68, 155}";
type = Stem;
}
);
layerId = "A096C860-9E6F-43F5-BF5F-7670645978FC";
paths = (
{
closed = 1;
nodes = (
"396 704 LINE",
"68 704 LINE",
"68 -135 LINE",
"396 -135 LINE",
"396 -16 LINE",
"223 -16 LINE",
"223 586 LINE",
"396 586 LINE"
);
}
);
width = 445;
}
);
unicode = 005B;
},
{
glyphname = backslash;
layers = (
{
hints = (
{
horizontal = 1;
place = "{-126, 921}";
type = Stem;
},
{
place = "{-1, 560}";
type = Stem;
}
);
layerId = "A096C860-9E6F-43F5-BF5F-7670645978FC";
paths = (
{
closed = 1;
nodes = (
"428 -126 LINE",
"559 -104 LINE",
"131 795 LINE",
"-1 776 LINE"
);
}
);
width = 558;
}
);
unicode = 005C;
},
{
glyphname = bracketright;
layers = (
{
hints = (
{
horizontal = 1;
place = "{-135, 119}";
type = Stem;
},
{
horizontal = 1;
place = "{586, 118}";
type = Stem;
},
{
place = "{225, 154}";
type = Stem;
}
);
layerId = "A096C860-9E6F-43F5-BF5F-7670645978FC";
paths = (
{
closed = 1;
nodes = (
"51 -135 LINE",
"379 -135 LINE",
"379 704 LINE",
"51 704 LINE",
"51 586 LINE",
"225 586 LINE",
"225 -16 LINE",
"51 -16 LINE"
);
}
);
width = 447;
}
);
unicode = 005D;
},
{
glyphname = asciicircum;
layers = (
{
hints = (
{
place = "{24, 418}";
type = Stem;
},
{
horizontal = 1;
place = "{481, 219}";
type = Stem;
},
{
horizontal = 1;
place = "{599, 101}";
type = Stem;
}
);
layerId = "A096C860-9E6F-43F5-BF5F-7670645978FC";
paths = (
{
closed = 1;
nodes = (
"24 481 LINE",
"145 481 LINE",
"232 599 LINE",
"319 481 LINE",
"442 481 LINE",
"292 700 LINE",
"174 700 LINE"
);
}
);
width = 465;
}
);
unicode = 005E;
},
{
glyphname = underscore;
layers = (
{
hints = (
{
horizontal = 1;
place = "{-158, 108}";
type = Stem;
},
{
place = "{0, 597}";
type = Stem;
}
);
layerId = "A096C860-9E6F-43F5-BF5F-7670645978FC";
paths = (
{
closed = 1;
nodes = (
"0 -158 LINE",
"597 -158 LINE",
"597 -50 LINE",
"0 -50 LINE"
);
}
);
width = 597;
}
);
unicode = 005F;
},
{
glyphname = grave;
layers = (
{
hints = (
{
horizontal = 1;
place = "{616, 179}";
type = Stem;
},
{
place = "{-10, 266}";
type = Stem;
}
);
layerId = "A096C860-9E6F-43F5-BF5F-7670645978FC";
paths = (
{
closed = 1;
nodes = (
"134 616 LINE",
"256 616 LINE",
"154 795 LINE",
"-10 744 LINE"
);
}
);
width = 264;
}
);
unicode = 0060;
},
{
glyphname = a;
layers = (
{
hints = (
{
horizontal = 1;
place = "{-12, 111}";
type = Stem;
},
{
horizontal = 1;
place = "{240, 88}";
type = Stem;
},
{
horizontal = 1;
place = "{407, 133}";
type = Stem;
},
{
place = "{30, 168}";
type = Stem;
},
{
place = "{377, 168}";
type = Stem;
}
);
layerId = "A096C860-9E6F-43F5-BF5F-7670645978FC";
paths = (
{
closed = 1;
nodes = (
"545 -10 LINE",
"545 311 LINE SMOOTH",
"545 460 OFFCURVE",
"460 540 OFFCURVE",
"284 540 CURVE SMOOTH",
"198 540 OFFCURVE",
"134 522 OFFCURVE",
"74 498 CURVE",
"74 373 LINE",
"134 398 OFFCURVE",
"187 407 OFFCURVE",
"242 407 CURVE SMOOTH",
"330 407 OFFCURVE",
"377 381 OFFCURVE",
"377 316 CURVE SMOOTH",
"377 305 LINE",
"344 318 OFFCURVE",
"294 328 OFFCURVE",
"242 328 CURVE SMOOTH",
"121 328 OFFCURVE",
"30 274 OFFCURVE",
"30 159 CURVE SMOOTH",
"30 50 OFFCURVE",
"114 -12 OFFCURVE",
"217 -12 CURVE SMOOTH",
"288 -12 OFFCURVE",
"337 14 OFFCURVE",
"376 55 CURVE"
);
},
{
closed = 1;
nodes = (
"377 136 LINE",
"349 110 OFFCURVE",
"317 99 OFFCURVE",
"280 99 CURVE SMOOTH",
"236 99 OFFCURVE",
"198 126 OFFCURVE",
"198 169 CURVE SMOOTH",
"198 211 OFFCURVE",
"237 240 OFFCURVE",
"294 240 CURVE SMOOTH",
"328 240 OFFCURVE",
"357 232 OFFCURVE",
"377 222 CURVE"
);
}
);
width = 601;
}
);
unicode = 0061;
},
{
glyphname = b;
layers = (
{
hints = (
{
horizontal = 1;
place = "{-12, 144}";
type = Stem;
},
{
horizontal = 1;
place = "{399, 144}";
type = Stem;
},
{
place = "{55, 172}";
type = Stem;
},
{
place = "{464, 170}";
type = Stem;
}
);
layerId = "A096C860-9E6F-43F5-BF5F-7670645978FC";
paths = (
{
closed = 1;
nodes = (
"523 -12 OFFCURVE",
"634 94 OFFCURVE",
"634 266 CURVE SMOOTH",
"634 437 OFFCURVE",
"523 543 OFFCURVE",
"394 543 CURVE SMOOTH",
"313 543 OFFCURVE",
"265 504 OFFCURVE",
"227 457 CURVE",
"227 730 LINE",
"55 730 LINE",
"55 -10 LINE",
"228 67 LINE",
"263 25 OFFCURVE",
"312 -12 OFFCURVE",
"395 -12 CURVE SMOOTH"
);
},
{
closed = 1;
nodes = (
"464 187 OFFCURVE",
"411 132 OFFCURVE",
"343 132 CURVE SMOOTH",
"277 132 OFFCURVE",
"224 188 OFFCURVE",
"224 265 CURVE SMOOTH",
"224 344 OFFCURVE",
"277 399 OFFCURVE",
"343 399 CURVE SMOOTH",
"412 399 OFFCURVE",
"464 343 OFFCURVE",
"464 267 CURVE SMOOTH"
);
}
);
width = 664;
}
);
unicode = 0062;
},
{
glyphname = c;
layers = (
{
hints = (
{
horizontal = 1;
place = "{-12, 145}";
type = Stem;
},
{
horizontal = 1;
place = "{397, 145}";
type = Stem;
},
{
place = "{30, 168}";
type = Stem;
}
);
layerId = "A096C860-9E6F-43F5-BF5F-7670645978FC";
paths = (
{
closed = 1;
nodes = (
"430 523 LINE",
"398 537 OFFCURVE",
"352 542 OFFCURVE",
"314 542 CURVE SMOOTH",
"146 542 OFFCURVE",
"30 415 OFFCURVE",
"30 265 CURVE SMOOTH",
"30 112 OFFCURVE",
"152 -12 OFFCURVE",
"311 -12 CURVE SMOOTH",
"354 -12 OFFCURVE",
"401 -3 OFFCURVE",
"435 11 CURVE",
"435 173 LINE",
"401 144 OFFCURVE",
"364 133 OFFCURVE",
"329 133 CURVE SMOOTH",
"256 133 OFFCURVE",
"198 192 OFFCURVE",
"198 266 CURVE SMOOTH",
"198 340 OFFCURVE",
"251 397 OFFCURVE",
"326 397 CURVE SMOOTH",
"367 397 OFFCURVE",
"399 382 OFFCURVE",
"430 356 CURVE"
);
}
);
width = 473;
}
);
unicode = 0063;
},
{
glyphname = d;
layers = (
{
hints = (
{
horizontal = 1;
place = "{-12, 145}";
type = Stem;
},
{
horizontal = 1;
place = "{399, 144}";
type = Stem;
},
{
place = "{30, 170}";
type = Stem;
},
{
place = "{437, 172}";
type = Stem;
}
);
layerId = "A096C860-9E6F-43F5-BF5F-7670645978FC";
paths = (
{
closed = 1;
nodes = (
"609 -10 LINE",
"609 730 LINE",
"437 730 LINE",
"437 462 LINE",
"400 506 OFFCURVE",
"350 543 OFFCURVE",
"269 543 CURVE SMOOTH",
"141 543 OFFCURVE",
"30 437 OFFCURVE",
"30 265 CURVE SMOOTH",
"30 94 OFFCURVE",
"142 -12 OFFCURVE",
"270 -12 CURVE SMOOTH",
"350 -12 OFFCURVE",
"397 27 OFFCURVE",
"436 73 CURVE"
);
},
{
closed = 1;
nodes = (
"200 345 OFFCURVE",
"255 399 OFFCURVE",
"319 399 CURVE SMOOTH",
"386 399 OFFCURVE",
"440 344 OFFCURVE",
"440 267 CURVE SMOOTH",
"440 187 OFFCURVE",
"386 133 OFFCURVE",
"319 133 CURVE SMOOTH",
"254 133 OFFCURVE",
"200 188 OFFCURVE",
"200 265 CURVE SMOOTH"
);
}
);
width = 664;
}
);
unicode = 0064;
},
{
glyphname = e;
layers = (
{
hints = (
{
horizontal = 1;
place = "{-16, 127}";
type = Stem;
},
{
horizontal = 1;
place = "{410, 129}";
type = Stem;
},
{
place = "{30, 164}";
type = Stem;
}
);
layerId = "A096C860-9E6F-43F5-BF5F-7670645978FC";
paths = (
{
closed = 1;
nodes = (
"266 111 OFFCURVE",
"232 125 OFFCURVE",
"208 153 CURVE",
"566 244 LINE",
"563 399 OFFCURVE",
"474 539 OFFCURVE",
"304 539 CURVE SMOOTH",
"144 539 OFFCURVE",
"30 421 OFFCURVE",
"30 264 CURVE SMOOTH",
"30 102 OFFCURVE",
"144 -16 OFFCURVE",
"307 -16 CURVE SMOOTH",
"368 -16 OFFCURVE",
"450 -1 OFFCURVE",
"515 42 CURVE",
"515 180 LINE",
"466 136 OFFCURVE",
"378 111 OFFCURVE",
"310 111 CURVE SMOOTH"
);
},
{
closed = 1;
nodes = (
"194 270 LINE SMOOTH",
"194 335 OFFCURVE",
"221 410 OFFCURVE",
"295 410 CURVE SMOOTH",
"347 410 OFFCURVE",
"384 375 OFFCURVE",
"397 319 CURVE",
"194 267 LINE"
);
}
);
width = 596;
}
);
unicode = 0065;
},
{
glyphname = f;
layers = (
{
hints = (
{
horizontal = 1;
place = "{0, 21}";
target = up;
type = BottomGhost;
},
{
horizontal = 1;
place = "{393, 133}";
type = Stem;
},
{
horizontal = 1;
place = "{611, 126}";
type = Stem;
},
{
place = "{94, 170}";
type = Stem;
}
);
layerId = "A096C860-9E6F-43F5-BF5F-7670645978FC";
paths = (
{
closed = 1;
nodes = (
"389 723 LINE",
"360 731 OFFCURVE",
"327 737 OFFCURVE",
"282 737 CURVE SMOOTH",
"165 737 OFFCURVE",
"94 682 OFFCURVE",
"94 551 CURVE SMOOTH",
"94 527 LINE",
"8 393 LINE",
"94 393 LINE",
"94 0 LINE",
"264 0 LINE",
"264 393 LINE",
"385 393 LINE",
"385 526 LINE",
"237 526 LINE",
"237 549 LINE SMOOTH",
"237 591 OFFCURVE",
"276 611 OFFCURVE",
"316 611 CURVE SMOOTH",
"338 611 OFFCURVE",
"367 607 OFFCURVE",
"389 600 CURVE"
);
}
);
width = 386;
}
);
unicode = 0066;
},
{
glyphname = g;
layers = (
{
hints = (
{
horizontal = 1;
place = "{-167, 125}";
type = Stem;
},
{
horizontal = 1;
place = "{43, 135}";
type = Stem;
},
{
horizontal = 1;
place = "{408, 135}";
type = Stem;
},
{
place = "{35, 170}";
type = Stem;
},
{
place = "{445, 169}";
type = Stem;
}
);
layerId = "A096C860-9E6F-43F5-BF5F-7670645978FC";
paths = (
{
closed = 1;
nodes = (
"199 -42 OFFCURVE",
"110 -4 OFFCURVE",
"55 32 CURVE",
"55 -108 LINE",
"129 -146 OFFCURVE",
"192 -167 OFFCURVE",
"285 -167 CURVE SMOOTH",
"476 -167 OFFCURVE",
"614 -73 OFFCURVE",
"614 119 CURVE SMOOTH",
"614 531 LINE",
"441 466 LINE",
"400 510 OFFCURVE",
"351 543 OFFCURVE",
"275 543 CURVE SMOOTH",
"144 543 OFFCURVE",
"35 447 OFFCURVE",
"35 293 CURVE SMOOTH",
"35 140 OFFCURVE",
"142 43 OFFCURVE",
"274 43 CURVE SMOOTH",
"355 43 OFFCURVE",
"405 80 OFFCURVE",
"445 128 CURVE",
"445 100 LINE SMOOTH",
"445 5 OFFCURVE",
"385 -42 OFFCURVE",
"284 -42 CURVE SMOOTH"
);
},
{
closed = 1;
nodes = (
"205 360 OFFCURVE",
"254 408 OFFCURVE",
"325 408 CURVE SMOOTH",
"394 408 OFFCURVE",
"445 360 OFFCURVE",
"445 294 CURVE SMOOTH",
"445 227 OFFCURVE",
"394 178 OFFCURVE",
"325 178 CURVE SMOOTH",
"255 178 OFFCURVE",
"205 227 OFFCURVE",
"205 292 CURVE SMOOTH"
);
}
);
width = 669;
}
);
unicode = 0067;
},
{
glyphname = h;
layers = (
{
hints = (
{
horizontal = 1;
place = "{0, 21}";
target = up;
type = BottomGhost;
},
{
horizontal = 1;
place = "{389, 154}";
type = Stem;
},
{
place = "{54, 172}";
type = Stem;
},
{
place = "{398, 172}";
type = Stem;
}
);
layerId = "A096C860-9E6F-43F5-BF5F-7670645978FC";
paths = (
{
closed = 1;
nodes = (
"311 543 OFFCURVE",
"260 503 OFFCURVE",
"225 459 CURVE",
"225 730 LINE",
"54 730 LINE",
"54 0 LINE",
"226 0 LINE",
"226 291 LINE SMOOTH",
"226 355 OFFCURVE",
"268 389 OFFCURVE",
"316 389 CURVE SMOOTH",
"364 389 OFFCURVE",
"398 356 OFFCURVE",
"398 291 CURVE SMOOTH",
"398 0 LINE",
"570 0 LINE",
"570 346 LINE SMOOTH",
"570 470 OFFCURVE",
"495 543 OFFCURVE",
"388 543 CURVE SMOOTH"
);
}
);
width = 620;
}
);
unicode = 0068;
},
{
glyphname = i;
layers = (
{
hints = (
{
place = "{40, 200}";
type = Stem;
},
{
place = "{55, 172}";
type = Stem;
},
{
horizontal = 1;
place = "{0, 21}";
target = up;
type = BottomGhost;
},
{
horizontal = 1;
place = "{586, 180}";
type = Stem;
}
);
layerId = "A096C860-9E6F-43F5-BF5F-7670645978FC";
paths = (
{
closed = 1;
nodes = (
"40 618 OFFCURVE",
"84 586 OFFCURVE",
"140 586 CURVE SMOOTH",
"195 586 OFFCURVE",
"240 618 OFFCURVE",
"240 676 CURVE SMOOTH",
"240 736 OFFCURVE",
"195 766 OFFCURVE",
"140 766 CURVE SMOOTH",
"84 766 OFFCURVE",
"40 736 OFFCURVE",
"40 676 CURVE SMOOTH"
);
},
{
closed = 1;
nodes = (
"227 531 LINE",
"55 531 LINE",
"55 0 LINE",
"227 0 LINE"
);
}
);
width = 281;
}
);
unicode = 0069;
},
{
glyphname = j;
layers = (
{
hints = (
{
place = "{107, 199}";
type = Stem;
},
{
place = "{122, 172}";
type = Stem;
},
{
horizontal = 1;
place = "{-168, 121}";
type = Stem;
},
{
horizontal = 1;
place = "{586, 180}";
type = Stem;
}
);
layerId = "A096C860-9E6F-43F5-BF5F-7670645978FC";
paths = (
{
closed = 1;
nodes = (
"107 618 OFFCURVE",
"151 586 OFFCURVE",
"206 586 CURVE SMOOTH",
"262 586 OFFCURVE",
"306 618 OFFCURVE",
"306 676 CURVE SMOOTH",
"306 736 OFFCURVE",
"262 766 OFFCURVE",
"206 766 CURVE SMOOTH",
"151 766 OFFCURVE",
"107 736 OFFCURVE",
"107 676 CURVE SMOOTH"
);
},
{
closed = 1;
nodes = (
"41 -161 LINE",
"62 -165 OFFCURVE",
"85 -168 OFFCURVE",
"114 -168 CURVE SMOOTH",
"233 -168 OFFCURVE",
"294 -115 OFFCURVE",
"294 14 CURVE SMOOTH",
"294 531 LINE",
"122 531 LINE",
"122 16 LINE SMOOTH",
"122 -28 OFFCURVE",
"105 -47 OFFCURVE",
"78 -47 CURVE SMOOTH",
"66 -47 OFFCURVE",
"55 -44 OFFCURVE",
"41 -39 CURVE"
);
}
);
width = 347;
}
);
unicode = 006A;
},
{
glyphname = k;
layers = (
{
hints = (
{
horizontal = 1;
place = "{0, 21}";
target = up;
type = BottomGhost;
},
{
place = "{54, 172}";
type = Stem;
}
);
layerId = "A096C860-9E6F-43F5-BF5F-7670645978FC";
paths = (
{
closed = 1;
nodes = (
"226 730 LINE",
"54 730 LINE",
"54 0 LINE",
"226 0 LINE",
"226 272 LINE",
"391 0 LINE",
"582 0 LINE",
"383 312 LINE",
"576 531 LINE",
"379 531 LINE",
"226 347 LINE"
);
}
);
width = 581;
}
);
unicode = 006B;
},
{
glyphname = l;
layers = (
{
hints = (
{
horizontal = 1;
place = "{0, 21}";
target = up;
type = BottomGhost;
},
{
place = "{54, 172}";
type = Stem;
}
);
layerId = "A096C860-9E6F-43F5-BF5F-7670645978FC";
paths = (
{
closed = 1;
nodes = (
"226 730 LINE",
"54 730 LINE",
"54 0 LINE",
"226 0 LINE"
);
}
);
width = 280;
}
);
unicode = 006C;
},
{
glyphname = m;
layers = (
{
hints = (
{
horizontal = 1;
place = "{0, 21}";
target = up;
type = BottomGhost;
},
{
horizontal = 1;
place = "{390, 153}";
type = Stem;
},
{
place = "{54, 172}";
type = Stem;
},
{
place = "{390, 172}";
type = Stem;
},
{
place = "{727, 172}";
type = Stem;
}
);
layerId = "A096C860-9E6F-43F5-BF5F-7670645978FC";
paths = (
{
closed = 1;
nodes = (
"899 0 LINE",
"899 347 LINE SMOOTH",
"899 454 OFFCURVE",
"833 543 OFFCURVE",
"718 543 CURVE SMOOTH",
"640 543 OFFCURVE",
"583 510 OFFCURVE",
"539 455 CURVE",
"510 515 OFFCURVE",
"450 543 OFFCURVE",
"386 543 CURVE SMOOTH",
"320 543 OFFCURVE",
"267 512 OFFCURVE",
"225 460 CURVE",
"54 531 LINE",
"54 0 LINE",
"226 0 LINE",
"226 292 LINE SMOOTH",
"226 353 OFFCURVE",
"261 390 OFFCURVE",
"310 390 CURVE SMOOTH",
"360 390 OFFCURVE",
"390 354 OFFCURVE",
"390 292 CURVE SMOOTH",
"390 0 LINE",
"562 0 LINE",
"562 292 LINE SMOOTH",
"562 343 OFFCURVE",
"592 390 OFFCURVE",
"648 390 CURVE SMOOTH",
"695 390 OFFCURVE",
"727 358 OFFCURVE",
"727 292 CURVE SMOOTH",
"727 0 LINE"
);
}
);
width = 949;
}
);
unicode = 006D;
},
{
glyphname = n;
layers = (
{
hints = (
{
horizontal = 1;
place = "{0, 21}";
target = up;
type = BottomGhost;
},
{
horizontal = 1;
place = "{390, 153}";
type = Stem;
},
{
place = "{53, 172}";
type = Stem;
},
{
place = "{397, 172}";
type = Stem;
}
);
layerId = "A096C860-9E6F-43F5-BF5F-7670645978FC";
paths = (
{
closed = 1;
nodes = (
"311 543 OFFCURVE",
"261 502 OFFCURVE",
"226 458 CURVE",
"53 531 LINE",
"53 0 LINE",
"225 0 LINE",
"225 291 LINE SMOOTH",
"225 358 OFFCURVE",
"269 390 OFFCURVE",
"314 390 CURVE SMOOTH",
"359 390 OFFCURVE",
"397 358 OFFCURVE",
"397 291 CURVE SMOOTH",
"397 0 LINE",
"569 0 LINE",
"569 346 LINE SMOOTH",
"569 469 OFFCURVE",
"492 543 OFFCURVE",
"387 543 CURVE SMOOTH"
);
}
);
width = 620;
}
);
unicode = 006E;
},
{
glyphname = o;
layers = (
{
hints = (
{
horizontal = 1;
place = "{-13, 146}";
type = Stem;
},
{
horizontal = 1;
place = "{398, 145}";
type = Stem;
},
{
place = "{30, 168}";
type = Stem;
},
{
place = "{447, 168}";
type = Stem;
}
);
layerId = "A096C860-9E6F-43F5-BF5F-7670645978FC";
paths = (
{
closed = 1;
nodes = (
"615 420 OFFCURVE",
"492 543 OFFCURVE",
"323 543 CURVE SMOOTH",
"154 543 OFFCURVE",
"30 418 OFFCURVE",
"30 265 CURVE SMOOTH",
"30 112 OFFCURVE",
"153 -13 OFFCURVE",
"321 -13 CURVE SMOOTH",
"491 -13 OFFCURVE",
"615 115 OFFCURVE",
"615 267 CURVE SMOOTH"
);
},
{
closed = 1;
nodes = (
"447 195 OFFCURVE",
"398 133 OFFCURVE",
"323 133 CURVE SMOOTH",
"251 133 OFFCURVE",
"198 194 OFFCURVE",
"198 267 CURVE SMOOTH",
"198 338 OFFCURVE",
"247 398 OFFCURVE",
"321 398 CURVE SMOOTH",
"395 398 OFFCURVE",
"447 337 OFFCURVE",
"447 265 CURVE SMOOTH"
);
}
);
width = 645;
}
);
unicode = 006F;
},
{
glyphname = p;
layers = (
{
hints = (
{
horizontal = 1;
place = "{-165, 21}";
target = up;
type = BottomGhost;
},
{
horizontal = 1;
place = "{-12, 144}";
type = Stem;
},
{
horizontal = 1;
place = "{399, 144}";
type = Stem;
},
{
place = "{55, 172}";
type = Stem;
},
{
place = "{464, 170}";
type = Stem;
}
);
layerId = "A096C860-9E6F-43F5-BF5F-7670645978FC";
paths = (
{
closed = 1;
nodes = (
"227 69 LINE",
"263 25 OFFCURVE",
"313 -12 OFFCURVE",
"395 -12 CURVE SMOOTH",
"523 -12 OFFCURVE",
"634 94 OFFCURVE",
"634 266 CURVE SMOOTH",
"634 437 OFFCURVE",
"522 543 OFFCURVE",
"394 543 CURVE SMOOTH",
"313 543 OFFCURVE",
"267 505 OFFCURVE",
"228 459 CURVE",
"55 531 LINE",
"55 -165 LINE",
"227 -165 LINE"
);
},
{
closed = 1;
nodes = (
"464 186 OFFCURVE",
"411 132 OFFCURVE",
"344 132 CURVE SMOOTH",
"277 132 OFFCURVE",
"224 188 OFFCURVE",
"224 265 CURVE SMOOTH",
"224 344 OFFCURVE",
"277 399 OFFCURVE",
"343 399 CURVE SMOOTH",
"411 399 OFFCURVE",
"464 344 OFFCURVE",
"464 267 CURVE SMOOTH"
);
}
);
width = 664;
}
);
unicode = 0070;
},
{
glyphname = q;
layers = (
{
hints = (
{
horizontal = 1;
place = "{-165, 21}";
target = up;
type = BottomGhost;
},
{
horizontal = 1;
place = "{-12, 144}";
type = Stem;
},
{
horizontal = 1;
place = "{399, 144}";
type = Stem;
},
{
place = "{30, 170}";
type = Stem;
},
{
place = "{437, 172}";
type = Stem;
}
);
layerId = "A096C860-9E6F-43F5-BF5F-7670645978FC";
paths = (
{
closed = 1;
nodes = (
"609 -165 LINE",
"609 531 LINE",
"435 464 LINE",
"398 507 OFFCURVE",
"350 543 OFFCURVE",
"269 543 CURVE SMOOTH",
"140 543 OFFCURVE",
"30 437 OFFCURVE",
"30 265 CURVE SMOOTH",
"30 96 OFFCURVE",
"141 -12 OFFCURVE",
"270 -12 CURVE SMOOTH",
"350 -12 OFFCURVE",
"399 27 OFFCURVE",
"437 75 CURVE",
"437 -165 LINE"
);
},
{
closed = 1;
nodes = (
"200 345 OFFCURVE",
"254 399 OFFCURVE",
"320 399 CURVE SMOOTH",
"386 399 OFFCURVE",
"440 344 OFFCURVE",
"440 267 CURVE SMOOTH",
"440 190 OFFCURVE",
"386 132 OFFCURVE",
"320 132 CURVE SMOOTH",
"254 132 OFFCURVE",
"200 190 OFFCURVE",
"200 267 CURVE SMOOTH"
);
}
);
width = 664;
}
);
unicode = 0071;
},
{
glyphname = r;
layers = (
{
hints = (
{
horizontal = 1;
place = "{0, 21}";
target = up;
type = BottomGhost;
},
{
horizontal = 1;
place = "{362, 178}";
type = Stem;
},
{
place = "{53, 172}";
type = Stem;
}
);
layerId = "A096C860-9E6F-43F5-BF5F-7670645978FC";
paths = (
{
closed = 1;
nodes = (
"400 539 LINE",
"395 540 OFFCURVE",
"390 540 OFFCURVE",
"385 540 CURVE SMOOTH",
"306 540 OFFCURVE",
"258 498 OFFCURVE",
"226 431 CURVE",
"53 531 LINE",
"53 0 LINE",
"225 0 LINE",
"225 185 LINE SMOOTH",
"225 306 OFFCURVE",
"286 362 OFFCURVE",
"379 362 CURVE SMOOTH",
"388 362 OFFCURVE",
"395 361 OFFCURVE",
"400 360 CURVE"
);
}
);
width = 405;
}
);
unicode = 0072;
},
{
glyphname = s;
layers = (
{
hints = (
{
horizontal = 1;
place = "{-12, 123}";
type = Stem;
},
{
horizontal = 1;
place = "{420, 122}";
type = Stem;
},
{
place = "{20, 157}";
type = Stem;
},
{
place = "{292, 157}";
type = Stem;
}
);
layerId = "A096C860-9E6F-43F5-BF5F-7670645978FC";
paths = (
{
closed = 1;
nodes = (
"169 111 OFFCURVE",
"89 143 OFFCURVE",
"30 183 CURVE",
"30 39 LINE",
"99 9 OFFCURVE",
"162 -12 OFFCURVE",
"237 -12 CURVE SMOOTH",
"364 -12 OFFCURVE",
"449 54 OFFCURVE",
"449 159 CURVE SMOOTH",
"449 340 OFFCURVE",
"177 315 OFFCURVE",
"177 388 CURVE SMOOTH",
"177 407 OFFCURVE",
"193 420 OFFCURVE",
"225 420 CURVE SMOOTH",
"271 420 OFFCURVE",
"352 392 OFFCURVE",
"405 361 CURVE",
"405 503 LINE",
"348 528 OFFCURVE",
"299 542 OFFCURVE",
"227 542 CURVE SMOOTH",
"107 542 OFFCURVE",
"20 480 OFFCURVE",
"20 374 CURVE SMOOTH",
"20 188 OFFCURVE",
"292 219 OFFCURVE",
"292 149 CURVE SMOOTH",
"292 123 OFFCURVE",
"260 111 OFFCURVE",
"227 111 CURVE SMOOTH"
);
}
);
width = 480;
}
);
unicode = 0073;
},
{
glyphname = t;
layers = (
{
hints = (
{
place = "{113, 172}";
type = Stem;
},
{
horizontal = 1;
place = "{-11, 147}";
type = Stem;
},
{
horizontal = 1;
place = "{-11, 21}";
target = up;
type = BottomGhost;
},
{
horizontal = 1;
place = "{392, 139}";
type = Stem;
}
);
layerId = "A096C860-9E6F-43F5-BF5F-7670645978FC";
paths = (
{
closed = 1;
nodes = (
"113 160 LINE SMOOTH",
"113 49 OFFCURVE",
"173 -11 OFFCURVE",
"284 -11 CURVE SMOOTH",
"331 -11 OFFCURVE",
"371 -1 OFFCURVE",
"402 17 CURVE",
"402 152 LINE",
"379 142 OFFCURVE",
"358 136 OFFCURVE",
"336 136 CURVE SMOOTH",
"301 136 OFFCURVE",
"285 153 OFFCURVE",
"285 190 CURVE SMOOTH",
"285 392 LINE",
"411 392 LINE",
"411 531 LINE",
"285 531 LINE",
"285 698 LINE",
"10 392 LINE",
"113 392 LINE"
);
}
);
width = 423;
}
);
unicode = 0074;
},
{
glyphname = u;
layers = (
{
hints = (
{
horizontal = 1;
place = "{-12, 153}";
type = Stem;
},
{
place = "{50, 172}";
type = Stem;
},
{
place = "{393, 172}";
type = Stem;
}
);
layerId = "A096C860-9E6F-43F5-BF5F-7670645978FC";
paths = (
{
closed = 1;
nodes = (
"308 -12 OFFCURVE",
"361 21 OFFCURVE",
"393 62 CURVE",
"565 -10 LINE",
"565 531 LINE",
"393 531 LINE",
"393 241 LINE SMOOTH",
"393 173 OFFCURVE",
"353 141 OFFCURVE",
"306 141 CURVE SMOOTH",
"258 141 OFFCURVE",
"222 173 OFFCURVE",
"222 241 CURVE SMOOTH",
"222 531 LINE",
"50 531 LINE",
"50 186 LINE SMOOTH",
"50 61 OFFCURVE",
"118 -12 OFFCURVE",
"232 -12 CURVE SMOOTH"
);
}
);
width = 615;
}
);
unicode = 0075;
},
{
glyphname = v;
layers = (
{
hints = (
{
horizontal = 1;
place = "{-3, 21}";
target = up;
type = BottomGhost;
},
{
place = "{-6, 585}";
type = Stem;
}
);
layerId = "A096C860-9E6F-43F5-BF5F-7670645978FC";
paths = (
{
closed = 1;
nodes = (
"579 531 LINE",
"401 531 LINE",
"288 203 LINE",
"176 531 LINE",
"-6 531 LINE",
"208 -3 LINE",
"366 -3 LINE"
);
}
);
width = 575;
}
);
unicode = 0076;
},
{
glyphname = w;
layers = (
{
hints = (
{
horizontal = 1;
place = "{-3, 21}";
target = up;
type = BottomGhost;
},
{
horizontal = 1;
place = "{533, -20}";
target = down;
type = TopGhost;
},
{
place = "{-9, 819}";
type = Stem;
}
);
layerId = "A096C860-9E6F-43F5-BF5F-7670645978FC";
paths = (
{
closed = 1;
nodes = (
"-9 531 LINE",
"156 -3 LINE",
"305 -3 LINE",
"400 297 LINE",
"494 -3 LINE",
"644 -3 LINE",
"810 531 LINE",
"644 531 LINE",
"563 239 LINE",
"473 533 LINE",
"329 533 LINE",
"240 241 LINE",
"160 531 LINE"
);
}
);
width = 802;
}
);
unicode = 0077;
},
{
glyphname = x;
layers = (
{
hints = (
{
horizontal = 1;
place = "{0, 21}";
target = up;
type = BottomGhost;
},
{
place = "{2, 557}";
type = Stem;
}
);
layerId = "A096C860-9E6F-43F5-BF5F-7670645978FC";
paths = (
{
closed = 1;
nodes = (
"2 0 LINE",
"184 0 LINE",
"279 148 LINE",
"374 0 LINE",
"559 0 LINE",
"376 270 LINE",
"554 531 LINE",
"371 531 LINE",
"282 391 LINE",
"193 531 LINE",
"7 531 LINE",
"186 269 LINE"
);
}
);
width = 562;
}
);
unicode = 0078;
},
{
glyphname = y;
layers = (
{
hints = (
{
horizontal = 1;
place = "{-165, 21}";
target = up;
type = BottomGhost;
},
{
place = "{-6, 585}";
type = Stem;
}
);
layerId = "A096C860-9E6F-43F5-BF5F-7670645978FC";
paths = (
{
closed = 1;
nodes = (
"221 -5 LINE",
"168 -165 LINE",
"315 -165 LINE",
"579 531 LINE",
"403 531 LINE",
"293 179 LINE",
"175 531 LINE",
"-6 531 LINE"
);
}
);
width = 574;
}
);
unicode = 0079;
},
{
glyphname = z;
layers = (
{
hints = (
{
horizontal = 1;
place = "{0, 138}";
type = Stem;
},
{
horizontal = 1;
place = "{394, 137}";
type = Stem;
},
{
place = "{14, 496}";
type = Stem;
}
);
layerId = "A096C860-9E6F-43F5-BF5F-7670645978FC";
paths = (
{
closed = 1;
nodes = (
"510 416 LINE",
"510 531 LINE",
"25 531 LINE",
"25 394 LINE",
"284 394 LINE",
"14 116 LINE",
"14 0 LINE",
"509 0 LINE",
"509 138 LINE",
"240 138 LINE"
);
}
);
width = 531;
}
);
unicode = 007A;
},
{
glyphname = braceleft;
layers = (
{
hints = (
{
horizontal = 1;
place = "{229, 117}";
type = Stem;
},
{
place = "{164, 154}";
type = Stem;
}
);
layerId = "A096C860-9E6F-43F5-BF5F-7670645978FC";
paths = (
{
closed = 1;
nodes = (
"36 229 LINE",
"119 229 OFFCURVE",
"170 205 OFFCURVE",
"166 114 CURVE",
"159 -85 OFFCURVE",
"219 -120 OFFCURVE",
"417 -143 CURVE",
"419 -36 LINE",
"310 -18 OFFCURVE",
"318 44 OFFCURVE",
"321 131 CURVE SMOOTH",
"323 214 OFFCURVE",
"287 262 OFFCURVE",
"212 287 CURVE",
"341 328 OFFCURVE",
"318 404 OFFCURVE",
"318 509 CURVE SMOOTH",
"318 580 OFFCURVE",
"356 599 OFFCURVE",
"419 611 CURVE",
"417 718 LINE",
"285 703 OFFCURVE",
"164 667 OFFCURVE",
"164 516 CURVE SMOOTH",
"164 406 OFFCURVE",
"185 346 OFFCURVE",
"36 346 CURVE"
);
}
);
width = 454;
}
);
unicode = 007B;
},
{
glyphname = bar;
layers = (
{
hints = (
{
horizontal = 1;
place = "{-135, 928}";
type = Stem;
},
{
place = "{267, 133}";
type = Stem;
}
);
layerId = "A096C860-9E6F-43F5-BF5F-7670645978FC";
paths = (
{
closed = 1;
nodes = (
"267 793 LINE",
"267 -135 LINE",
"400 -135 LINE",
"400 793 LINE"
);
}
);
width = 666;
}
);
unicode = 007C;
},
{
glyphname = braceright;
layers = (
{
hints = (
{
horizontal = 1;
place = "{-143, 861}";
type = Stem;
},
{
place = "{37, 255}";
type = Stem;
}
);
layerId = "A096C860-9E6F-43F5-BF5F-7670645978FC";
paths = (
{
closed = 1;
nodes = (
"419 346 LINE",
"261 345 OFFCURVE",
"292 420 OFFCURVE",
"292 532 CURVE SMOOTH",
"292 678 OFFCURVE",
"158 703 OFFCURVE",
"38 718 CURVE",
"36 611 LINE",
"146 592 OFFCURVE",
"137 532 OFFCURVE",
"135 443 CURVE",
"132 361 OFFCURVE",
"167 313 OFFCURVE",
"244 287 CURVE",
"168 262 OFFCURVE",
"132 212 OFFCURVE",
"135 131 CURVE SMOOTH",
"139 44 OFFCURVE",
"143 -19 OFFCURVE",
"36 -36 CURVE",
"38 -143 LINE",
"179 -128 OFFCURVE",
"292 -91 OFFCURVE",
"292 68 CURVE SMOOTH",
"292 175 OFFCURVE",
"276 229 OFFCURVE",
"419 229 CURVE"
);
}
);
width = 454;
}
);
unicode = 007D;
},
{
glyphname = asciitilde;
layers = (
{
hints = (
{
place = "{43, 414}";
type = Stem;
},
{
horizontal = 1;
place = "{228, 119}";
type = Stem;
},
{
horizontal = 1;
place = "{270, 119}";
type = Stem;
}
);
layerId = "A096C860-9E6F-43F5-BF5F-7670645978FC";
paths = (
{
closed = 1;
nodes = (
"377 396 LINE",
"363 364 OFFCURVE",
"349 347 OFFCURVE",
"321 347 CURVE SMOOTH",
"278 347 OFFCURVE",
"229 389 OFFCURVE",
"164 389 CURVE SMOOTH",
"103 389 OFFCURVE",
"67 354 OFFCURVE",
"43 259 CURVE",
"125 222 LINE",
"139 254 OFFCURVE",
"151 270 OFFCURVE",
"179 270 CURVE SMOOTH",
"223 270 OFFCURVE",
"279 228 OFFCURVE",
"339 228 CURVE SMOOTH",
"392 228 OFFCURVE",
"435 262 OFFCURVE",
"457 355 CURVE"
);
}
);
width = 501;
}
);
unicode = 007E;
},
{
glyphname = exclamdown;
layers = (
{
hints = (
{
place = "{67, 199}";
type = Stem;
},
{
place = "{68, 195}";
type = Stem;
},
{
horizontal = 1;
place = "{354, 180}";
type = Stem;
}
);
layerId = "A096C860-9E6F-43F5-BF5F-7670645978FC";
paths = (
{
closed = 1;
nodes = (
"266 503 OFFCURVE",
"222 534 OFFCURVE",
"167 534 CURVE SMOOTH",
"111 534 OFFCURVE",
"67 503 OFFCURVE",
"67 444 CURVE SMOOTH",
"67 385 OFFCURVE",
"111 354 OFFCURVE",
"167 354 CURVE SMOOTH",
"222 354 OFFCURVE",
"266 385 OFFCURVE",
"266 444 CURVE SMOOTH"
);
},
{
closed = 1;
nodes = (
"264 -179 LINE",
"263 -87 LINE",
"212 298 LINE",
"120 298 LINE",
"69 -87 LINE",
"68 -179 LINE"
);
}
);
width = 333;
}
);
unicode = 00A1;
},
{
glyphname = cent;
layers = (
{
hints = (
{
place = "{33, 151}";
type = Stem;
},
{
place = "{382, 79}";
type = Stem;
},
{
horizontal = 1;
place = "{1, 21}";
target = up;
type = BottomGhost;
},
{
horizontal = 1;
place = "{83, 133}";
type = Stem;
},
{
horizontal = 1;
place = "{619, 87}";
type = Stem;
},
{
horizontal = 1;
place = "{706, -20}";
target = down;
type = TopGhost;
}
);
layerId = "A096C860-9E6F-43F5-BF5F-7670645978FC";
paths = (
{
closed = 1;
nodes = (
"461 597 LINE",
"445 608 OFFCURVE",
"429 615 OFFCURVE",
"413 619 CURVE",
"426 706 LINE",
"320 706 LINE",
"309 634 LINE",
"146 633 OFFCURVE",
"33 512 OFFCURVE",
"33 358 CURVE SMOOTH",
"33 237 OFFCURVE",
"108 134 OFFCURVE",
"219 99 CURVE",
"203 1 LINE",
"309 1 LINE",
"323 83 LINE",
"378 85 OFFCURVE",
"425 98 OFFCURVE",
"464 124 CURVE",
"464 276 LINE",
"434 243 OFFCURVE",
"389 216 OFFCURVE",
"335 216 CURVE",
"382 497 LINE",
"409 492 OFFCURVE",
"438 474 OFFCURVE",
"461 446 CURVE"
);
},
{
closed = 1;
nodes = (
"248 232 LINE",
"207 257 OFFCURVE",
"184 300 OFFCURVE",
"184 358 CURVE SMOOTH",
"184 437 OFFCURVE",
"226 492 OFFCURVE",
"292 501 CURVE"
);
}
);
width = 498;
}
);
unicode = 00A2;
},
{
glyphname = sterling;
layers = (
{
hints = (
{
horizontal = 1;
place = "{0, 140}";
type = Stem;
},
{
horizontal = 1;
place = "{270, 125}";
type = Stem;
},
{
horizontal = 1;
place = "{556, 157}";
type = Stem;
},
{
place = "{99, 176}";
type = Stem;
}
);
layerId = "A096C860-9E6F-43F5-BF5F-7670645978FC";
paths = (
{
closed = 1;
nodes = (
"496 395 LINE",
"275 395 LINE",
"275 454 LINE SMOOTH",
"275 516 OFFCURVE",
"306 556 OFFCURVE",
"364 556 CURVE SMOOTH",
"403 556 OFFCURVE",
"432 540 OFFCURVE",
"464 506 CURVE",
"581 613 LINE",
"530 672 OFFCURVE",
"459 713 OFFCURVE",
"354 713 CURVE SMOOTH",
"192 713 OFFCURVE",
"99 611 OFFCURVE",
"99 454 CURVE SMOOTH",
"99 395 LINE",
"26 395 LINE",
"26 270 LINE",
"99 270 LINE",
"99 0 LINE",
"574 0 LINE",
"574 140 LINE",
"275 140 LINE",
"275 270 LINE",
"496 270 LINE"
);
}
);
width = 589;
}
);
unicode = 00A3;
},
{
glyphname = currency;
layers = (
{
hints = (
{
horizontal = 1;
place = "{70, 108}";
type = Stem;
},
{
horizontal = 1;
place = "{480, 108}";
type = Stem;
},
{
place = "{97, 118}";
type = Stem;
},
{
place = "{503, 118}";
type = Stem;
}
);
layerId = "A096C860-9E6F-43F5-BF5F-7670645978FC";
paths = (
{
closed = 1;
nodes = (
"593 637 LINE",
"502 547 LINE",
"461 573 OFFCURVE",
"413 588 OFFCURVE",
"359 588 CURVE SMOOTH",
"303 588 OFFCURVE",
"259 574 OFFCURVE",
"214 546 CURVE",
"120 637 LINE",
"47 562 LINE",
"139 471 LINE",
"109 427 OFFCURVE",
"97 379 OFFCURVE",
"97 329 CURVE SMOOTH",
"97 275 OFFCURVE",
"112 226 OFFCURVE",
"141 186 CURVE",
"47 91 LINE",
"120 17 LINE",
"217 111 LINE",
"262 83 OFFCURVE",
"307 70 OFFCURVE",
"359 70 CURVE SMOOTH",
"411 70 OFFCURVE",
"458 85 OFFCURVE",
"500 110 CURVE",
"594 17 LINE",
"669 91 LINE",
"577 183 LINE",
"606 226 OFFCURVE",
"621 273 OFFCURVE",
"621 329 CURVE SMOOTH",
"621 385 OFFCURVE",
"606 428 OFFCURVE",
"578 472 CURVE",
"669 562 LINE"
);
},
{
closed = 1;
nodes = (
"445 480 OFFCURVE",
"503 413 OFFCURVE",
"503 329 CURVE SMOOTH",
"503 246 OFFCURVE",
"445 178 OFFCURVE",
"359 178 CURVE SMOOTH",
"272 178 OFFCURVE",
"215 246 OFFCURVE",
"215 329 CURVE SMOOTH",
"215 412 OFFCURVE",
"272 480 OFFCURVE",
"359 480 CURVE SMOOTH"
);
}
);
width = 715;
}
);
unicode = 00A4;
},
{
glyphname = yen;
layers = (
{
hints = (
{
place = "{248, 174}";
type = Stem;
},
{
horizontal = 1;
place = "{0, 213}";
type = Stem;
},
{
horizontal = 1;
place = "{102, 111}";
type = Stem;
},
{
horizontal = 1;
place = "{270, 111}";
type = Stem;
},
{
horizontal = 1;
place = "{701, -20}";
target = down;
type = TopGhost;
}
);
layerId = "A096C860-9E6F-43F5-BF5F-7670645978FC";
paths = (
{
closed = 1;
nodes = (
"64 213 LINE",
"64 102 LINE",
"248 102 LINE",
"248 0 LINE",
"422 0 LINE",
"422 102 LINE",
"606 102 LINE",
"606 213 LINE",
"422 213 LINE",
"432 270 LINE",
"606 270 LINE",
"606 381 LINE",
"466 381 LINE",
"676 701 LINE",
"480 701 LINE",
"337 454 LINE",
"194 701 LINE",
"-6 701 LINE",
"203 381 LINE",
"64 381 LINE",
"64 270 LINE",
"239 270 LINE",
"249 213 LINE"
);
}
);
width = 671;
}
);
unicode = 00A5;
},
{
glyphname = brokenbar;
layers = (
{
hints = (
{
place = "{267, 151}";
type = Stem;
},
{
horizontal = 1;
place = "{-173, 346}";
type = Stem;
},
{
horizontal = 1;
place = "{-173, 842}";
type = Stem;
},
{
horizontal = 1;
place = "{322, 347}";
type = Stem;
}
);
layerId = "A096C860-9E6F-43F5-BF5F-7670645978FC";
paths = (
{
closed = 1;
nodes = (
"267 669 LINE",
"267 322 LINE",
"418 322 LINE",
"418 669 LINE"
);
},
{
closed = 1;
nodes = (
"267 173 LINE",
"267 -173 LINE",
"418 -173 LINE",
"418 173 LINE"
);
}
);
width = 685;
}
);
unicode = 00A6;
},
{
glyphname = section;
layers = (
{
hints = (
{
place = "{23, 134}";
type = Stem;
},
{
place = "{68, 158}";
type = Stem;
},
{
place = "{350, 158}";
type = Stem;
},
{
place = "{418, 135}";
type = Stem;
},
{
horizontal = 1;
place = "{-25, 119}";
type = Stem;
},
{
horizontal = 1;
place = "{596, 119}";
type = Stem;
}
);
layerId = "A096C860-9E6F-43F5-BF5F-7670645978FC";
paths = (
{
closed = 1;
nodes = (
"451 679 LINE",
"405 702 OFFCURVE",
"352 715 OFFCURVE",
"291 715 CURVE SMOOTH",
"145 715 OFFCURVE",
"68 645 OFFCURVE",
"68 557 CURVE SMOOTH",
"68 514 OFFCURVE",
"88 477 OFFCURVE",
"120 453 CURVE",
"61 434 OFFCURVE",
"23 395 OFFCURVE",
"23 343 CURVE SMOOTH",
"23 263 OFFCURVE",
"117 218 OFFCURVE",
"244 191 CURVE",
"317 173 OFFCURVE",
"350 155 OFFCURVE",
"350 132 CURVE SMOOTH",
"350 107 OFFCURVE",
"331 94 OFFCURVE",
"288 94 CURVE SMOOTH",
"233 94 OFFCURVE",
"174 117 OFFCURVE",
"124 155 CURVE",
"124 11 LINE",
"168 -11 OFFCURVE",
"224 -25 OFFCURVE",
"285 -25 CURVE SMOOTH",
"431 -25 OFFCURVE",
"508 46 OFFCURVE",
"508 135 CURVE SMOOTH",
"508 176 OFFCURVE",
"489 212 OFFCURVE",
"457 237 CURVE",
"514 257 OFFCURVE",
"553 293 OFFCURVE",
"553 347 CURVE SMOOTH",
"553 431 OFFCURVE",
"461 467 OFFCURVE",
"332 500 CURVE SMOOTH",
"253 520 OFFCURVE",
"226 538 OFFCURVE",
"226 559 CURVE SMOOTH",
"226 583 OFFCURVE",
"247 596 OFFCURVE",
"288 596 CURVE SMOOTH",
"345 596 OFFCURVE",
"400 573 OFFCURVE",
"451 536 CURVE"
);
},
{
closed = 1;
nodes = (
"418 301 OFFCURVE",
"395 284 OFFCURVE",
"359 284 CURVE",
"297 287 OFFCURVE",
"157 314 OFFCURVE",
"157 367 CURVE SMOOTH",
"157 392 OFFCURVE",
"181 405 OFFCURVE",
"216 407 CURVE",
"269 405 OFFCURVE",
"418 371 OFFCURVE",
"418 325 CURVE SMOOTH"
);
}
);
width = 588;
}
);
unicode = 00A7;
},
{
glyphname = dieresis;
layers = (
{
hints = (
{
horizontal = 1;
place = "{629, 162}";
type = Stem;
},
{
place = "{2, 167}";
type = Stem;
},
{
place = "{222, 166}";
type = Stem;
}
);
layerId = "A096C860-9E6F-43F5-BF5F-7670645978FC";
paths = (
{
closed = 1;
nodes = (
"2 658 OFFCURVE",
"39 629 OFFCURVE",
"85 629 CURVE SMOOTH",
"131 629 OFFCURVE",
"169 658 OFFCURVE",
"169 710 CURVE SMOOTH",
"169 762 OFFCURVE",
"131 791 OFFCURVE",
"85 791 CURVE SMOOTH",
"39 791 OFFCURVE",
"2 762 OFFCURVE",
"2 710 CURVE SMOOTH"
);
},
{
closed = 1;
nodes = (
"222 658 OFFCURVE",
"259 629 OFFCURVE",
"305 629 CURVE SMOOTH",
"352 629 OFFCURVE",
"388 658 OFFCURVE",
"388 710 CURVE SMOOTH",
"388 762 OFFCURVE",
"352 791 OFFCURVE",
"305 791 CURVE SMOOTH",
"259 791 OFFCURVE",
"222 762 OFFCURVE",
"222 710 CURVE SMOOTH"
);
}
);
width = 390;
}
);
unicode = 00A8;
},
{
glyphname = copyright;
layers = (
{
hints = (
{
place = "{25, 46}";
type = Stem;
},
{
place = "{193, 123}";
type = Stem;
},
{
place = "{713, 46}";
type = Stem;
},
{
horizontal = 1;
place = "{-18, 45}";
type = Stem;
},
{
horizontal = 1;
place = "{151, 107}";
type = Stem;
},
{
horizontal = 1;
place = "{455, 106}";
type = Stem;
},
{
horizontal = 1;
place = "{537, -20}";
target = down;
type = TopGhost;
},
{
horizontal = 1;
place = "{676, 45}";
type = Stem;
}
);
layerId = "A096C860-9E6F-43F5-BF5F-7670645978FC";
paths = (
{
closed = 1;
nodes = (
"597 -18 OFFCURVE",
"759 153 OFFCURVE",
"759 354 CURVE SMOOTH",
"759 554 OFFCURVE",
"598 721 OFFCURVE",
"393 721 CURVE SMOOTH",
"187 721 OFFCURVE",
"25 552 OFFCURVE",
"25 353 CURVE SMOOTH",
"25 151 OFFCURVE",
"186 -18 OFFCURVE",
"391 -18 CURVE SMOOTH"
);
},
{
closed = 1;
nodes = (
"210 27 OFFCURVE",
"71 174 OFFCURVE",
"71 353 CURVE SMOOTH",
"71 529 OFFCURVE",
"211 676 OFFCURVE",
"393 676 CURVE SMOOTH",
"575 676 OFFCURVE",
"713 531 OFFCURVE",
"713 354 CURVE SMOOTH",
"713 175 OFFCURVE",
"574 27 OFFCURVE",
"391 27 CURVE SMOOTH"
);
},
{
closed = 1;
nodes = (
"507 296 LINE",
"482 273 OFFCURVE",
"450 258 OFFCURVE",
"412 258 CURVE SMOOTH",
"359 258 OFFCURVE",
"316 301 OFFCURVE",
"316 357 CURVE SMOOTH",
"316 412 OFFCURVE",
"358 455 OFFCURVE",
"414 455 CURVE SMOOTH",
"451 455 OFFCURVE",
"482 437 OFFCURVE",
"505 416 CURVE",
"505 537 LINE",
"480 551 OFFCURVE",
"446 561 OFFCURVE",
"409 561 CURVE SMOOTH",
"286 561 OFFCURVE",
"193 468 OFFCURVE",
"193 357 CURVE SMOOTH",
"193 245 OFFCURVE",
"287 151 OFFCURVE",
"403 151 CURVE SMOOTH",
"447 151 OFFCURVE",
"481 165 OFFCURVE",
"507 179 CURVE"
);
}
);
width = 783;
}
);
unicode = 00A9;
},
{
glyphname = ordfeminine;
layers = (
{
hints = (
{
horizontal = 1;
place = "{289, 72}";
type = Stem;
},
{
horizontal = 1;
place = "{421, 56}";
type = Stem;
},
{
horizontal = 1;
place = "{553, 48}";
type = Stem;
},
{
horizontal = 1;
place = "{647, 74}";
type = Stem;
},
{
place = "{26, 92}";
type = Stem;
},
{
place = "{215, 95}";
type = Stem;
}
);
layerId = "A096C860-9E6F-43F5-BF5F-7670645978FC";
paths = (
{
closed = 1;
nodes = (
"166 415 OFFCURVE",
"195 431 OFFCURVE",
"215 455 CURVE",
"215 421 LINE",
"310 421 LINE",
"310 592 LINE SMOOTH",
"310 678 OFFCURVE",
"266 721 OFFCURVE",
"168 721 CURVE SMOOTH",
"122 721 OFFCURVE",
"85 713 OFFCURVE",
"51 698 CURVE",
"71 629 LINE",
"97 640 OFFCURVE",
"125 647 OFFCURVE",
"153 647 CURVE SMOOTH",
"195 647 OFFCURVE",
"216 628 OFFCURVE",
"216 594 CURVE SMOOTH",
"216 590 LINE",
"197 597 OFFCURVE",
"172 601 OFFCURVE",
"144 601 CURVE SMOOTH",
"72 601 OFFCURVE",
"26 571 OFFCURVE",
"26 508 CURVE SMOOTH",
"26 448 OFFCURVE",
"71 415 OFFCURVE",
"127 415 CURVE SMOOTH"
);
},
{
closed = 1;
nodes = (
"136 477 OFFCURVE",
"118 491 OFFCURVE",
"118 514 CURVE SMOOTH",
"118 537 OFFCURVE",
"138 553 OFFCURVE",
"170 553 CURVE SMOOTH",
"189 553 OFFCURVE",
"204 549 OFFCURVE",
"217 544 CURVE",
"217 530 LINE SMOOTH",
"217 497 OFFCURVE",
"188 477 OFFCURVE",
"159 477 CURVE SMOOTH"
);
},
{
closed = 1;
nodes = (
"23 289 LINE",
"315 289 LINE",
"315 361 LINE",
"23 361 LINE"
);
}
);
width = 348;
}
);
unicode = 00AA;
},
{
glyphname = guillemotleft;
layers = (
{
hints = (
{
horizontal = 1;
place = "{38, 456}";
type = Stem;
},
{
place = "{35, 563}";
type = Stem;
}
);
layerId = "A096C860-9E6F-43F5-BF5F-7670645978FC";
paths = (
{
closed = 1;
nodes = (
"204 266 LINE",
"334 439 LINE",
"205 494 LINE",
"35 265 LINE",
"204 38 LINE",
"334 94 LINE"
);
},
{
closed = 1;
nodes = (
"468 266 LINE",
"598 439 LINE",
"469 494 LINE",
"299 265 LINE",
"468 38 LINE",
"598 94 LINE"
);
}
);
width = 637;
}
);
unicode = 00AB;
},
{
glyphname = logicalnot;
layers = (
{
hints = (
{
horizontal = 1;
place = "{288, 127}";
type = Stem;
},
{
place = "{464, 134}";
type = Stem;
}
);
layerId = "A096C860-9E6F-43F5-BF5F-7670645978FC";
paths = (
{
closed = 1;
nodes = (
"598 415 LINE",
"73 415 LINE",
"73 288 LINE",
"464 288 LINE",
"464 126 LINE",
"598 126 LINE"
);
}
);
width = 670;
}
);
unicode = 00AC;
},
{
glyphname = uni00AD;
layers = (
{
hints = (
{
horizontal = 1;
place = "{197, 152}";
type = Stem;
},
{
place = "{24, 318}";
type = Stem;
}
);
layerId = "A096C860-9E6F-43F5-BF5F-7670645978FC";
paths = (
{
closed = 1;
nodes = (
"342 349 LINE",
"24 349 LINE",
"24 197 LINE",
"342 197 LINE"
);
}
);
width = 365;
}
);
unicode = 00AD;
},
{
glyphname = registered;
layers = (
{
hints = (
{
horizontal = 1;
place = "{-8, 44}";
type = Stem;
},
{
horizontal = 1;
place = "{296, 80}";
type = Stem;
},
{
horizontal = 1;
place = "{473, 87}";
type = Stem;
},
{
horizontal = 1;
place = "{674, 44}";
type = Stem;
},
{
place = "{19, 46}";
type = Stem;
},
{
place = "{227, 101}";
type = Stem;
},
{
place = "{457, 100}";
type = Stem;
},
{
place = "{697, 46}";
type = Stem;
}
);
layerId = "A096C860-9E6F-43F5-BF5F-7670645978FC";
paths = (
{
closed = 1;
nodes = (
"19 157 OFFCURVE",
"178 -8 OFFCURVE",
"381 -8 CURVE SMOOTH",
"583 -8 OFFCURVE",
"743 159 OFFCURVE",
"743 355 CURVE SMOOTH",
"743 554 OFFCURVE",
"584 718 OFFCURVE",
"383 718 CURVE SMOOTH",
"179 718 OFFCURVE",
"19 553 OFFCURVE",
"19 355 CURVE SMOOTH"
);
},
{
closed = 1;
nodes = (
"65 530 OFFCURVE",
"202 674 OFFCURVE",
"383 674 CURVE SMOOTH",
"561 674 OFFCURVE",
"697 532 OFFCURVE",
"697 357 CURVE SMOOTH",
"697 181 OFFCURVE",
"560 36 OFFCURVE",
"381 36 CURVE SMOOTH",
"202 36 OFFCURVE",
"65 179 OFFCURVE",
"65 354 CURVE SMOOTH"
);
},
{
closed = 1;
nodes = (
"227 168 LINE",
"328 168 LINE",
"328 296 LINE",
"370 296 LINE",
"458 168 LINE",
"575 168 LINE",
"473 311 LINE",
"522 331 OFFCURVE",
"557 372 OFFCURVE",
"557 430 CURVE SMOOTH",
"557 506 OFFCURVE",
"502 560 OFFCURVE",
"400 560 CURVE SMOOTH",
"227 560 LINE"
);
},
{
closed = 1;
nodes = (
"328 376 LINE",
"328 473 LINE",
"395 473 LINE SMOOTH",
"434 473 OFFCURVE",
"457 452 OFFCURVE",
"457 425 CURVE SMOOTH",
"457 396 OFFCURVE",
"433 376 OFFCURVE",
"396 376 CURVE SMOOTH"
);
}
);
width = 762;
}
);
unicode = 00AE;
},
{
glyphname = degree;
layers = (
{
hints = (
{
horizontal = 1;
place = "{399, 86}";
type = Stem;
},
{
horizontal = 1;
place = "{658, 86}";
type = Stem;
},
{
place = "{32, 91}";
type = Stem;
},
{
place = "{294, 91}";
type = Stem;
}
);
layerId = "A096C860-9E6F-43F5-BF5F-7670645978FC";
paths = (
{
closed = 1;
nodes = (
"385 667 OFFCURVE",
"302 744 OFFCURVE",
"208 744 CURVE SMOOTH",
"115 744 OFFCURVE",
"32 666 OFFCURVE",
"32 572 CURVE SMOOTH",
"32 478 OFFCURVE",
"113 399 OFFCURVE",
"208 399 CURVE SMOOTH",
"304 399 OFFCURVE",
"385 478 OFFCURVE",
"385 572 CURVE SMOOTH"
);
},
{
closed = 1;
nodes = (
"294 524 OFFCURVE",
"257 485 OFFCURVE",
"208 485 CURVE SMOOTH",
"160 485 OFFCURVE",
"123 524 OFFCURVE",
"123 572 CURVE SMOOTH",
"123 620 OFFCURVE",
"161 658 OFFCURVE",
"208 658 CURVE SMOOTH",
"256 658 OFFCURVE",
"294 620 OFFCURVE",
"294 572 CURVE SMOOTH"
);
}
);
width = 416;
}
);
unicode = 00B0;
},
{
glyphname = plusminus;
layers = (
{
hints = (
{
horizontal = 1;
place = "{6, 119}";
type = Stem;
},
{
horizontal = 1;
place = "{326, 119}";
type = Stem;
},
{
place = "{254, 123}";
type = Stem;
}
);
layerId = "A096C860-9E6F-43F5-BF5F-7670645978FC";
paths = (
{
closed = 1;
nodes = (
"75 326 LINE",
"254 326 LINE",
"254 174 LINE",
"377 174 LINE",
"377 326 LINE",
"553 326 LINE",
"553 445 LINE",
"377 445 LINE",
"377 592 LINE",
"254 592 LINE",
"254 445 LINE",
"75 445 LINE"
);
},
{
closed = 1;
nodes = (
"75 6 LINE",
"553 6 LINE",
"553 125 LINE",
"75 125 LINE"
);
}
);
width = 629;
}
);
unicode = 00B1;
},
{
glyphname = twosuperior;
layers = (
{
hints = (
{
horizontal = 1;
place = "{285, 90}";
type = Stem;
},
{
horizontal = 1;
place = "{626, 92}";
type = Stem;
},
{
place = "{262, 118}";
type = Stem;
}
);
layerId = "A096C860-9E6F-43F5-BF5F-7670645978FC";
paths = (
{
closed = 1;
nodes = (
"17 285 LINE",
"379 285 LINE",
"384 379 LINE",
"225 372 LINE",
"267 405 LINE SMOOTH",
"334 457 OFFCURVE",
"380 506 OFFCURVE",
"380 578 CURVE SMOOTH",
"380 663 OFFCURVE",
"302 718 OFFCURVE",
"214 718 CURVE SMOOTH",
"110 718 OFFCURVE",
"60 667 OFFCURVE",
"45 574 CURVE",
"159 566 LINE",
"163 596 OFFCURVE",
"175 626 OFFCURVE",
"211 626 CURVE SMOOTH",
"242 626 OFFCURVE",
"262 604 OFFCURVE",
"262 574 CURVE SMOOTH",
"262 524 OFFCURVE",
"201 469 OFFCURVE",
"162 428 CURVE"
);
}
);
width = 414;
}
);
unicode = 00B2;
},
{
glyphname = threesuperior;
layers = (
{
hints = (
{
place = "{225, 114}";
type = Stem;
},
{
place = "{242, 115}";
type = Stem;
},
{
horizontal = 1;
place = "{279, 84}";
type = Stem;
},
{
horizontal = 1;
place = "{479, 69}";
type = Stem;
},
{
horizontal = 1;
place = "{638, 83}";
type = Stem;
}
);
layerId = "A096C860-9E6F-43F5-BF5F-7670645978FC";
paths = (
{
closed = 1;
nodes = (
"10 403 LINE",
"21 320 OFFCURVE",
"93 279 OFFCURVE",
"181 279 CURVE SMOOTH",
"272 279 OFFCURVE",
"357 323 OFFCURVE",
"357 415 CURVE SMOOTH",
"357 459 OFFCURVE",
"333 498 OFFCURVE",
"287 517 CURVE",
"320 535 OFFCURVE",
"339 568 OFFCURVE",
"339 604 CURVE SMOOTH",
"339 682 OFFCURVE",
"262 721 OFFCURVE",
"184 721 CURVE SMOOTH",
"109 721 OFFCURVE",
"39 685 OFFCURVE",
"29 609 CURVE",
"132 598 LINE",
"138 618 OFFCURVE",
"152 638 OFFCURVE",
"182 638 CURVE SMOOTH",
"208 638 OFFCURVE",
"225 620 OFFCURVE",
"225 596 CURVE SMOOTH",
"225 567 OFFCURVE",
"201 548 OFFCURVE",
"172 548 CURVE SMOOTH",
"159 548 LINE",
"159 478 LINE",
"166 478 OFFCURVE",
"174 479 OFFCURVE",
"182 479 CURVE SMOOTH",
"220 479 OFFCURVE",
"242 457 OFFCURVE",
"242 425 CURVE SMOOTH",
"242 389 OFFCURVE",
"216 363 OFFCURVE",
"181 363 CURVE SMOOTH",
"147 363 OFFCURVE",
"124 385 OFFCURVE",
"117 413 CURVE"
);
}
);
width = 381;
}
);
unicode = 00B3;
},
{
glyphname = acute;
layers = (
{
hints = (
{
horizontal = 1;
place = "{616, 179}";
type = Stem;
},
{
place = "{8, 265}";
type = Stem;
}
);
layerId = "A096C860-9E6F-43F5-BF5F-7670645978FC";
paths = (
{
closed = 1;
nodes = (
"8 616 LINE",
"129 616 LINE",
"273 744 LINE",
"110 795 LINE"
);
}
);
width = 263;
}
);
unicode = 00B4;
},
{
glyphname = uni00B5;
layers = (
{
hints = (
{
place = "{51, 172}";
type = Stem;
},
{
place = "{395, 172}";
type = Stem;
},
{
horizontal = 1;
place = "{-165, 21}";
target = up;
type = BottomGhost;
},
{
horizontal = 1;
place = "{-12, 153}";
type = Stem;
},
{
horizontal = 1;
place = "{0, 21}";
target = up;
type = BottomGhost;
}
);
layerId = "A096C860-9E6F-43F5-BF5F-7670645978FC";
paths = (
{
closed = 1;
nodes = (
"223 41 LINE",
"237 11 OFFCURVE",
"266 -12 OFFCURVE",
"301 -12 CURVE SMOOTH",
"340 -12 OFFCURVE",
"373 15 OFFCURVE",
"395 72 CURVE",
"567 0 LINE",
"567 531 LINE",
"395 531 LINE",
"395 241 LINE SMOOTH",
"395 175 OFFCURVE",
"357 141 OFFCURVE",
"307 141 CURVE SMOOTH",
"259 141 OFFCURVE",
"223 174 OFFCURVE",
"223 241 CURVE SMOOTH",
"223 531 LINE",
"51 531 LINE",
"51 -165 LINE",
"223 -165 LINE"
);
}
);
width = 622;
}
);
unicode = 00B5;
},
{
glyphname = paragraph;
layers = (
{
hints = (
{
horizontal = 1;
place = "{608, 98}";
type = Stem;
},
{
place = "{226, 107}";
type = Stem;
},
{
place = "{400, 107}";
type = Stem;
}
);
layerId = "A096C860-9E6F-43F5-BF5F-7670645978FC";
paths = (
{
closed = 1;
nodes = (
"333 -112 LINE",
"333 608 LINE",
"400 608 LINE",
"400 -112 LINE",
"507 -112 LINE",
"507 608 LINE",
"558 608 LINE",
"565 706 LINE",
"266 706 LINE SMOOTH",
"122 706 OFFCURVE",
"41 629 OFFCURVE",
"41 507 CURVE SMOOTH",
"41 394 OFFCURVE",
"122 331 OFFCURVE",
"226 317 CURVE",
"226 -112 LINE"
);
}
);
width = 640;
}
);
unicode = 00B6;
},
{
glyphname = periodcentered;
layers = (
{
hints = (
{
horizontal = 1;
place = "{273, 202}";
type = Stem;
},
{
place = "{66, 208}";
type = Stem;
}
);
layerId = "A096C860-9E6F-43F5-BF5F-7670645978FC";
paths = (
{
closed = 1;
nodes = (
"66 309 OFFCURVE",
"112 273 OFFCURVE",
"170 273 CURVE SMOOTH",
"228 273 OFFCURVE",
"274 309 OFFCURVE",
"274 374 CURVE SMOOTH",
"274 440 OFFCURVE",
"228 475 OFFCURVE",
"170 475 CURVE SMOOTH",
"112 475 OFFCURVE",
"66 440 OFFCURVE",
"66 374 CURVE SMOOTH"
);
}
);
width = 339;
}
);
unicode = 00B7;
},
{
glyphname = cedilla;
layers = (
{
hints = (
{
horizontal = 1;
place = "{-242, 64}";
type = Stem;
},
{
horizontal = 1;
place = "{-121, 53}";
type = Stem;
},
{
place = "{212, 82}";
type = Stem;
}
);
layerId = "A096C860-9E6F-43F5-BF5F-7670645978FC";
paths = (
{
closed = 1;
nodes = (
"239 0 LINE",
"170 0 LINE",
"102 -106 LINE",
"130 -130 LINE",
"146 -124 OFFCURVE",
"159 -121 OFFCURVE",
"173 -121 CURVE SMOOTH",
"197 -121 OFFCURVE",
"212 -130 OFFCURVE",
"212 -147 CURVE SMOOTH",
"212 -170 OFFCURVE",
"178 -178 OFFCURVE",
"157 -178 CURVE SMOOTH",
"139 -178 OFFCURVE",
"115 -175 OFFCURVE",
"89 -163 CURVE",
"66 -217 LINE",
"99 -233 OFFCURVE",
"135 -242 OFFCURVE",
"169 -242 CURVE SMOOTH",
"224 -242 OFFCURVE",
"294 -219 OFFCURVE",
"294 -148 CURVE SMOOTH",
"294 -93 OFFCURVE",
"246 -68 OFFCURVE",
"204 -68 CURVE SMOOTH",
"197 -68 LINE"
);
}
);
width = 356;
}
);
unicode = 00B8;
},
{
glyphname = onesuperior;
layers = (
{
hints = (
{
horizontal = 1;
place = "{709, -20}";
target = down;
type = TopGhost;
},
{
place = "{106, 118}";
type = Stem;
}
);
layerId = "A096C860-9E6F-43F5-BF5F-7670645978FC";
paths = (
{
closed = 1;
nodes = (
"106 285 LINE",
"224 285 LINE",
"224 709 LINE",
"140 707 LINE",
"104 703 OFFCURVE",
"59 697 OFFCURVE",
"43 692 CURVE",
"43 595 LINE",
"66 598 OFFCURVE",
"81 602 OFFCURVE",
"106 607 CURVE"
);
}
);
width = 326;
}
);
unicode = 00B9;
},
{
glyphname = ordmasculine;
layers = (
{
hints = (
{
place = "{23, 94}";
type = Stem;
},
{
place = "{38, 288}";
type = Stem;
},
{
place = "{248, 94}";
type = Stem;
},
{
horizontal = 1;
place = "{292, 72}";
type = Stem;
},
{
horizontal = 1;
place = "{416, 82}";
type = Stem;
},
{
horizontal = 1;
place = "{641, 83}";
type = Stem;
}
);
layerId = "A096C860-9E6F-43F5-BF5F-7670645978FC";
paths = (
{
closed = 1;
nodes = (
"274 416 OFFCURVE",
"342 486 OFFCURVE",
"342 571 CURVE SMOOTH",
"342 655 OFFCURVE",
"275 724 OFFCURVE",
"183 724 CURVE SMOOTH",
"91 724 OFFCURVE",
"23 653 OFFCURVE",
"23 570 CURVE SMOOTH",
"23 486 OFFCURVE",
"90 416 OFFCURVE",
"181 416 CURVE SMOOTH"
);
},
{
closed = 1;
nodes = (
"144 498 OFFCURVE",
"117 531 OFFCURVE",
"117 571 CURVE SMOOTH",
"117 610 OFFCURVE",
"142 641 OFFCURVE",
"181 641 CURVE SMOOTH",
"220 641 OFFCURVE",
"248 609 OFFCURVE",
"248 570 CURVE SMOOTH",
"248 530 OFFCURVE",
"223 498 OFFCURVE",
"183 498 CURVE SMOOTH"
);
},
{
closed = 1;
nodes = (
"38 292 LINE",
"326 292 LINE",
"326 364 LINE",
"38 364 LINE"
);
}
);
width = 364;
}
);
unicode = 00BA;
},
{
glyphname = guillemotright;
layers = (
{
hints = (
{
horizontal = 1;
place = "{38, 456}";
type = Stem;
},
{
place = "{39, 564}";
type = Stem;
}
);
layerId = "A096C860-9E6F-43F5-BF5F-7670645978FC";
paths = (
{
closed = 1;
nodes = (
"39 94 LINE",
"168 38 LINE",
"338 265 LINE",
"168 494 LINE",
"39 439 LINE",
"169 266 LINE"
);
},
{
closed = 1;
nodes = (
"304 94 LINE",
"433 38 LINE",
"603 265 LINE",
"432 494 LINE",
"303 439 LINE",
"433 266 LINE"
);
}
);
width = 638;
}
);
unicode = 00BB;
},
{
glyphname = onequarter;
layers = (
{
hints = (
{
horizontal = 1;
place = "{1, 21}";
target = up;
type = BottomGhost;
},
{
horizontal = 1;
place = "{78, 83}";
type = Stem;
},
{
horizontal = 1;
place = "{709, -20}";
target = down;
type = TopGhost;
},
{
place = "{80, 118}";
type = Stem;
},
{
place = "{630, 110}";
type = Stem;
}
);
layerId = "A096C860-9E6F-43F5-BF5F-7670645978FC";
paths = (
{
closed = 1;
nodes = (
"662 811 LINE",
"522 813 LINE",
"77 -93 LINE",
"217 -95 LINE"
);
},
{
closed = 1;
nodes = (
"80 285 LINE",
"198 285 LINE",
"198 709 LINE",
"114 707 LINE",
"78 703 OFFCURVE",
"33 697 OFFCURVE",
"17 692 CURVE",
"17 595 LINE",
"40 598 OFFCURVE",
"55 602 OFFCURVE",
"80 607 CURVE"
);
},
{
closed = 1;
nodes = (
"418 78 LINE",
"490 78 OFFCURVE",
"560 79 OFFCURVE",
"630 79 CURVE",
"628 1 LINE",
"740 1 LINE",
"738 79 LINE",
"756 79 OFFCURVE",
"771 78 OFFCURVE",
"788 78 CURVE",
"791 164 LINE",
"740 162 LINE",
"740 428 LINE",
"616 428 LINE",
"418 144 LINE"
);
},
{
closed = 1;
nodes = (
"538 161 LINE",
"569 209 OFFCURVE",
"608 259 OFFCURVE",
"631 302 CURVE",
"632 301 OFFCURVE",
"633 301 OFFCURVE",
"634 301 CURVE",
"633 295 LINE",
"629 262 OFFCURVE",
"630 195 OFFCURVE",
"630 162 CURVE",
"615 162 OFFCURVE",
"600 162 OFFCURVE",
"584 161 CURVE",
"567 161 OFFCURVE",
"551 161 OFFCURVE",
"539 160 CURVE"
);
}
);
width = 815;
}
);
unicode = 00BC;
},
{
glyphname = onehalf;
layers = (
{
hints = (
{
horizontal = 1;
place = "{-1, 90}";
type = Stem;
},
{
horizontal = 1;
place = "{340, 92}";
type = Stem;
},
{
horizontal = 1;
place = "{709, -20}";
target = down;
type = TopGhost;
},
{
place = "{80, 118}";
type = Stem;
},
{
place = "{708, 118}";
type = Stem;
}
);
layerId = "A096C860-9E6F-43F5-BF5F-7670645978FC";
paths = (
{
closed = 1;
nodes = (
"662 811 LINE",
"522 813 LINE",
"77 -93 LINE",
"217 -95 LINE"
);
},
{
closed = 1;
nodes = (
"80 285 LINE",
"198 285 LINE",
"198 709 LINE",
"114 707 LINE",
"78 703 OFFCURVE",
"33 697 OFFCURVE",
"17 692 CURVE",
"17 595 LINE",
"40 598 OFFCURVE",
"55 602 OFFCURVE",
"80 607 CURVE"
);
},
{
closed = 1;
nodes = (
"463 -1 LINE",
"825 -1 LINE",
"830 93 LINE",
"671 86 LINE",
"713 119 LINE SMOOTH",
"780 171 OFFCURVE",
"826 220 OFFCURVE",
"826 292 CURVE SMOOTH",
"826 377 OFFCURVE",
"748 432 OFFCURVE",
"660 432 CURVE SMOOTH",
"556 432 OFFCURVE",
"506 381 OFFCURVE",
"491 288 CURVE",
"605 280 LINE",
"609 310 OFFCURVE",
"621 340 OFFCURVE",
"657 340 CURVE SMOOTH",
"688 340 OFFCURVE",
"708 318 OFFCURVE",
"708 288 CURVE SMOOTH",
"708 238 OFFCURVE",
"647 183 OFFCURVE",
"608 142 CURVE"
);
}
);
width = 866;
}
);
unicode = 00BD;
},
{
glyphname = threequarters;
layers = (
{
hints = (
{
place = "{246, 114}";
type = Stem;
},
{
place = "{263, 115}";
type = Stem;
},
{
place = "{780, 110}";
type = Stem;
},
{
horizontal = 1;
place = "{1, 21}";
target = up;
type = BottomGhost;
},
{
horizontal = 1;
place = "{78, 83}";
type = Stem;
},
{
horizontal = 1;
place = "{279, 84}";
type = Stem;
},
{
horizontal = 1;
place = "{479, 69}";
type = Stem;
},
{
horizontal = 1;
place = "{638, 83}";
type = Stem;
}
);
layerId = "A096C860-9E6F-43F5-BF5F-7670645978FC";
paths = (
{
closed = 1;
nodes = (
"810 811 LINE",
"670 813 LINE",
"225 -93 LINE",
"365 -95 LINE"
);
},
{
closed = 1;
nodes = (
"31 403 LINE",
"42 320 OFFCURVE",
"114 279 OFFCURVE",
"202 279 CURVE SMOOTH",
"293 279 OFFCURVE",
"378 323 OFFCURVE",
"378 415 CURVE SMOOTH",
"378 459 OFFCURVE",
"354 498 OFFCURVE",
"308 517 CURVE",
"341 535 OFFCURVE",
"360 568 OFFCURVE",
"360 604 CURVE SMOOTH",
"360 682 OFFCURVE",
"283 721 OFFCURVE",
"205 721 CURVE SMOOTH",
"130 721 OFFCURVE",
"60 685 OFFCURVE",
"50 609 CURVE",
"153 598 LINE",
"159 618 OFFCURVE",
"173 638 OFFCURVE",
"203 638 CURVE SMOOTH",
"229 638 OFFCURVE",
"246 620 OFFCURVE",
"246 596 CURVE SMOOTH",
"246 567 OFFCURVE",
"222 548 OFFCURVE",
"193 548 CURVE SMOOTH",
"180 548 LINE",
"180 478 LINE",
"187 478 OFFCURVE",
"195 479 OFFCURVE",
"203 479 CURVE SMOOTH",
"241 479 OFFCURVE",
"263 457 OFFCURVE",
"263 425 CURVE SMOOTH",
"263 389 OFFCURVE",
"237 363 OFFCURVE",
"202 363 CURVE SMOOTH",
"168 363 OFFCURVE",
"145 385 OFFCURVE",
"138 413 CURVE"
);
},
{
closed = 1;
nodes = (
"568 78 LINE",
"640 78 OFFCURVE",
"710 79 OFFCURVE",
"780 79 CURVE",
"778 1 LINE",
"890 1 LINE",
"888 79 LINE",
"906 79 OFFCURVE",
"921 78 OFFCURVE",
"938 78 CURVE",
"941 164 LINE",
"890 162 LINE",
"890 428 LINE",
"766 428 LINE",
"568 144 LINE"
);
},
{
closed = 1;
nodes = (
"688 161 LINE",
"719 209 OFFCURVE",
"758 259 OFFCURVE",
"781 302 CURVE",
"782 301 OFFCURVE",
"783 301 OFFCURVE",
"784 301 CURVE",
"783 295 LINE",
"779 262 OFFCURVE",
"780 195 OFFCURVE",
"780 162 CURVE",
"765 162 OFFCURVE",
"750 162 OFFCURVE",
"734 161 CURVE",
"717 161 OFFCURVE",
"701 161 OFFCURVE",
"689 160 CURVE"
);
}
);
width = 964;
}
);
unicode = 00BE;
},
{
glyphname = questiondown;
layers = (
{
hints = (
{
place = "{40, 172}";
type = Stem;
},
{
place = "{170, 200}";
type = Stem;
},
{
place = "{198, 158}";
type = Stem;
},
{
horizontal = 1;
place = "{-191, 148}";
type = Stem;
},
{
horizontal = 1;
place = "{352, 180}";
type = Stem;
}
);
layerId = "A096C860-9E6F-43F5-BF5F-7670645978FC";
paths = (
{
closed = 1;
nodes = (
"370 501 OFFCURVE",
"326 532 OFFCURVE",
"270 532 CURVE SMOOTH",
"215 532 OFFCURVE",
"170 501 OFFCURVE",
"170 442 CURVE SMOOTH",
"170 383 OFFCURVE",
"215 352 OFFCURVE",
"270 352 CURVE SMOOTH",
"326 352 OFFCURVE",
"370 383 OFFCURVE",
"370 442 CURVE SMOOTH"
);
},
{
closed = 1;
nodes = (
"253 -43 OFFCURVE",
"212 -21 OFFCURVE",
"212 18 CURVE SMOOTH",
"212 50 OFFCURVE",
"240 78 OFFCURVE",
"268 101 CURVE SMOOTH",
"312 136 OFFCURVE",
"356 179 OFFCURVE",
"356 260 CURVE SMOOTH",
"356 307 LINE",
"198 307 LINE",
"198 275 LINE SMOOTH",
"198 232 OFFCURVE",
"185 217 OFFCURVE",
"149 187 CURVE",
"85 138 OFFCURVE",
"40 95 OFFCURVE",
"40 6 CURVE SMOOTH",
"40 -119 OFFCURVE",
"145 -191 OFFCURVE",
"266 -191 CURVE SMOOTH",
"347 -191 OFFCURVE",
"422 -162 OFFCURVE",
"470 -99 CURVE",
"470 49 LINE",
"428 6 OFFCURVE",
"365 -43 OFFCURVE",
"297 -43 CURVE SMOOTH"
);
}
);
width = 510;
}
);
unicode = 00BF;
},
{
glyphname = Agrave;
layers = (
{
hints = (
{
horizontal = 1;
place = "{0, 21}";
target = up;
type = BottomGhost;
},
{
horizontal = 1;
place = "{137, 138}";
type = Stem;
},
{
horizontal = 1;
place = "{705, -20}";
target = down;
type = TopGhost;
},
{
place = "{-7, 767}";
type = Stem;
}
);
layerId = "A096C860-9E6F-43F5-BF5F-7670645978FC";
paths = (
{
closed = 1;
nodes = (
"340 815 LINE",
"462 815 LINE",
"360 994 LINE",
"196 943 LINE"
);
},
{
closed = 1;
nodes = (
"515 137 LINE",
"571 0 LINE",
"760 0 LINE",
"460 705 LINE",
"293 705 LINE",
"-7 0 LINE",
"178 0 LINE",
"234 137 LINE"
);
},
{
closed = 1;
nodes = (
"375 497 LINE",
"463 275 LINE",
"287 275 LINE"
);
}
);
width = 752;
}
);
unicode = 00C0;
},
{
glyphname = Aacute;
layers = (
{
hints = (
{
horizontal = 1;
place = "{0, 21}";
target = up;
type = BottomGhost;
},
{
horizontal = 1;
place = "{137, 138}";
type = Stem;
},
{
horizontal = 1;
place = "{705, -20}";
target = down;
type = TopGhost;
},
{
place = "{-7, 767}";
type = Stem;
}
);
layerId = "A096C860-9E6F-43F5-BF5F-7670645978FC";
paths = (
{
closed = 1;
nodes = (
"331 781 LINE",
"452 781 LINE",
"596 909 LINE",
"433 960 LINE"
);
},
{
closed = 1;
nodes = (
"515 137 LINE",
"571 0 LINE",
"760 0 LINE",
"460 705 LINE",
"293 705 LINE",
"-7 0 LINE",
"178 0 LINE",
"234 137 LINE"
);
},
{
closed = 1;
nodes = (
"375 497 LINE",
"463 275 LINE",
"287 275 LINE"
);
}
);
width = 752;
}
);
unicode = 00C1;
},
{
glyphname = Acircumflex;
layers = (
{
hints = (
{
horizontal = 1;
place = "{0, 21}";
target = up;
type = BottomGhost;
},
{
horizontal = 1;
place = "{137, 138}";
type = Stem;
},
{
horizontal = 1;
place = "{705, -20}";
target = down;
type = TopGhost;
},
{
horizontal = 1;
place = "{780, 179}";
type = Stem;
},
{
place = "{-7, 767}";
type = Stem;
}
);
layerId = "A096C860-9E6F-43F5-BF5F-7670645978FC";
paths = (
{
closed = 1;
nodes = (
"422 959 LINE",
"327 959 LINE",
"193 780 LINE",
"313 780 LINE",
"375 845 LINE",
"437 780 LINE",
"556 780 LINE"
);
},
{
closed = 1;
nodes = (
"515 137 LINE",
"571 0 LINE",
"760 0 LINE",
"460 705 LINE",
"293 705 LINE",
"-7 0 LINE",
"178 0 LINE",
"234 137 LINE"
);
},
{
closed = 1;
nodes = (
"375 497 LINE",
"463 275 LINE",
"287 275 LINE"
);
}
);
width = 752;
}
);
unicode = 00C2;
},
{
glyphname = Atilde;
layers = (
{
hints = (
{
place = "{-7, 767}";
type = Stem;
},
{
horizontal = 1;
place = "{0, 21}";
target = up;
type = BottomGhost;
},
{
horizontal = 1;
place = "{137, 138}";
type = Stem;
},
{
horizontal = 1;
place = "{705, -20}";
target = down;
type = TopGhost;
},
{
horizontal = 1;
place = "{769, 110}";
type = Stem;
},
{
horizontal = 1;
place = "{804, 111}";
type = Stem;
}
);
layerId = "A096C860-9E6F-43F5-BF5F-7670645978FC";
paths = (
{
closed = 1;
nodes = (
"286 757 LINE",
"297 793 OFFCURVE",
"308 804 OFFCURVE",
"324 804 CURVE SMOOTH",
"354 804 OFFCURVE",
"394 769 OFFCURVE",
"441 769 CURVE SMOOTH",
"502 769 OFFCURVE",
"538 825 OFFCURVE",
"561 907 CURVE",
"468 924 LINE",
"459 892 OFFCURVE",
"449 879 OFFCURVE",
"434 879 CURVE SMOOTH",
"406 879 OFFCURVE",
"362 915 OFFCURVE",
"314 915 CURVE SMOOTH",
"253 915 OFFCURVE",
"214 857 OFFCURVE",
"191 774 CURVE"
);
},
{
closed = 1;
nodes = (
"515 137 LINE",
"571 0 LINE",
"760 0 LINE",
"460 705 LINE",
"293 705 LINE",
"-7 0 LINE",
"178 0 LINE",
"234 137 LINE"
);
},
{
closed = 1;
nodes = (
"375 497 LINE",
"463 275 LINE",
"287 275 LINE"
);
}
);
width = 752;
}
);
unicode = 00C3;
},
{
glyphname = Adieresis;
layers = (
{
hints = (
{
horizontal = 1;
place = "{0, 21}";
target = up;
type = BottomGhost;
},
{
horizontal = 1;
place = "{137, 138}";
type = Stem;
},
{
horizontal = 1;
place = "{705, -20}";
target = down;
type = TopGhost;
},
{
horizontal = 1;
place = "{794, 162}";
type = Stem;
},
{
place = "{184, 167}";
type = Stem;
},
{
place = "{404, 166}";
type = Stem;
}
);
layerId = "A096C860-9E6F-43F5-BF5F-7670645978FC";
paths = (
{
closed = 1;
nodes = (
"184 823 OFFCURVE",
"221 794 OFFCURVE",
"267 794 CURVE SMOOTH",
"313 794 OFFCURVE",
"351 823 OFFCURVE",
"351 875 CURVE SMOOTH",
"351 927 OFFCURVE",
"313 956 OFFCURVE",
"267 956 CURVE SMOOTH",
"221 956 OFFCURVE",
"184 927 OFFCURVE",
"184 875 CURVE SMOOTH"
);
},
{
closed = 1;
nodes = (
"404 823 OFFCURVE",
"441 794 OFFCURVE",
"487 794 CURVE SMOOTH",
"534 794 OFFCURVE",
"570 823 OFFCURVE",
"570 875 CURVE SMOOTH",
"570 927 OFFCURVE",
"534 956 OFFCURVE",
"487 956 CURVE SMOOTH",
"441 956 OFFCURVE",
"404 927 OFFCURVE",
"404 875 CURVE SMOOTH"
);
},
{
closed = 1;
nodes = (
"515 137 LINE",
"571 0 LINE",
"760 0 LINE",
"460 705 LINE",
"293 705 LINE",
"-7 0 LINE",
"178 0 LINE",
"234 137 LINE"
);
},
{
closed = 1;
nodes = (
"375 497 LINE",
"463 275 LINE",
"287 275 LINE"
);
}
);
width = 752;
}
);
unicode = 00C4;
},
{
glyphname = Aring;
layers = (
{
hints = (
{
horizontal = 1;
place = "{0, 21}";
target = up;
type = BottomGhost;
},
{
horizontal = 1;
place = "{137, 138}";
type = Stem;
},
{
horizontal = 1;
place = "{701, -20}";
target = down;
type = TopGhost;
},
{
horizontal = 1;
place = "{813, 87}";
type = Stem;
},
{
place = "{257, 90}";
type = Stem;
},
{
place = "{406, 90}";
type = Stem;
}
);
layerId = "A096C860-9E6F-43F5-BF5F-7670645978FC";
paths = (
{
closed = 1;
nodes = (
"515 137 LINE",
"571 0 LINE",
"760 0 LINE",
"462 701 LINE",
"483 722 OFFCURVE",
"496 751 OFFCURVE",
"496 784 CURVE SMOOTH",
"496 848 OFFCURVE",
"442 900 OFFCURVE",
"376 900 CURVE SMOOTH",
"313 900 OFFCURVE",
"257 848 OFFCURVE",
"257 783 CURVE SMOOTH",
"257 751 OFFCURVE",
"270 722 OFFCURVE",
"291 701 CURVE",
"-7 0 LINE",
"178 0 LINE",
"234 137 LINE"
);
},
{
closed = 1;
nodes = (
"406 765 OFFCURVE",
"394 754 OFFCURVE",
"376 754 CURVE SMOOTH",
"360 754 OFFCURVE",
"347 766 OFFCURVE",
"347 784 CURVE SMOOTH",
"347 799 OFFCURVE",
"360 813 OFFCURVE",
"376 813 CURVE SMOOTH",
"394 813 OFFCURVE",
"406 799 OFFCURVE",
"406 783 CURVE SMOOTH"
);
},
{
closed = 1;
nodes = (
"375 497 LINE",
"463 275 LINE",
"287 275 LINE"
);
}
);
width = 752;
}
);
unicode = 00C5;
},
{
glyphname = AE;
layers = (
{
hints = (
{
place = "{446, 175}";
type = Stem;
},
{
horizontal = 1;
place = "{0, 150}";
type = Stem;
},
{
horizontal = 1;
place = "{137, 138}";
type = Stem;
},
{
horizontal = 1;
place = "{284, 140}";
type = Stem;
},
{
horizontal = 1;
place = "{551, 150}";
type = Stem;
},
{
horizontal = 1;
place = "{585, 116}";
type = Stem;
}
);
layerId = "A096C860-9E6F-43F5-BF5F-7670645978FC";
paths = (
{
closed = 1;
nodes = (
"-8 0 LINE",
"177 0 LINE",
"247 137 LINE",
"446 137 LINE",
"446 0 LINE",
"1000 0 LINE",
"1000 150 LINE",
"621 150 LINE",
"621 284 LINE",
"960 284 LINE",
"960 424 LINE",
"621 424 LINE",
"621 551 LINE",
"994 551 LINE",
"994 701 LINE",
"313 701 LINE"
);
},
{
closed = 1;
nodes = (
"302 275 LINE",
"446 585 LINE",
"446 275 LINE"
);
}
);
width = 994;
}
);
unicode = 00C6;
},
{
glyphname = Ccedilla;
layers = (
{
hints = (
{
horizontal = 1;
place = "{-242, 64}";
type = Stem;
},
{
horizontal = 1;
place = "{-121, 53}";
type = Stem;
},
{
horizontal = 1;
place = "{-13, 21}";
target = up;
type = BottomGhost;
},
{
horizontal = 1;
place = "{555, 160}";
type = Stem;
},
{
place = "{36, 182}";
type = Stem;
},
{
place = "{416, 82}";
type = Stem;
}
);
layerId = "A096C860-9E6F-43F5-BF5F-7670645978FC";
paths = (
{
closed = 1;
nodes = (
"623 236 LINE",
"561 179 OFFCURVE",
"497 146 OFFCURVE",
"419 146 CURVE SMOOTH",
"293 146 OFFCURVE",
"218 236 OFFCURVE",
"218 352 CURVE SMOOTH",
"218 464 OFFCURVE",
"294 555 OFFCURVE",
"419 555 CURVE SMOOTH",
"503 555 OFFCURVE",
"571 519 OFFCURVE",
"617 470 CURVE",
"617 651 LINE",
"561 690 OFFCURVE",
"494 715 OFFCURVE",
"405 715 CURVE SMOOTH",
"193 715 OFFCURVE",
"36 555 OFFCURVE",
"36 350 CURVE SMOOTH",
"36 153 OFFCURVE",
"181 3 OFFCURVE",
"366 -13 CURVE",
"306 -106 LINE",
"334 -130 LINE",
"350 -124 OFFCURVE",
"363 -121 OFFCURVE",
"377 -121 CURVE SMOOTH",
"401 -121 OFFCURVE",
"416 -130 OFFCURVE",
"416 -147 CURVE SMOOTH",
"416 -170 OFFCURVE",
"382 -178 OFFCURVE",
"361 -178 CURVE SMOOTH",
"343 -178 OFFCURVE",
"319 -175 OFFCURVE",
"293 -163 CURVE",
"270 -217 LINE",
"303 -233 OFFCURVE",
"339 -242 OFFCURVE",
"373 -242 CURVE SMOOTH",
"428 -242 OFFCURVE",
"498 -219 OFFCURVE",
"498 -148 CURVE SMOOTH",
"498 -93 OFFCURVE",
"450 -68 OFFCURVE",
"408 -68 CURVE SMOOTH",
"401 -68 LINE",
"435 -12 LINE",
"508 -6 OFFCURVE",
"568 18 OFFCURVE",
"623 58 CURVE"
);
}
);
width = 673;
}
);
unicode = 00C7;
},
{
glyphname = Egrave;
layers = (
{
hints = (
{
horizontal = 1;
place = "{0, 150}";
type = Stem;
},
{
horizontal = 1;
place = "{284, 140}";
type = Stem;
},
{
horizontal = 1;
place = "{551, 150}";
type = Stem;
},
{
place = "{62, 174}";
type = Stem;
}
);
layerId = "A096C860-9E6F-43F5-BF5F-7670645978FC";
paths = (
{
closed = 1;
nodes = (
"298 815 LINE",
"420 815 LINE",
"318 994 LINE",
"154 943 LINE"
);
},
{
closed = 1;
nodes = (
"236 284 LINE",
"573 284 LINE",
"573 424 LINE",
"236 424 LINE",
"236 551 LINE",
"607 551 LINE",
"607 701 LINE",
"62 701 LINE",
"62 0 LINE",
"613 0 LINE",
"613 150 LINE",
"236 150 LINE"
);
}
);
width = 666;
}
);
unicode = 00C8;
},
{
glyphname = Eacute;
layers = (
{
hints = (
{
horizontal = 1;
place = "{0, 150}";
type = Stem;
},
{
horizontal = 1;
place = "{284, 140}";
type = Stem;
},
{
horizontal = 1;
place = "{551, 150}";
type = Stem;
},
{
place = "{62, 174}";
type = Stem;
}
);
layerId = "A096C860-9E6F-43F5-BF5F-7670645978FC";
paths = (
{
closed = 1;
nodes = (
"250 781 LINE",
"371 781 LINE",
"515 909 LINE",
"352 960 LINE"
);
},
{
closed = 1;
nodes = (
"236 284 LINE",
"573 284 LINE",
"573 424 LINE",
"236 424 LINE",
"236 551 LINE",
"607 551 LINE",
"607 701 LINE",
"62 701 LINE",
"62 0 LINE",
"613 0 LINE",
"613 150 LINE",
"236 150 LINE"
);
}
);
width = 666;
}
);
unicode = 00C9;
},
{
glyphname = Ecircumflex;
layers = (
{
hints = (
{
horizontal = 1;
place = "{0, 150}";
type = Stem;
},
{
horizontal = 1;
place = "{284, 140}";
type = Stem;
},
{
horizontal = 1;
place = "{551, 150}";
type = Stem;
},
{
horizontal = 1;
place = "{780, 179}";
type = Stem;
},
{
place = "{62, 174}";
type = Stem;
}
);
layerId = "A096C860-9E6F-43F5-BF5F-7670645978FC";
paths = (
{
closed = 1;
nodes = (
"388 959 LINE",
"293 959 LINE",
"159 780 LINE",
"279 780 LINE",
"341 845 LINE",
"403 780 LINE",
"522 780 LINE"
);
},
{
closed = 1;
nodes = (
"236 284 LINE",
"573 284 LINE",
"573 424 LINE",
"236 424 LINE",
"236 551 LINE",
"607 551 LINE",
"607 701 LINE",
"62 701 LINE",
"62 0 LINE",
"613 0 LINE",
"613 150 LINE",
"236 150 LINE"
);
}
);
width = 666;
}
);
unicode = 00CA;
},
{
glyphname = Edieresis;
layers = (
{
hints = (
{
place = "{62, 174}";
type = Stem;
},
{
place = "{140, 167}";
type = Stem;
},
{
place = "{360, 166}";
type = Stem;
},
{
horizontal = 1;
place = "{0, 150}";
type = Stem;
},
{
horizontal = 1;
place = "{284, 140}";
type = Stem;
},
{
horizontal = 1;
place = "{551, 150}";
type = Stem;
},
{
horizontal = 1;
place = "{794, 162}";
type = Stem;
}
);
layerId = "A096C860-9E6F-43F5-BF5F-7670645978FC";
paths = (
{
closed = 1;
nodes = (
"140 823 OFFCURVE",
"177 794 OFFCURVE",
"223 794 CURVE SMOOTH",
"269 794 OFFCURVE",
"307 823 OFFCURVE",
"307 875 CURVE SMOOTH",
"307 927 OFFCURVE",
"269 956 OFFCURVE",
"223 956 CURVE SMOOTH",
"177 956 OFFCURVE",
"140 927 OFFCURVE",
"140 875 CURVE SMOOTH"
);
},
{
closed = 1;
nodes = (
"360 823 OFFCURVE",
"397 794 OFFCURVE",
"443 794 CURVE SMOOTH",
"490 794 OFFCURVE",
"526 823 OFFCURVE",
"526 875 CURVE SMOOTH",
"526 927 OFFCURVE",
"490 956 OFFCURVE",
"443 956 CURVE SMOOTH",
"397 956 OFFCURVE",
"360 927 OFFCURVE",
"360 875 CURVE SMOOTH"
);
},
{
closed = 1;
nodes = (
"236 284 LINE",
"573 284 LINE",
"573 424 LINE",
"236 424 LINE",
"236 551 LINE",
"607 551 LINE",
"607 701 LINE",
"62 701 LINE",
"62 0 LINE",
"613 0 LINE",
"613 150 LINE",
"236 150 LINE"
);
}
);
width = 666;
}
);
unicode = 00CB;
},
{
glyphname = Eth;
layers = (
{
hints = (
{
horizontal = 1;
place = "{0, 156}";
type = Stem;
},
{
horizontal = 1;
place = "{261, 152}";
type = Stem;
},
{
horizontal = 1;
place = "{545, 156}";
type = Stem;
},
{
place = "{86, 176}";
type = Stem;
},
{
place = "{559, 181}";
type = Stem;
}
);
layerId = "A096C860-9E6F-43F5-BF5F-7670645978FC";
paths = (
{
closed = 1;
nodes = (
"86 0 LINE",
"345 0 LINE SMOOTH",
"593 0 OFFCURVE",
"740 151 OFFCURVE",
"740 354 CURVE SMOOTH",
"740 559 OFFCURVE",
"593 701 OFFCURVE",
"348 701 CURVE SMOOTH",
"86 701 LINE",
"86 413 LINE",
"9 413 LINE",
"9 261 LINE",
"86 261 LINE"
);
},
{
closed = 1;
nodes = (
"262 545 LINE",
"358 545 LINE SMOOTH",
"480 545 OFFCURVE",
"559 466 OFFCURVE",
"559 351 CURVE SMOOTH",
"559 230 OFFCURVE",
"478 156 OFFCURVE",
"350 156 CURVE SMOOTH",
"262 156 LINE",
"262 261 LINE",
"327 261 LINE",
"327 413 LINE",
"262 413 LINE"
);
}
);
width = 780;
}
);
unicode = 00D0;
},
{
glyphname = Ntilde;
layers = (
{
hints = (
{
place = "{62, 173}";
type = Stem;
},
{
place = "{536, 174}";
type = Stem;
},
{
horizontal = 1;
place = "{0, 21}";
target = up;
type = BottomGhost;
},
{
horizontal = 1;
place = "{700, -20}";
target = down;
type = TopGhost;
},
{
horizontal = 1;
place = "{701, -20}";
target = down;
type = TopGhost;
},
{
horizontal = 1;
place = "{769, 110}";
type = Stem;
},
{
horizontal = 1;
place = "{804, 111}";
type = Stem;
}
);
layerId = "A096C860-9E6F-43F5-BF5F-7670645978FC";
paths = (
{
closed = 1;
nodes = (
"303 757 LINE",
"314 793 OFFCURVE",
"325 804 OFFCURVE",
"341 804 CURVE SMOOTH",
"371 804 OFFCURVE",
"411 769 OFFCURVE",
"458 769 CURVE SMOOTH",
"519 769 OFFCURVE",
"555 825 OFFCURVE",
"578 907 CURVE",
"485 924 LINE",
"476 892 OFFCURVE",
"466 879 OFFCURVE",
"451 879 CURVE SMOOTH",
"423 879 OFFCURVE",
"379 915 OFFCURVE",
"331 915 CURVE SMOOTH",
"270 915 OFFCURVE",
"231 857 OFFCURVE",
"208 774 CURVE"
);
},
{
closed = 1;
nodes = (
"227 700 LINE",
"62 700 LINE",
"62 0 LINE",
"235 0 LINE",
"235 416 LINE",
"554 0 LINE",
"710 0 LINE",
"710 701 LINE",
"536 701 LINE",
"536 296 LINE"
);
}
);
width = 773;
}
);
unicode = 00D1;
},
{
glyphname = Ograve;
layers = (
{
hints = (
{
horizontal = 1;
place = "{-14, 159}";
type = Stem;
},
{
horizontal = 1;
place = "{556, 159}";
type = Stem;
},
{
place = "{39, 181}";
type = Stem;
},
{
place = "{609, 181}";
type = Stem;
}
);
layerId = "A096C860-9E6F-43F5-BF5F-7670645978FC";
paths = (
{
closed = 1;
nodes = (
"350 815 LINE",
"472 815 LINE",
"370 994 LINE",
"206 943 LINE"
);
},
{
closed = 1;
nodes = (
"790 552 OFFCURVE",
"630 715 OFFCURVE",
"415 715 CURVE SMOOTH",
"199 715 OFFCURVE",
"39 552 OFFCURVE",
"39 350 CURVE SMOOTH",
"39 149 OFFCURVE",
"198 -14 OFFCURVE",
"414 -14 CURVE SMOOTH",
"628 -14 OFFCURVE",
"790 151 OFFCURVE",
"790 352 CURVE SMOOTH"
);
},
{
closed = 1;
nodes = (
"609 240 OFFCURVE",
"531 145 OFFCURVE",
"415 145 CURVE SMOOTH",
"300 145 OFFCURVE",
"220 241 OFFCURVE",
"220 352 CURVE SMOOTH",
"220 463 OFFCURVE",
"298 556 OFFCURVE",
"414 556 CURVE SMOOTH",
"530 556 OFFCURVE",
"609 460 OFFCURVE",
"609 350 CURVE SMOOTH"
);
}
);
width = 829;
}
);
unicode = 00D2;
},
{
glyphname = Oacute;
layers = (
{
hints = (
{
horizontal = 1;
place = "{-14, 159}";
type = Stem;
},
{
horizontal = 1;
place = "{556, 159}";
type = Stem;
},
{
place = "{39, 181}";
type = Stem;
},
{
place = "{609, 181}";
type = Stem;
}
);
layerId = "A096C860-9E6F-43F5-BF5F-7670645978FC";
paths = (
{
closed = 1;
nodes = (
"370 781 LINE",
"491 781 LINE",
"635 909 LINE",
"472 960 LINE"
);
},
{
closed = 1;
nodes = (
"790 552 OFFCURVE",
"630 715 OFFCURVE",
"415 715 CURVE SMOOTH",
"199 715 OFFCURVE",
"39 552 OFFCURVE",
"39 350 CURVE SMOOTH",
"39 149 OFFCURVE",
"198 -14 OFFCURVE",
"414 -14 CURVE SMOOTH",
"628 -14 OFFCURVE",
"790 151 OFFCURVE",
"790 352 CURVE SMOOTH"
);
},
{
closed = 1;
nodes = (
"609 240 OFFCURVE",
"531 145 OFFCURVE",
"415 145 CURVE SMOOTH",
"300 145 OFFCURVE",
"220 241 OFFCURVE",
"220 352 CURVE SMOOTH",
"220 463 OFFCURVE",
"298 556 OFFCURVE",
"414 556 CURVE SMOOTH",
"530 556 OFFCURVE",
"609 460 OFFCURVE",
"609 350 CURVE SMOOTH"
);
}
);
width = 829;
}
);
unicode = 00D3;
},
{
glyphname = Ocircumflex;
layers = (
{
hints = (
{
horizontal = 1;
place = "{-14, 159}";
type = Stem;
},
{
horizontal = 1;
place = "{556, 159}";
type = Stem;
},
{
horizontal = 1;
place = "{780, 179}";
type = Stem;
},
{
place = "{39, 181}";
type = Stem;
},
{
place = "{609, 181}";
type = Stem;
}
);
layerId = "A096C860-9E6F-43F5-BF5F-7670645978FC";
paths = (
{
closed = 1;
nodes = (
"461 959 LINE",
"366 959 LINE",
"232 780 LINE",
"352 780 LINE",
"414 845 LINE",
"476 780 LINE",
"595 780 LINE"
);
},
{
closed = 1;
nodes = (
"790 552 OFFCURVE",
"630 715 OFFCURVE",
"415 715 CURVE SMOOTH",
"199 715 OFFCURVE",
"39 552 OFFCURVE",
"39 350 CURVE SMOOTH",
"39 149 OFFCURVE",
"198 -14 OFFCURVE",
"414 -14 CURVE SMOOTH",
"628 -14 OFFCURVE",
"790 151 OFFCURVE",
"790 352 CURVE SMOOTH"
);
},
{
closed = 1;
nodes = (
"609 240 OFFCURVE",
"531 145 OFFCURVE",
"415 145 CURVE SMOOTH",
"300 145 OFFCURVE",
"220 241 OFFCURVE",
"220 352 CURVE SMOOTH",
"220 463 OFFCURVE",
"298 556 OFFCURVE",
"414 556 CURVE SMOOTH",
"530 556 OFFCURVE",
"609 460 OFFCURVE",
"609 350 CURVE SMOOTH"
);
}
);
width = 829;
}
);
unicode = 00D4;
},
{
glyphname = Otilde;
layers = (
{
hints = (
{
place = "{39, 181}";
type = Stem;
},
{
place = "{609, 181}";
type = Stem;
},
{
horizontal = 1;
place = "{-14, 159}";
type = Stem;
},
{
horizontal = 1;
place = "{556, 159}";
type = Stem;
},
{
horizontal = 1;
place = "{769, 110}";
type = Stem;
},
{
horizontal = 1;
place = "{804, 111}";
type = Stem;
}
);
layerId = "A096C860-9E6F-43F5-BF5F-7670645978FC";
paths = (
{
closed = 1;
nodes = (
"324 757 LINE",
"335 793 OFFCURVE",
"346 804 OFFCURVE",
"362 804 CURVE SMOOTH",
"392 804 OFFCURVE",
"432 769 OFFCURVE",
"479 769 CURVE SMOOTH",
"540 769 OFFCURVE",
"576 825 OFFCURVE",
"599 907 CURVE",
"506 924 LINE",
"497 892 OFFCURVE",
"487 879 OFFCURVE",
"472 879 CURVE SMOOTH",
"444 879 OFFCURVE",
"400 915 OFFCURVE",
"352 915 CURVE SMOOTH",
"291 915 OFFCURVE",
"252 857 OFFCURVE",
"229 774 CURVE"
);
},
{
closed = 1;
nodes = (
"790 552 OFFCURVE",
"630 715 OFFCURVE",
"415 715 CURVE SMOOTH",
"199 715 OFFCURVE",
"39 552 OFFCURVE",
"39 350 CURVE SMOOTH",
"39 149 OFFCURVE",
"198 -14 OFFCURVE",
"414 -14 CURVE SMOOTH",
"628 -14 OFFCURVE",
"790 151 OFFCURVE",
"790 352 CURVE SMOOTH"
);
},
{
closed = 1;
nodes = (
"609 240 OFFCURVE",
"531 145 OFFCURVE",
"415 145 CURVE SMOOTH",
"300 145 OFFCURVE",
"220 241 OFFCURVE",
"220 352 CURVE SMOOTH",
"220 463 OFFCURVE",
"298 556 OFFCURVE",
"414 556 CURVE SMOOTH",
"530 556 OFFCURVE",
"609 460 OFFCURVE",
"609 350 CURVE SMOOTH"
);
}
);
width = 829;
}
);
unicode = 00D5;
},
{
glyphname = Odieresis;
layers = (
{
hints = (
{
horizontal = 1;
place = "{-14, 159}";
type = Stem;
},
{
horizontal = 1;
place = "{556, 159}";
type = Stem;
},
{
horizontal = 1;
place = "{794, 162}";
type = Stem;
},
{
place = "{39, 181}";
type = Stem;
},
{
place = "{222, 167}";
type = Stem;
},
{
place = "{442, 166}";
type = Stem;
},
{
place = "{609, 181}";
type = Stem;
}
);
layerId = "A096C860-9E6F-43F5-BF5F-7670645978FC";
paths = (
{
closed = 1;
nodes = (
"222 823 OFFCURVE",
"259 794 OFFCURVE",
"305 794 CURVE SMOOTH",
"351 794 OFFCURVE",
"389 823 OFFCURVE",
"389 875 CURVE SMOOTH",
"389 927 OFFCURVE",
"351 956 OFFCURVE",
"305 956 CURVE SMOOTH",
"259 956 OFFCURVE",
"222 927 OFFCURVE",
"222 875 CURVE SMOOTH"
);
},
{
closed = 1;
nodes = (
"442 823 OFFCURVE",
"479 794 OFFCURVE",
"525 794 CURVE SMOOTH",
"572 794 OFFCURVE",
"608 823 OFFCURVE",
"608 875 CURVE SMOOTH",
"608 927 OFFCURVE",
"572 956 OFFCURVE",
"525 956 CURVE SMOOTH",
"479 956 OFFCURVE",
"442 927 OFFCURVE",
"442 875 CURVE SMOOTH"
);
},
{
closed = 1;
nodes = (
"790 552 OFFCURVE",
"630 715 OFFCURVE",
"415 715 CURVE SMOOTH",
"199 715 OFFCURVE",
"39 552 OFFCURVE",
"39 350 CURVE SMOOTH",
"39 149 OFFCURVE",
"198 -14 OFFCURVE",
"414 -14 CURVE SMOOTH",
"628 -14 OFFCURVE",
"790 151 OFFCURVE",
"790 352 CURVE SMOOTH"
);
},
{
closed = 1;
nodes = (
"609 240 OFFCURVE",
"531 145 OFFCURVE",
"415 145 CURVE SMOOTH",
"300 145 OFFCURVE",
"220 241 OFFCURVE",
"220 352 CURVE SMOOTH",
"220 463 OFFCURVE",
"298 556 OFFCURVE",
"414 556 CURVE SMOOTH",
"530 556 OFFCURVE",
"609 460 OFFCURVE",
"609 350 CURVE SMOOTH"
);
}
);
width = 829;
}
);
unicode = 00D6;
},
{
glyphname = multiply;
layers = (
{
hints = (
{
horizontal = 1;
place = "{95, 511}";
type = Stem;
},
{
place = "{89, 511}";
type = Stem;
}
);
layerId = "A096C860-9E6F-43F5-BF5F-7670645978FC";
paths = (
{
closed = 1;
nodes = (
"89 190 LINE",
"186 95 LINE",
"346 254 LINE",
"504 95 LINE",
"600 191 LINE",
"442 350 LINE",
"600 510 LINE",
"504 606 LINE",
"346 446 LINE",
"186 606 LINE",
"90 510 LINE",
"250 350 LINE"
);
}
);
width = 690;
}
);
unicode = 00D7;
},
{
glyphname = Oslash;
layers = (
{
hints = (
{
horizontal = 1;
place = "{-14, 163}";
type = Stem;
},
{
horizontal = 1;
place = "{551, 164}";
type = Stem;
},
{
place = "{36, 180}";
type = Stem;
},
{
place = "{606, 180}";
type = Stem;
}
);
layerId = "A096C860-9E6F-43F5-BF5F-7670645978FC";
paths = (
{
closed = 1;
nodes = (
"103 -101 LINE",
"238 -108 LINE",
"299 8 LINE",
"332 -5 OFFCURVE",
"368 -14 OFFCURVE",
"410 -14 CURVE SMOOTH",
"624 -14 OFFCURVE",
"786 151 OFFCURVE",
"786 352 CURVE SMOOTH",
"786 469 OFFCURVE",
"733 570 OFFCURVE",
"645 637 CURVE",
"720 778 LINE",
"584 784 LINE",
"533 691 LINE",
"496 706 OFFCURVE",
"456 715 OFFCURVE",
"411 715 CURVE SMOOTH",
"196 715 OFFCURVE",
"36 552 OFFCURVE",
"36 350 CURVE SMOOTH",
"36 229 OFFCURVE",
"93 124 OFFCURVE",
"186 58 CURVE"
);
},
{
closed = 1;
nodes = (
"265 213 LINE",
"236 246 OFFCURVE",
"220 289 OFFCURVE",
"217 335 CURVE",
"216 341 OFFCURVE",
"216 347 OFFCURVE",
"216 352 CURVE SMOOTH",
"216 448 OFFCURVE",
"274 530 OFFCURVE",
"365 550 CURVE SMOOTH",
"386 554 OFFCURVE",
"408 555 OFFCURVE",
"429 552 CURVE SMOOTH",
"439 550 OFFCURVE",
"448 548 OFFCURVE",
"457 545 CURVE"
);
},
{
closed = 1;
nodes = (
"476 329 LINE",
"564 478 LINE",
"590 442 OFFCURVE",
"606 398 OFFCURVE",
"606 350 CURVE SMOOTH",
"606 259 OFFCURVE",
"552 175 OFFCURVE",
"461 153 CURVE",
"446 150 OFFCURVE",
"430 148 OFFCURVE",
"415 149 CURVE",
"406 149 OFFCURVE",
"396 150 OFFCURVE",
"387 151 CURVE SMOOTH",
"382 152 OFFCURVE",
"380 154 OFFCURVE",
"376 156 CURVE"
);
}
);
width = 821;
}
);
unicode = 00D8;
},
{
glyphname = Ugrave;
layers = (
{
hints = (
{
horizontal = 1;
place = "{-13, 159}";
type = Stem;
},
{
horizontal = 1;
place = "{701, -20}";
target = down;
type = TopGhost;
},
{
place = "{56, 178}";
type = Stem;
},
{
place = "{514, 178}";
type = Stem;
}
);
layerId = "A096C860-9E6F-43F5-BF5F-7670645978FC";
paths = (
{
closed = 1;
nodes = (
"323 815 LINE",
"445 815 LINE",
"343 994 LINE",
"179 943 LINE"
);
},
{
closed = 1;
nodes = (
"569 -13 OFFCURVE",
"692 88 OFFCURVE",
"692 308 CURVE SMOOTH",
"692 701 LINE",
"514 701 LINE",
"514 303 LINE SMOOTH",
"514 195 OFFCURVE",
"461 146 OFFCURVE",
"374 146 CURVE SMOOTH",
"286 146 OFFCURVE",
"234 200 OFFCURVE",
"234 307 CURVE SMOOTH",
"234 701 LINE",
"56 701 LINE",
"56 303 LINE SMOOTH",
"56 90 OFFCURVE",
"175 -13 OFFCURVE",
"372 -13 CURVE SMOOTH"
);
}
);
width = 749;
}
);
unicode = 00D9;
},
{
glyphname = Uacute;
layers = (
{
hints = (
{
horizontal = 1;
place = "{-13, 159}";
type = Stem;
},
{
horizontal = 1;
place = "{701, -20}";
target = down;
type = TopGhost;
},
{
place = "{56, 178}";
type = Stem;
},
{
place = "{514, 178}";
type = Stem;
}
);
layerId = "A096C860-9E6F-43F5-BF5F-7670645978FC";
paths = (
{
closed = 1;
nodes = (
"309 781 LINE",
"430 781 LINE",
"574 909 LINE",
"411 960 LINE"
);
},
{
closed = 1;
nodes = (
"569 -13 OFFCURVE",
"692 88 OFFCURVE",
"692 308 CURVE SMOOTH",
"692 701 LINE",
"514 701 LINE",
"514 303 LINE SMOOTH",
"514 195 OFFCURVE",
"461 146 OFFCURVE",
"374 146 CURVE SMOOTH",
"286 146 OFFCURVE",
"234 200 OFFCURVE",
"234 307 CURVE SMOOTH",
"234 701 LINE",
"56 701 LINE",
"56 303 LINE SMOOTH",
"56 90 OFFCURVE",
"175 -13 OFFCURVE",
"372 -13 CURVE SMOOTH"
);
}
);
width = 749;
}
);
unicode = 00DA;
},
{
glyphname = Ucircumflex;
layers = (
{
hints = (
{
horizontal = 1;
place = "{-13, 159}";
type = Stem;
},
{
horizontal = 1;
place = "{701, -20}";
target = down;
type = TopGhost;
},
{
horizontal = 1;
place = "{780, 179}";
type = Stem;
},
{
place = "{56, 178}";
type = Stem;
},
{
place = "{514, 178}";
type = Stem;
}
);
layerId = "A096C860-9E6F-43F5-BF5F-7670645978FC";
paths = (
{
closed = 1;
nodes = (
"421 959 LINE",
"326 959 LINE",
"192 780 LINE",
"312 780 LINE",
"374 845 LINE",
"436 780 LINE",
"555 780 LINE"
);
},
{
closed = 1;
nodes = (
"569 -13 OFFCURVE",
"692 88 OFFCURVE",
"692 308 CURVE SMOOTH",
"692 701 LINE",
"514 701 LINE",
"514 303 LINE SMOOTH",
"514 195 OFFCURVE",
"461 146 OFFCURVE",
"374 146 CURVE SMOOTH",
"286 146 OFFCURVE",
"234 200 OFFCURVE",
"234 307 CURVE SMOOTH",
"234 701 LINE",
"56 701 LINE",
"56 303 LINE SMOOTH",
"56 90 OFFCURVE",
"175 -13 OFFCURVE",
"372 -13 CURVE SMOOTH"
);
}
);
width = 749;
}
);
unicode = 00DB;
},
{
glyphname = Udieresis;
layers = (
{
hints = (
{
place = "{56, 178}";
type = Stem;
},
{
place = "{179, 167}";
type = Stem;
},
{
place = "{399, 166}";
type = Stem;
},
{
place = "{514, 178}";
type = Stem;
},
{
horizontal = 1;
place = "{-13, 159}";
type = Stem;
},
{
horizontal = 1;
place = "{701, -20}";
target = down;
type = TopGhost;
},
{
horizontal = 1;
place = "{794, 162}";
type = Stem;
}
);
layerId = "A096C860-9E6F-43F5-BF5F-7670645978FC";
paths = (
{
closed = 1;
nodes = (
"179 823 OFFCURVE",
"216 794 OFFCURVE",
"262 794 CURVE SMOOTH",
"308 794 OFFCURVE",
"346 823 OFFCURVE",
"346 875 CURVE SMOOTH",
"346 927 OFFCURVE",
"308 956 OFFCURVE",
"262 956 CURVE SMOOTH",
"216 956 OFFCURVE",
"179 927 OFFCURVE",
"179 875 CURVE SMOOTH"
);
},
{
closed = 1;
nodes = (
"399 823 OFFCURVE",
"436 794 OFFCURVE",
"482 794 CURVE SMOOTH",
"529 794 OFFCURVE",
"565 823 OFFCURVE",
"565 875 CURVE SMOOTH",
"565 927 OFFCURVE",
"529 956 OFFCURVE",
"482 956 CURVE SMOOTH",
"436 956 OFFCURVE",
"399 927 OFFCURVE",
"399 875 CURVE SMOOTH"
);
},
{
closed = 1;
nodes = (
"569 -13 OFFCURVE",
"692 88 OFFCURVE",
"692 308 CURVE SMOOTH",
"692 701 LINE",
"514 701 LINE",
"514 303 LINE SMOOTH",
"514 195 OFFCURVE",
"461 146 OFFCURVE",
"374 146 CURVE SMOOTH",
"286 146 OFFCURVE",
"234 200 OFFCURVE",
"234 307 CURVE SMOOTH",
"234 701 LINE",
"56 701 LINE",
"56 303 LINE SMOOTH",
"56 90 OFFCURVE",
"175 -13 OFFCURVE",
"372 -13 CURVE SMOOTH"
);
}
);
width = 749;
}
);
unicode = 00DC;
},
{
glyphname = Yacute;
layers = (
{
hints = (
{
horizontal = 1;
place = "{0, 21}";
target = up;
type = BottomGhost;
},
{
horizontal = 1;
place = "{701, -20}";
target = down;
type = TopGhost;
},
{
place = "{261, 177}";
type = Stem;
}
);
layerId = "A096C860-9E6F-43F5-BF5F-7670645978FC";
paths = (
{
closed = 1;
nodes = (
"284 781 LINE",
"405 781 LINE",
"549 909 LINE",
"386 960 LINE"
);
},
{
closed = 1;
nodes = (
"438 268 LINE",
"704 701 LINE",
"508 701 LINE",
"351 431 LINE",
"195 701 LINE",
"-6 701 LINE",
"261 265 LINE",
"261 0 LINE",
"438 0 LINE"
);
}
);
width = 698;
}
);
unicode = 00DD;
},
{
glyphname = Thorn;
layers = (
{
hints = (
{
horizontal = 1;
place = "{0, 21}";
target = up;
type = BottomGhost;
},
{
horizontal = 1;
place = "{142, 134}";
type = Stem;
},
{
horizontal = 1;
place = "{458, 140}";
type = Stem;
},
{
horizontal = 1;
place = "{706, -20}";
target = down;
type = TopGhost;
},
{
place = "{62, 173}";
type = Stem;
},
{
place = "{385, 174}";
type = Stem;
}
);
layerId = "A096C860-9E6F-43F5-BF5F-7670645978FC";
paths = (
{
closed = 1;
nodes = (
"62 0 LINE",
"235 0 LINE",
"235 142 LINE",
"328 142 LINE SMOOTH",
"469 142 OFFCURVE",
"559 219 OFFCURVE",
"559 365 CURVE SMOOTH",
"559 531 OFFCURVE",
"447 598 OFFCURVE",
"294 598 CURVE SMOOTH",
"235 598 LINE",
"235 706 LINE",
"62 706 LINE"
);
},
{
closed = 1;
nodes = (
"235 276 LINE",
"235 458 LINE",
"261 458 LINE SMOOTH",
"326 458 OFFCURVE",
"385 450 OFFCURVE",
"385 370 CURVE SMOOTH",
"385 290 OFFCURVE",
"333 276 OFFCURVE",
"266 276 CURVE SMOOTH"
);
}
);
width = 583;
}
);
unicode = 00DE;
},
{
glyphname = germandbls;
layers = (
{
hints = (
{
place = "{8, 171}";
type = Stem;
},
{
place = "{347, 167}";
type = Stem;
},
{
place = "{379, 172}";
type = Stem;
},
{
horizontal = 1;
place = "{0, 121}";
type = Stem;
},
{
horizontal = 1;
place = "{-3, 21}";
target = up;
type = BottomGhost;
},
{
horizontal = 1;
place = "{597, 144}";
type = Stem;
}
);
layerId = "A096C860-9E6F-43F5-BF5F-7670645978FC";
paths = (
{
closed = 1;
nodes = (
"179 489 LINE SMOOTH",
"179 555 OFFCURVE",
"215 597 OFFCURVE",
"269 597 CURVE SMOOTH",
"315 597 OFFCURVE",
"347 566 OFFCURVE",
"347 515 CURVE SMOOTH",
"347 460 OFFCURVE",
"304 424 OFFCURVE",
"254 402 CURVE",
"254 308 LINE",
"330 301 OFFCURVE",
"379 270 OFFCURVE",
"379 213 CURVE SMOOTH",
"379 156 OFFCURVE",
"329 124 OFFCURVE",
"253 121 CURVE",
"253 -3 LINE",
"386 -14 OFFCURVE",
"551 44 OFFCURVE",
"551 197 CURVE SMOOTH",
"551 294 OFFCURVE",
"478 350 OFFCURVE",
"406 370 CURVE",
"467 399 OFFCURVE",
"514 454 OFFCURVE",
"514 537 CURVE SMOOTH",
"514 652 OFFCURVE",
"420 741 OFFCURVE",
"272 741 CURVE SMOOTH",
"98 741 OFFCURVE",
"8 637 OFFCURVE",
"8 486 CURVE SMOOTH",
"8 0 LINE",
"179 0 LINE"
);
}
);
width = 581;
}
);
unicode = 00DF;
},
{
glyphname = agrave;
layers = (
{
hints = (
{
horizontal = 1;
place = "{-12, 111}";
type = Stem;
},
{
horizontal = 1;
place = "{240, 88}";
type = Stem;
},
{
horizontal = 1;
place = "{407, 133}";
type = Stem;
},
{
place = "{30, 168}";
type = Stem;
},
{
place = "{377, 168}";
type = Stem;
}
);
layerId = "A096C860-9E6F-43F5-BF5F-7670645978FC";
paths = (
{
closed = 1;
nodes = (
"258 616 LINE",
"380 616 LINE",
"278 795 LINE",
"114 744 LINE"
);
},
{
closed = 1;
nodes = (
"545 -10 LINE",
"545 311 LINE SMOOTH",
"545 460 OFFCURVE",
"460 540 OFFCURVE",
"284 540 CURVE SMOOTH",
"198 540 OFFCURVE",
"134 522 OFFCURVE",
"74 498 CURVE",
"74 373 LINE",
"134 398 OFFCURVE",
"187 407 OFFCURVE",
"242 407 CURVE SMOOTH",
"330 407 OFFCURVE",
"377 381 OFFCURVE",
"377 316 CURVE SMOOTH",
"377 305 LINE",
"344 318 OFFCURVE",
"294 328 OFFCURVE",
"242 328 CURVE SMOOTH",
"121 328 OFFCURVE",
"30 274 OFFCURVE",
"30 159 CURVE SMOOTH",
"30 50 OFFCURVE",
"114 -12 OFFCURVE",
"217 -12 CURVE SMOOTH",
"288 -12 OFFCURVE",
"337 14 OFFCURVE",
"376 55 CURVE"
);
},
{
closed = 1;
nodes = (
"377 136 LINE",
"349 110 OFFCURVE",
"317 99 OFFCURVE",
"280 99 CURVE SMOOTH",
"236 99 OFFCURVE",
"198 126 OFFCURVE",
"198 169 CURVE SMOOTH",
"198 211 OFFCURVE",
"237 240 OFFCURVE",
"294 240 CURVE SMOOTH",
"328 240 OFFCURVE",
"357 232 OFFCURVE",
"377 222 CURVE"
);
}
);
width = 601;
}
);
unicode = 00E0;
},
{
glyphname = aacute;
layers = (
{
hints = (
{
horizontal = 1;
place = "{-12, 111}";
type = Stem;
},
{
horizontal = 1;
place = "{240, 88}";
type = Stem;
},
{
horizontal = 1;
place = "{407, 133}";
type = Stem;
},
{
place = "{30, 168}";
type = Stem;
},
{
place = "{377, 168}";
type = Stem;
}
);
layerId = "A096C860-9E6F-43F5-BF5F-7670645978FC";
paths = (
{
closed = 1;
nodes = (
"234 616 LINE",
"355 616 LINE",
"499 744 LINE",
"336 795 LINE"
);
},
{
closed = 1;
nodes = (
"545 -10 LINE",
"545 311 LINE SMOOTH",
"545 460 OFFCURVE",
"460 540 OFFCURVE",
"284 540 CURVE SMOOTH",
"198 540 OFFCURVE",
"134 522 OFFCURVE",
"74 498 CURVE",
"74 373 LINE",
"134 398 OFFCURVE",
"187 407 OFFCURVE",
"242 407 CURVE SMOOTH",
"330 407 OFFCURVE",
"377 381 OFFCURVE",
"377 316 CURVE SMOOTH",
"377 305 LINE",
"344 318 OFFCURVE",
"294 328 OFFCURVE",
"242 328 CURVE SMOOTH",
"121 328 OFFCURVE",
"30 274 OFFCURVE",
"30 159 CURVE SMOOTH",
"30 50 OFFCURVE",
"114 -12 OFFCURVE",
"217 -12 CURVE SMOOTH",
"288 -12 OFFCURVE",
"337 14 OFFCURVE",
"376 55 CURVE"
);
},
{
closed = 1;
nodes = (
"377 136 LINE",
"349 110 OFFCURVE",
"317 99 OFFCURVE",
"280 99 CURVE SMOOTH",
"236 99 OFFCURVE",
"198 126 OFFCURVE",
"198 169 CURVE SMOOTH",
"198 211 OFFCURVE",
"237 240 OFFCURVE",
"294 240 CURVE SMOOTH",
"328 240 OFFCURVE",
"357 232 OFFCURVE",
"377 222 CURVE"
);
}
);
width = 601;
}
);
unicode = 00E1;
},
{
glyphname = acircumflex;
layers = (
{
hints = (
{
horizontal = 1;
place = "{-12, 111}";
type = Stem;
},
{
horizontal = 1;
place = "{240, 88}";
type = Stem;
},
{
horizontal = 1;
place = "{407, 133}";
type = Stem;
},
{
horizontal = 1;
place = "{615, 179}";
type = Stem;
},
{
place = "{30, 168}";
type = Stem;
},
{
place = "{377, 168}";
type = Stem;
}
);
layerId = "A096C860-9E6F-43F5-BF5F-7670645978FC";
paths = (
{
closed = 1;
nodes = (
"343 794 LINE",
"248 794 LINE",
"114 615 LINE",
"234 615 LINE",
"296 680 LINE",
"358 615 LINE",
"477 615 LINE"
);
},
{
closed = 1;
nodes = (
"545 -10 LINE",
"545 311 LINE SMOOTH",
"545 460 OFFCURVE",
"460 540 OFFCURVE",
"284 540 CURVE SMOOTH",
"198 540 OFFCURVE",
"134 522 OFFCURVE",
"74 498 CURVE",
"74 373 LINE",
"134 398 OFFCURVE",
"187 407 OFFCURVE",
"242 407 CURVE SMOOTH",
"330 407 OFFCURVE",
"377 381 OFFCURVE",
"377 316 CURVE SMOOTH",
"377 305 LINE",
"344 318 OFFCURVE",
"294 328 OFFCURVE",
"242 328 CURVE SMOOTH",
"121 328 OFFCURVE",
"30 274 OFFCURVE",
"30 159 CURVE SMOOTH",
"30 50 OFFCURVE",
"114 -12 OFFCURVE",
"217 -12 CURVE SMOOTH",
"288 -12 OFFCURVE",
"337 14 OFFCURVE",
"376 55 CURVE"
);
},
{
closed = 1;
nodes = (
"377 136 LINE",
"349 110 OFFCURVE",
"317 99 OFFCURVE",
"280 99 CURVE SMOOTH",
"236 99 OFFCURVE",
"198 126 OFFCURVE",
"198 169 CURVE SMOOTH",
"198 211 OFFCURVE",
"237 240 OFFCURVE",
"294 240 CURVE SMOOTH",
"328 240 OFFCURVE",
"357 232 OFFCURVE",
"377 222 CURVE"
);
}
);
width = 601;
}
);
unicode = 00E2;
},
{
glyphname = atilde;
layers = (
{
hints = (
{
place = "{30, 168}";
type = Stem;
},
{
place = "{377, 168}";
type = Stem;
},
{
horizontal = 1;
place = "{-12, 111}";
type = Stem;
},
{
horizontal = 1;
place = "{240, 88}";
type = Stem;
},
{
horizontal = 1;
place = "{407, 133}";
type = Stem;
},
{
horizontal = 1;
place = "{604, 110}";
type = Stem;
},
{
horizontal = 1;
place = "{639, 111}";
type = Stem;
}
);
layerId = "A096C860-9E6F-43F5-BF5F-7670645978FC";
paths = (
{
closed = 1;
nodes = (
"216 592 LINE",
"227 628 OFFCURVE",
"238 639 OFFCURVE",
"254 639 CURVE SMOOTH",
"284 639 OFFCURVE",
"324 604 OFFCURVE",
"371 604 CURVE SMOOTH",
"432 604 OFFCURVE",
"468 660 OFFCURVE",
"491 742 CURVE",
"398 759 LINE",
"389 727 OFFCURVE",
"379 714 OFFCURVE",
"364 714 CURVE SMOOTH",
"336 714 OFFCURVE",
"292 750 OFFCURVE",
"244 750 CURVE SMOOTH",
"183 750 OFFCURVE",
"144 692 OFFCURVE",
"121 609 CURVE"
);
},
{
closed = 1;
nodes = (
"545 -10 LINE",
"545 311 LINE SMOOTH",
"545 460 OFFCURVE",
"460 540 OFFCURVE",
"284 540 CURVE SMOOTH",
"198 540 OFFCURVE",
"134 522 OFFCURVE",
"74 498 CURVE",
"74 373 LINE",
"134 398 OFFCURVE",
"187 407 OFFCURVE",
"242 407 CURVE SMOOTH",
"330 407 OFFCURVE",
"377 381 OFFCURVE",
"377 316 CURVE SMOOTH",
"377 305 LINE",
"344 318 OFFCURVE",
"294 328 OFFCURVE",
"242 328 CURVE SMOOTH",
"121 328 OFFCURVE",
"30 274 OFFCURVE",
"30 159 CURVE SMOOTH",
"30 50 OFFCURVE",
"114 -12 OFFCURVE",
"217 -12 CURVE SMOOTH",
"288 -12 OFFCURVE",
"337 14 OFFCURVE",
"376 55 CURVE"
);
},
{
closed = 1;
nodes = (
"377 136 LINE",
"349 110 OFFCURVE",
"317 99 OFFCURVE",
"280 99 CURVE SMOOTH",
"236 99 OFFCURVE",
"198 126 OFFCURVE",
"198 169 CURVE SMOOTH",
"198 211 OFFCURVE",
"237 240 OFFCURVE",
"294 240 CURVE SMOOTH",
"328 240 OFFCURVE",
"357 232 OFFCURVE",
"377 222 CURVE"
);
}
);
width = 601;
}
);
unicode = 00E3;
},
{
glyphname = adieresis;
layers = (
{
hints = (
{
place = "{30, 168}";
type = Stem;
},
{
place = "{114, 167}";
type = Stem;
},
{
place = "{334, 166}";
type = Stem;
},
{
place = "{377, 168}";
type = Stem;
},
{
horizontal = 1;
place = "{-12, 111}";
type = Stem;
},
{
horizontal = 1;
place = "{240, 88}";
type = Stem;
},
{
horizontal = 1;
place = "{407, 133}";
type = Stem;
},
{
horizontal = 1;
place = "{629, 162}";
type = Stem;
}
);
layerId = "A096C860-9E6F-43F5-BF5F-7670645978FC";
paths = (
{
closed = 1;
nodes = (
"114 658 OFFCURVE",
"151 629 OFFCURVE",
"197 629 CURVE SMOOTH",
"243 629 OFFCURVE",
"281 658 OFFCURVE",
"281 710 CURVE SMOOTH",
"281 762 OFFCURVE",
"243 791 OFFCURVE",
"197 791 CURVE SMOOTH",
"151 791 OFFCURVE",
"114 762 OFFCURVE",
"114 710 CURVE SMOOTH"
);
},
{
closed = 1;
nodes = (
"334 658 OFFCURVE",
"371 629 OFFCURVE",
"417 629 CURVE SMOOTH",
"464 629 OFFCURVE",
"500 658 OFFCURVE",
"500 710 CURVE SMOOTH",
"500 762 OFFCURVE",
"464 791 OFFCURVE",
"417 791 CURVE SMOOTH",
"371 791 OFFCURVE",
"334 762 OFFCURVE",
"334 710 CURVE SMOOTH"
);
},
{
closed = 1;
nodes = (
"545 -10 LINE",
"545 311 LINE SMOOTH",
"545 460 OFFCURVE",
"460 540 OFFCURVE",
"284 540 CURVE SMOOTH",
"198 540 OFFCURVE",
"134 522 OFFCURVE",
"74 498 CURVE",
"74 373 LINE",
"134 398 OFFCURVE",
"187 407 OFFCURVE",
"242 407 CURVE SMOOTH",
"330 407 OFFCURVE",
"377 381 OFFCURVE",
"377 316 CURVE SMOOTH",
"377 305 LINE",
"344 318 OFFCURVE",
"294 328 OFFCURVE",
"242 328 CURVE SMOOTH",
"121 328 OFFCURVE",
"30 274 OFFCURVE",
"30 159 CURVE SMOOTH",
"30 50 OFFCURVE",
"114 -12 OFFCURVE",
"217 -12 CURVE SMOOTH",
"288 -12 OFFCURVE",
"337 14 OFFCURVE",
"376 55 CURVE"
);
},
{
closed = 1;
nodes = (
"377 136 LINE",
"349 110 OFFCURVE",
"317 99 OFFCURVE",
"280 99 CURVE SMOOTH",
"236 99 OFFCURVE",
"198 126 OFFCURVE",
"198 169 CURVE SMOOTH",
"198 211 OFFCURVE",
"237 240 OFFCURVE",
"294 240 CURVE SMOOTH",
"328 240 OFFCURVE",
"357 232 OFFCURVE",
"377 222 CURVE"
);
}
);
width = 601;
}
);
unicode = 00E4;
},
{
glyphname = aring;
layers = (
{
hints = (
{
place = "{30, 168}";
type = Stem;
},
{
place = "{173, 90}";
type = Stem;
},
{
place = "{322, 90}";
type = Stem;
},
{
place = "{377, 168}";
type = Stem;
},
{
horizontal = 1;
place = "{-12, 111}";
type = Stem;
},
{
horizontal = 1;
place = "{240, 88}";
type = Stem;
},
{
horizontal = 1;
place = "{407, 133}";
type = Stem;
},
{
horizontal = 1;
place = "{592, 87}";
type = Stem;
},
{
horizontal = 1;
place = "{738, 87}";
type = Stem;
}
);
layerId = "A096C860-9E6F-43F5-BF5F-7670645978FC";
paths = (
{
closed = 1;
nodes = (
"412 773 OFFCURVE",
"358 825 OFFCURVE",
"292 825 CURVE SMOOTH",
"229 825 OFFCURVE",
"173 773 OFFCURVE",
"173 708 CURVE SMOOTH",
"173 642 OFFCURVE",
"229 592 OFFCURVE",
"292 592 CURVE SMOOTH",
"358 592 OFFCURVE",
"412 642 OFFCURVE",
"412 709 CURVE SMOOTH"
);
},
{
closed = 1;
nodes = (
"322 690 OFFCURVE",
"310 679 OFFCURVE",
"292 679 CURVE SMOOTH",
"276 679 OFFCURVE",
"263 691 OFFCURVE",
"263 709 CURVE SMOOTH",
"263 724 OFFCURVE",
"276 738 OFFCURVE",
"292 738 CURVE SMOOTH",
"310 738 OFFCURVE",
"322 724 OFFCURVE",
"322 708 CURVE SMOOTH"
);
},
{
closed = 1;
nodes = (
"545 -10 LINE",
"545 311 LINE SMOOTH",
"545 460 OFFCURVE",
"460 540 OFFCURVE",
"284 540 CURVE SMOOTH",
"198 540 OFFCURVE",
"134 522 OFFCURVE",
"74 498 CURVE",
"74 373 LINE",
"134 398 OFFCURVE",
"187 407 OFFCURVE",
"242 407 CURVE SMOOTH",
"330 407 OFFCURVE",
"377 381 OFFCURVE",
"377 316 CURVE SMOOTH",
"377 305 LINE",
"344 318 OFFCURVE",
"294 328 OFFCURVE",
"242 328 CURVE SMOOTH",
"121 328 OFFCURVE",
"30 274 OFFCURVE",
"30 159 CURVE SMOOTH",
"30 50 OFFCURVE",
"114 -12 OFFCURVE",
"217 -12 CURVE SMOOTH",
"288 -12 OFFCURVE",
"337 14 OFFCURVE",
"376 55 CURVE"
);
},
{
closed = 1;
nodes = (
"377 136 LINE",
"349 110 OFFCURVE",
"317 99 OFFCURVE",
"280 99 CURVE SMOOTH",
"236 99 OFFCURVE",
"198 126 OFFCURVE",
"198 169 CURVE SMOOTH",
"198 211 OFFCURVE",
"237 240 OFFCURVE",
"294 240 CURVE SMOOTH",
"328 240 OFFCURVE",
"357 232 OFFCURVE",
"377 222 CURVE"
);
}
);
width = 601;
}
);
unicode = 00E5;
},
{
glyphname = ae;
layers = (
{
hints = (
{
place = "{27, 167}";
type = Stem;
},
{
place = "{374, 174}";
type = Stem;
},
{
horizontal = 1;
place = "{-16, 127}";
type = Stem;
},
{
horizontal = 1;
place = "{-12, 111}";
type = Stem;
},
{
horizontal = 1;
place = "{240, 88}";
type = Stem;
},
{
horizontal = 1;
place = "{407, 132}";
type = Stem;
},
{
horizontal = 1;
place = "{410, 129}";
type = Stem;
}
);
layerId = "A096C860-9E6F-43F5-BF5F-7670645978FC";
paths = (
{
closed = 1;
nodes = (
"620 111 OFFCURVE",
"586 125 OFFCURVE",
"562 153 CURVE",
"920 244 LINE",
"918 399 OFFCURVE",
"828 539 OFFCURVE",
"658 539 CURVE SMOOTH",
"587 539 OFFCURVE",
"527 516 OFFCURVE",
"481 476 CURVE",
"440 518 OFFCURVE",
"374 538 OFFCURVE",
"286 539 CURVE",
"275 540 OFFCURVE",
"265 540 OFFCURVE",
"255 539 CURVE",
"182 536 OFFCURVE",
"125 520 OFFCURVE",
"71 498 CURVE",
"71 373 LINE",
"124 395 OFFCURVE",
"181 407 OFFCURVE",
"239 407 CURVE SMOOTH",
"327 407 OFFCURVE",
"374 381 OFFCURVE",
"374 316 CURVE SMOOTH",
"374 305 LINE",
"341 318 OFFCURVE",
"291 328 OFFCURVE",
"239 328 CURVE SMOOTH",
"126 328 OFFCURVE",
"39 282 OFFCURVE",
"28 184 CURVE",
"28 174 OFFCURVE",
"27 165 OFFCURVE",
"27 155 CURVE",
"29 50 OFFCURVE",
"109 -10 OFFCURVE",
"210 -12 CURVE",
"301 -12 OFFCURVE",
"396 2 OFFCURVE",
"473 53 CURVE",
"519 11 OFFCURVE",
"581 -15 OFFCURVE",
"657 -16 CURVE",
"731 -16 OFFCURVE",
"807 2 OFFCURVE",
"869 42 CURVE",
"869 180 LINE",
"820 136 OFFCURVE",
"732 111 OFFCURVE",
"665 111 CURVE SMOOTH"
);
},
{
closed = 1;
nodes = (
"549 268 LINE",
"548 268 LINE",
"544 333 OFFCURVE",
"575 410 OFFCURVE",
"649 410 CURVE SMOOTH",
"701 410 OFFCURVE",
"739 375 OFFCURVE",
"751 319 CURVE"
);
},
{
closed = 1;
nodes = (
"374 136 LINE",
"346 110 OFFCURVE",
"314 99 OFFCURVE",
"277 99 CURVE SMOOTH",
"233 99 OFFCURVE",
"195 126 OFFCURVE",
"195 169 CURVE SMOOTH",
"195 211 OFFCURVE",
"234 240 OFFCURVE",
"291 240 CURVE SMOOTH",
"325 240 OFFCURVE",
"354 232 OFFCURVE",
"374 222 CURVE"
);
}
);
width = 951;
}
);
unicode = 00E6;
},
{
glyphname = ccedilla;
layers = (
{
hints = (
{
place = "{30, 168}";
type = Stem;
},
{
place = "{308, 82}";
type = Stem;
},
{
horizontal = 1;
place = "{-242, 64}";
type = Stem;
},
{
horizontal = 1;
place = "{-121, 53}";
type = Stem;
},
{
horizontal = 1;
place = "{-12, 145}";
type = Stem;
},
{
horizontal = 1;
place = "{-12, 21}";
target = up;
type = BottomGhost;
},
{
horizontal = 1;
place = "{-8, 21}";
target = up;
type = BottomGhost;
},
{
horizontal = 1;
place = "{397, 145}";
type = Stem;
}
);
layerId = "A096C860-9E6F-43F5-BF5F-7670645978FC";
paths = (
{
closed = 1;
nodes = (
"430 523 LINE",
"398 537 OFFCURVE",
"352 542 OFFCURVE",
"314 542 CURVE SMOOTH",
"146 542 OFFCURVE",
"30 415 OFFCURVE",
"30 265 CURVE SMOOTH",
"30 128 OFFCURVE",
"127 15 OFFCURVE",
"261 -8 CURVE",
"198 -106 LINE",
"226 -130 LINE",
"242 -124 OFFCURVE",
"255 -121 OFFCURVE",
"269 -121 CURVE SMOOTH",
"293 -121 OFFCURVE",
"308 -130 OFFCURVE",
"308 -147 CURVE SMOOTH",
"308 -170 OFFCURVE",
"274 -178 OFFCURVE",
"253 -178 CURVE SMOOTH",
"235 -178 OFFCURVE",
"211 -175 OFFCURVE",
"185 -163 CURVE",
"162 -217 LINE",
"195 -233 OFFCURVE",
"231 -242 OFFCURVE",
"265 -242 CURVE SMOOTH",
"320 -242 OFFCURVE",
"390 -219 OFFCURVE",
"390 -148 CURVE SMOOTH",
"390 -93 OFFCURVE",
"342 -68 OFFCURVE",
"300 -68 CURVE SMOOTH",
"293 -68 LINE",
"328 -12 LINE",
"366 -10 OFFCURVE",
"405 -1 OFFCURVE",
"435 11 CURVE",
"435 173 LINE",
"401 144 OFFCURVE",
"364 133 OFFCURVE",
"329 133 CURVE SMOOTH",
"256 133 OFFCURVE",
"198 192 OFFCURVE",
"198 266 CURVE SMOOTH",
"198 340 OFFCURVE",
"251 397 OFFCURVE",
"326 397 CURVE SMOOTH",
"367 397 OFFCURVE",
"399 382 OFFCURVE",
"430 356 CURVE"
);
}
);
width = 473;
}
);
unicode = 00E7;
},
{
glyphname = egrave;
layers = (
{
hints = (
{
horizontal = 1;
place = "{-16, 127}";
type = Stem;
},
{
horizontal = 1;
place = "{410, 129}";
type = Stem;
},
{
place = "{30, 164}";
type = Stem;
}
);
layerId = "A096C860-9E6F-43F5-BF5F-7670645978FC";
paths = (
{
closed = 1;
nodes = (
"266 111 OFFCURVE",
"232 125 OFFCURVE",
"208 153 CURVE",
"566 244 LINE",
"563 399 OFFCURVE",
"474 539 OFFCURVE",
"304 539 CURVE SMOOTH",
"144 539 OFFCURVE",
"30 421 OFFCURVE",
"30 264 CURVE SMOOTH",
"30 102 OFFCURVE",
"144 -16 OFFCURVE",
"307 -16 CURVE SMOOTH",
"368 -16 OFFCURVE",
"450 -1 OFFCURVE",
"515 42 CURVE",
"515 180 LINE",
"466 136 OFFCURVE",
"378 111 OFFCURVE",
"310 111 CURVE SMOOTH"
);
},
{
closed = 1;
nodes = (
"194 270 LINE SMOOTH",
"194 335 OFFCURVE",
"221 410 OFFCURVE",
"295 410 CURVE SMOOTH",
"347 410 OFFCURVE",
"384 375 OFFCURVE",
"397 319 CURVE",
"194 267 LINE"
);
}
);
width = 596;
}
);
unicode = 00E8;
},
{
glyphname = eacute;
layers = (
{
hints = (
{
horizontal = 1;
place = "{-16, 127}";
type = Stem;
},
{
horizontal = 1;
place = "{410, 129}";
type = Stem;
},
{
place = "{30, 164}";
type = Stem;
}
);
layerId = "A096C860-9E6F-43F5-BF5F-7670645978FC";
paths = (
{
closed = 1;
nodes = (
"266 111 OFFCURVE",
"232 125 OFFCURVE",
"208 153 CURVE",
"566 244 LINE",
"563 399 OFFCURVE",
"474 539 OFFCURVE",
"304 539 CURVE SMOOTH",
"144 539 OFFCURVE",
"30 421 OFFCURVE",
"30 264 CURVE SMOOTH",
"30 102 OFFCURVE",
"144 -16 OFFCURVE",
"307 -16 CURVE SMOOTH",
"368 -16 OFFCURVE",
"450 -1 OFFCURVE",
"515 42 CURVE",
"515 180 LINE",
"466 136 OFFCURVE",
"378 111 OFFCURVE",
"310 111 CURVE SMOOTH"
);
},
{
closed = 1;
nodes = (
"194 270 LINE SMOOTH",
"194 335 OFFCURVE",
"221 410 OFFCURVE",
"295 410 CURVE SMOOTH",
"347 410 OFFCURVE",
"384 375 OFFCURVE",
"397 319 CURVE",
"194 267 LINE"
);
}
);
width = 596;
}
);
unicode = 00E9;
},
{
glyphname = ecircumflex;
layers = (
{
hints = (
{
horizontal = 1;
place = "{-16, 127}";
type = Stem;
},
{
horizontal = 1;
place = "{410, 129}";
type = Stem;
},
{
horizontal = 1;
place = "{615, 179}";
type = Stem;
},
{
place = "{30, 164}";
type = Stem;
}
);
layerId = "A096C860-9E6F-43F5-BF5F-7670645978FC";
paths = (
{
closed = 1;
nodes = (
"351 794 LINE",
"256 794 LINE",
"122 615 LINE",
"242 615 LINE",
"304 680 LINE",
"366 615 LINE",
"485 615 LINE"
);
},
{
closed = 1;
nodes = (
"266 111 OFFCURVE",
"232 125 OFFCURVE",
"208 153 CURVE",
"566 244 LINE",
"563 399 OFFCURVE",
"474 539 OFFCURVE",
"304 539 CURVE SMOOTH",
"144 539 OFFCURVE",
"30 421 OFFCURVE",
"30 264 CURVE SMOOTH",
"30 102 OFFCURVE",
"144 -16 OFFCURVE",
"307 -16 CURVE SMOOTH",
"368 -16 OFFCURVE",
"450 -1 OFFCURVE",
"515 42 CURVE",
"515 180 LINE",
"466 136 OFFCURVE",
"378 111 OFFCURVE",
"310 111 CURVE SMOOTH"
);
},
{
closed = 1;
nodes = (
"194 270 LINE SMOOTH",
"194 335 OFFCURVE",
"221 410 OFFCURVE",
"295 410 CURVE SMOOTH",
"347 410 OFFCURVE",
"384 375 OFFCURVE",
"397 319 CURVE",
"194 267 LINE"
);
}
);
width = 596;
}
);
unicode = 00EA;
},
{
glyphname = edieresis;
layers = (
{
hints = (
{
horizontal = 1;
place = "{-16, 127}";
type = Stem;
},
{
horizontal = 1;
place = "{410, 129}";
type = Stem;
},
{
place = "{30, 164}";
type = Stem;
}
);
layerId = "A096C860-9E6F-43F5-BF5F-7670645978FC";
paths = (
{
closed = 1;
nodes = (
"266 111 OFFCURVE",
"232 125 OFFCURVE",
"208 153 CURVE",
"566 244 LINE",
"563 399 OFFCURVE",
"474 539 OFFCURVE",
"304 539 CURVE SMOOTH",
"144 539 OFFCURVE",
"30 421 OFFCURVE",
"30 264 CURVE SMOOTH",
"30 102 OFFCURVE",
"144 -16 OFFCURVE",
"307 -16 CURVE SMOOTH",
"368 -16 OFFCURVE",
"450 -1 OFFCURVE",
"515 42 CURVE",
"515 180 LINE",
"466 136 OFFCURVE",
"378 111 OFFCURVE",
"310 111 CURVE SMOOTH"
);
},
{
closed = 1;
nodes = (
"194 270 LINE SMOOTH",
"194 335 OFFCURVE",
"221 410 OFFCURVE",
"295 410 CURVE SMOOTH",
"347 410 OFFCURVE",
"384 375 OFFCURVE",
"397 319 CURVE",
"194 267 LINE"
);
}
);
width = 596;
}
);
unicode = 00EB;
},
{
glyphname = igrave;
layers = (
{
hints = (
{
horizontal = 1;
place = "{0, 21}";
target = up;
type = BottomGhost;
},
{
place = "{69, 172}";
type = Stem;
}
);
layerId = "A096C860-9E6F-43F5-BF5F-7670645978FC";
paths = (
{
closed = 1;
nodes = (
"241 531 LINE",
"69 531 LINE",
"69 0 LINE",
"241 0 LINE"
);
}
);
width = 293;
}
);
unicode = 00EC;
},
{
glyphname = iacute;
layers = (
{
hints = (
{
horizontal = 1;
place = "{0, 21}";
target = up;
type = BottomGhost;
},
{
place = "{42, 172}";
type = Stem;
}
);
layerId = "A096C860-9E6F-43F5-BF5F-7670645978FC";
paths = (
{
closed = 1;
nodes = (
"214 531 LINE",
"42 531 LINE",
"42 0 LINE",
"214 0 LINE"
);
}
);
width = 308;
}
);
unicode = 00ED;
},
{
glyphname = icircumflex;
layers = (
{
hints = (
{
horizontal = 1;
place = "{0, 21}";
target = up;
type = BottomGhost;
},
{
horizontal = 1;
place = "{615, 179}";
type = Stem;
},
{
place = "{50, 172}";
type = Stem;
}
);
layerId = "A096C860-9E6F-43F5-BF5F-7670645978FC";
paths = (
{
closed = 1;
nodes = (
"183 794 LINE",
"88 794 LINE",
"-47 615 LINE",
"74 615 LINE",
"136 680 LINE",
"198 615 LINE",
"317 615 LINE"
);
},
{
closed = 1;
nodes = (
"222 531 LINE",
"50 531 LINE",
"50 0 LINE",
"222 0 LINE"
);
}
);
width = 271;
}
);
unicode = 00EE;
},
{
glyphname = idieresis;
layers = (
{
hints = (
{
horizontal = 1;
place = "{0, 21}";
target = up;
type = BottomGhost;
},
{
place = "{58, 172}";
type = Stem;
}
);
layerId = "A096C860-9E6F-43F5-BF5F-7670645978FC";
paths = (
{
closed = 1;
nodes = (
"230 531 LINE",
"58 531 LINE",
"58 0 LINE",
"230 0 LINE"
);
}
);
width = 289;
}
);
unicode = 00EF;
},
{
glyphname = eth;
layers = (
{
hints = (
{
horizontal = 1;
place = "{-13, 163}";
type = Stem;
},
{
horizontal = 1;
place = "{323, 155}";
type = Stem;
},
{
horizontal = 1;
place = "{709, -20}";
target = down;
type = TopGhost;
},
{
horizontal = 1;
place = "{713, -20}";
target = down;
type = TopGhost;
},
{
place = "{31, 187}";
type = Stem;
},
{
place = "{375, 185}";
type = Stem;
}
);
layerId = "A096C860-9E6F-43F5-BF5F-7670645978FC";
paths = (
{
closed = 1;
nodes = (
"101 713 LINE",
"138 686 OFFCURVE",
"165 667 OFFCURVE",
"194 642 CURVE",
"81 577 LINE",
"135 521 LINE",
"253 591 LINE",
"295 550 OFFCURVE",
"330 509 OFFCURVE",
"359 457 CURVE",
"342 465 OFFCURVE",
"314 478 OFFCURVE",
"270 478 CURVE SMOOTH",
"143 478 OFFCURVE",
"31 385 OFFCURVE",
"31 236 CURVE SMOOTH",
"31 73 OFFCURVE",
"165 -13 OFFCURVE",
"295 -13 CURVE SMOOTH",
"414 -13 OFFCURVE",
"560 62 OFFCURVE",
"560 263 CURVE SMOOTH",
"560 422 OFFCURVE",
"483 555 OFFCURVE",
"371 658 CURVE",
"482 724 LINE",
"429 779 LINE",
"313 709 LINE",
"276 741 OFFCURVE",
"250 762 OFFCURVE",
"209 786 CURVE"
);
},
{
closed = 1;
nodes = (
"278 322 OFFCURVE",
"287 323 OFFCURVE",
"294 323 CURVE SMOOTH",
"329 323 OFFCURVE",
"357 297 OFFCURVE",
"370 262 CURVE SMOOTH",
"385 219 OFFCURVE",
"365 168 OFFCURVE",
"322 154 CURVE SMOOTH",
"314 151 OFFCURVE",
"305 150 OFFCURVE",
"297 150 CURVE SMOOTH",
"264 150 OFFCURVE",
"235 173 OFFCURVE",
"223 208 CURVE SMOOTH",
"209 251 OFFCURVE",
"227 303 OFFCURVE",
"270 319 CURVE SMOOTH"
);
}
);
width = 591;
}
);
unicode = 00F0;
},
{
glyphname = ntilde;
layers = (
{
hints = (
{
horizontal = 1;
place = "{0, 21}";
target = up;
type = BottomGhost;
},
{
horizontal = 1;
place = "{390, 153}";
type = Stem;
},
{
place = "{53, 172}";
type = Stem;
},
{
place = "{397, 172}";
type = Stem;
}
);
layerId = "A096C860-9E6F-43F5-BF5F-7670645978FC";
paths = (
{
closed = 1;
nodes = (
"311 543 OFFCURVE",
"261 502 OFFCURVE",
"226 458 CURVE",
"53 531 LINE",
"53 0 LINE",
"225 0 LINE",
"225 291 LINE SMOOTH",
"225 358 OFFCURVE",
"269 390 OFFCURVE",
"314 390 CURVE SMOOTH",
"359 390 OFFCURVE",
"397 358 OFFCURVE",
"397 291 CURVE SMOOTH",
"397 0 LINE",
"569 0 LINE",
"569 346 LINE SMOOTH",
"569 469 OFFCURVE",
"492 543 OFFCURVE",
"387 543 CURVE SMOOTH"
);
}
);
width = 620;
}
);
unicode = 00F1;
},
{
glyphname = ograve;
layers = (
{
hints = (
{
horizontal = 1;
place = "{-13, 146}";
type = Stem;
},
{
horizontal = 1;
place = "{398, 145}";
type = Stem;
},
{
place = "{30, 168}";
type = Stem;
},
{
place = "{447, 168}";
type = Stem;
}
);
layerId = "A096C860-9E6F-43F5-BF5F-7670645978FC";
paths = (
{
closed = 1;
nodes = (
"615 420 OFFCURVE",
"492 543 OFFCURVE",
"323 543 CURVE SMOOTH",
"154 543 OFFCURVE",
"30 418 OFFCURVE",
"30 265 CURVE SMOOTH",
"30 112 OFFCURVE",
"153 -13 OFFCURVE",
"321 -13 CURVE SMOOTH",
"491 -13 OFFCURVE",
"615 115 OFFCURVE",
"615 267 CURVE SMOOTH"
);
},
{
closed = 1;
nodes = (
"447 195 OFFCURVE",
"398 133 OFFCURVE",
"323 133 CURVE SMOOTH",
"251 133 OFFCURVE",
"198 194 OFFCURVE",
"198 267 CURVE SMOOTH",
"198 338 OFFCURVE",
"247 398 OFFCURVE",
"321 398 CURVE SMOOTH",
"395 398 OFFCURVE",
"447 337 OFFCURVE",
"447 265 CURVE SMOOTH"
);
}
);
width = 645;
}
);
unicode = 00F2;
},
{
glyphname = oacute;
layers = (
{
hints = (
{
horizontal = 1;
place = "{-13, 146}";
type = Stem;
},
{
horizontal = 1;
place = "{398, 145}";
type = Stem;
},
{
place = "{30, 168}";
type = Stem;
},
{
place = "{447, 168}";
type = Stem;
}
);
layerId = "A096C860-9E6F-43F5-BF5F-7670645978FC";
paths = (
{
closed = 1;
nodes = (
"615 420 OFFCURVE",
"492 543 OFFCURVE",
"323 543 CURVE SMOOTH",
"154 543 OFFCURVE",
"30 418 OFFCURVE",
"30 265 CURVE SMOOTH",
"30 112 OFFCURVE",
"153 -13 OFFCURVE",
"321 -13 CURVE SMOOTH",
"491 -13 OFFCURVE",
"615 115 OFFCURVE",
"615 267 CURVE SMOOTH"
);
},
{
closed = 1;
nodes = (
"447 195 OFFCURVE",
"398 133 OFFCURVE",
"323 133 CURVE SMOOTH",
"251 133 OFFCURVE",
"198 194 OFFCURVE",
"198 267 CURVE SMOOTH",
"198 338 OFFCURVE",
"247 398 OFFCURVE",
"321 398 CURVE SMOOTH",
"395 398 OFFCURVE",
"447 337 OFFCURVE",
"447 265 CURVE SMOOTH"
);
}
);
width = 645;
}
);
unicode = 00F3;
},
{
glyphname = ocircumflex;
layers = (
{
hints = (
{
horizontal = 1;
place = "{-13, 146}";
type = Stem;
},
{
horizontal = 1;
place = "{398, 145}";
type = Stem;
},
{
horizontal = 1;
place = "{615, 179}";
type = Stem;
},
{
place = "{30, 168}";
type = Stem;
},
{
place = "{447, 168}";
type = Stem;
}
);
layerId = "A096C860-9E6F-43F5-BF5F-7670645978FC";
paths = (
{
closed = 1;
nodes = (
"372 794 LINE",
"277 794 LINE",
"143 615 LINE",
"263 615 LINE",
"325 680 LINE",
"387 615 LINE",
"506 615 LINE"
);
},
{
closed = 1;
nodes = (
"615 420 OFFCURVE",
"492 543 OFFCURVE",
"323 543 CURVE SMOOTH",
"154 543 OFFCURVE",
"30 418 OFFCURVE",
"30 265 CURVE SMOOTH",
"30 112 OFFCURVE",
"153 -13 OFFCURVE",
"321 -13 CURVE SMOOTH",
"491 -13 OFFCURVE",
"615 115 OFFCURVE",
"615 267 CURVE SMOOTH"
);
},
{
closed = 1;
nodes = (
"447 195 OFFCURVE",
"398 133 OFFCURVE",
"323 133 CURVE SMOOTH",
"251 133 OFFCURVE",
"198 194 OFFCURVE",
"198 267 CURVE SMOOTH",
"198 338 OFFCURVE",
"247 398 OFFCURVE",
"321 398 CURVE SMOOTH",
"395 398 OFFCURVE",
"447 337 OFFCURVE",
"447 265 CURVE SMOOTH"
);
}
);
width = 645;
}
);
unicode = 00F4;
},
{
glyphname = otilde;
layers = (
{
hints = (
{
horizontal = 1;
place = "{-13, 146}";
type = Stem;
},
{
horizontal = 1;
place = "{398, 145}";
type = Stem;
},
{
place = "{30, 168}";
type = Stem;
},
{
place = "{447, 168}";
type = Stem;
}
);
layerId = "A096C860-9E6F-43F5-BF5F-7670645978FC";
paths = (
{
closed = 1;
nodes = (
"615 420 OFFCURVE",
"492 543 OFFCURVE",
"323 543 CURVE SMOOTH",
"154 543 OFFCURVE",
"30 418 OFFCURVE",
"30 265 CURVE SMOOTH",
"30 112 OFFCURVE",
"153 -13 OFFCURVE",
"321 -13 CURVE SMOOTH",
"491 -13 OFFCURVE",
"615 115 OFFCURVE",
"615 267 CURVE SMOOTH"
);
},
{
closed = 1;
nodes = (
"447 195 OFFCURVE",
"398 133 OFFCURVE",
"323 133 CURVE SMOOTH",
"251 133 OFFCURVE",
"198 194 OFFCURVE",
"198 267 CURVE SMOOTH",
"198 338 OFFCURVE",
"247 398 OFFCURVE",
"321 398 CURVE SMOOTH",
"395 398 OFFCURVE",
"447 337 OFFCURVE",
"447 265 CURVE SMOOTH"
);
}
);
width = 645;
}
);
unicode = 00F5;
},
{
glyphname = odieresis;
layers = (
{
hints = (
{
horizontal = 1;
place = "{-13, 146}";
type = Stem;
},
{
horizontal = 1;
place = "{398, 145}";
type = Stem;
},
{
place = "{30, 168}";
type = Stem;
},
{
place = "{447, 168}";
type = Stem;
}
);
layerId = "A096C860-9E6F-43F5-BF5F-7670645978FC";
paths = (
{
closed = 1;
nodes = (
"615 420 OFFCURVE",
"492 543 OFFCURVE",
"323 543 CURVE SMOOTH",
"154 543 OFFCURVE",
"30 418 OFFCURVE",
"30 265 CURVE SMOOTH",
"30 112 OFFCURVE",
"153 -13 OFFCURVE",
"321 -13 CURVE SMOOTH",
"491 -13 OFFCURVE",
"615 115 OFFCURVE",
"615 267 CURVE SMOOTH"
);
},
{
closed = 1;
nodes = (
"447 195 OFFCURVE",
"398 133 OFFCURVE",
"323 133 CURVE SMOOTH",
"251 133 OFFCURVE",
"198 194 OFFCURVE",
"198 267 CURVE SMOOTH",
"198 338 OFFCURVE",
"247 398 OFFCURVE",
"321 398 CURVE SMOOTH",
"395 398 OFFCURVE",
"447 337 OFFCURVE",
"447 265 CURVE SMOOTH"
);
}
);
width = 645;
}
);
unicode = 00F6;
},
{
glyphname = divide;
layers = (
{
hints = (
{
horizontal = 1;
place = "{129, 140}";
type = Stem;
},
{
horizontal = 1;
place = "{305, 94}";
type = Stem;
},
{
horizontal = 1;
place = "{436, 140}";
type = Stem;
},
{
place = "{264, 144}";
type = Stem;
}
);
layerId = "A096C860-9E6F-43F5-BF5F-7670645978FC";
paths = (
{
closed = 1;
nodes = (
"408 543 OFFCURVE",
"379 576 OFFCURVE",
"336 576 CURVE SMOOTH",
"294 576 OFFCURVE",
"264 543 OFFCURVE",
"264 506 CURVE SMOOTH",
"264 468 OFFCURVE",
"294 436 OFFCURVE",
"336 436 CURVE SMOOTH",
"379 436 OFFCURVE",
"408 468 OFFCURVE",
"408 506 CURVE SMOOTH"
);
},
{
closed = 1;
nodes = (
"596 399 LINE",
"75 399 LINE",
"75 305 LINE",
"596 305 LINE"
);
},
{
closed = 1;
nodes = (
"408 239 OFFCURVE",
"379 269 OFFCURVE",
"336 269 CURVE SMOOTH",
"294 269 OFFCURVE",
"264 239 OFFCURVE",
"264 201 CURVE SMOOTH",
"264 162 OFFCURVE",
"294 129 OFFCURVE",
"336 129 CURVE SMOOTH",
"379 129 OFFCURVE",
"408 162 OFFCURVE",
"408 201 CURVE SMOOTH"
);
}
);
width = 672;
}
);
unicode = 00F7;
},
{
glyphname = oslash;
layers = (
{
hints = (
{
place = "{43, 161}";
type = Stem;
},
{
place = "{464, 161}";
type = Stem;
},
{
horizontal = 1;
place = "{-13, 139}";
type = Stem;
},
{
horizontal = 1;
place = "{-4, 21}";
target = up;
type = BottomGhost;
},
{
horizontal = 1;
place = "{403, 138}";
type = Stem;
}
);
layerId = "A096C860-9E6F-43F5-BF5F-7670645978FC";
paths = (
{
closed = 1;
nodes = (
"28 -4 LINE",
"92 -64 LINE",
"180 27 LINE",
"224 2 OFFCURVE",
"275 -13 OFFCURVE",
"333 -13 CURVE SMOOTH",
"501 -13 OFFCURVE",
"625 112 OFFCURVE",
"625 264 CURVE SMOOTH",
"625 336 OFFCURVE",
"600 397 OFFCURVE",
"559 445 CURVE",
"636 530 LINE",
"560 588 LINE",
"486 502 LINE",
"443 528 OFFCURVE",
"391 541 OFFCURVE",
"334 541 CURVE SMOOTH",
"166 541 OFFCURVE",
"43 417 OFFCURVE",
"43 264 CURVE SMOOTH",
"43 194 OFFCURVE",
"67 134 OFFCURVE",
"109 85 CURVE"
);
},
{
closed = 1;
nodes = (
"217 203 LINE",
"207 221 OFFCURVE",
"204 241 OFFCURVE",
"204 264 CURVE SMOOTH",
"204 340 OFFCURVE",
"254 403 OFFCURVE",
"333 403 CURVE SMOOTH",
"354 403 OFFCURVE",
"373 399 OFFCURVE",
"388 390 CURVE"
);
},
{
closed = 1;
nodes = (
"451 326 LINE",
"460 307 OFFCURVE",
"464 287 OFFCURVE",
"464 264 CURVE SMOOTH",
"464 188 OFFCURVE",
"413 126 OFFCURVE",
"334 126 CURVE SMOOTH",
"314 126 OFFCURVE",
"296 130 OFFCURVE",
"280 138 CURVE"
);
}
);
width = 664;
}
);
unicode = 00F8;
},
{
glyphname = ugrave;
layers = (
{
hints = (
{
horizontal = 1;
place = "{-12, 153}";
type = Stem;
},
{
place = "{50, 172}";
type = Stem;
},
{
place = "{393, 172}";
type = Stem;
}
);
layerId = "A096C860-9E6F-43F5-BF5F-7670645978FC";
paths = (
{
closed = 1;
nodes = (
"308 -12 OFFCURVE",
"361 21 OFFCURVE",
"393 62 CURVE",
"565 -10 LINE",
"565 531 LINE",
"393 531 LINE",
"393 241 LINE SMOOTH",
"393 173 OFFCURVE",
"353 141 OFFCURVE",
"306 141 CURVE SMOOTH",
"258 141 OFFCURVE",
"222 173 OFFCURVE",
"222 241 CURVE SMOOTH",
"222 531 LINE",
"50 531 LINE",
"50 186 LINE SMOOTH",
"50 61 OFFCURVE",
"118 -12 OFFCURVE",
"232 -12 CURVE SMOOTH"
);
}
);
width = 615;
}
);
unicode = 00F9;
},
{
glyphname = uacute;
layers = (
{
hints = (
{
horizontal = 1;
place = "{-12, 153}";
type = Stem;
},
{
place = "{50, 172}";
type = Stem;
},
{
place = "{393, 172}";
type = Stem;
}
);
layerId = "A096C860-9E6F-43F5-BF5F-7670645978FC";
paths = (
{
closed = 1;
nodes = (
"308 -12 OFFCURVE",
"361 21 OFFCURVE",
"393 62 CURVE",
"565 -10 LINE",
"565 531 LINE",
"393 531 LINE",
"393 241 LINE SMOOTH",
"393 173 OFFCURVE",
"353 141 OFFCURVE",
"306 141 CURVE SMOOTH",
"258 141 OFFCURVE",
"222 173 OFFCURVE",
"222 241 CURVE SMOOTH",
"222 531 LINE",
"50 531 LINE",
"50 186 LINE SMOOTH",
"50 61 OFFCURVE",
"118 -12 OFFCURVE",
"232 -12 CURVE SMOOTH"
);
}
);
width = 615;
}
);
unicode = 00FA;
},
{
glyphname = ucircumflex;
layers = (
{
hints = (
{
horizontal = 1;
place = "{-12, 153}";
type = Stem;
},
{
horizontal = 1;
place = "{615, 179}";
type = Stem;
},
{
place = "{50, 172}";
type = Stem;
},
{
place = "{393, 172}";
type = Stem;
}
);
layerId = "A096C860-9E6F-43F5-BF5F-7670645978FC";
paths = (
{
closed = 1;
nodes = (
"355 794 LINE",
"260 794 LINE",
"126 615 LINE",
"246 615 LINE",
"308 680 LINE",
"370 615 LINE",
"489 615 LINE"
);
},
{
closed = 1;
nodes = (
"308 -12 OFFCURVE",
"361 21 OFFCURVE",
"393 62 CURVE",
"565 -10 LINE",
"565 531 LINE",
"393 531 LINE",
"393 241 LINE SMOOTH",
"393 173 OFFCURVE",
"353 141 OFFCURVE",
"306 141 CURVE SMOOTH",
"258 141 OFFCURVE",
"222 173 OFFCURVE",
"222 241 CURVE SMOOTH",
"222 531 LINE",
"50 531 LINE",
"50 186 LINE SMOOTH",
"50 61 OFFCURVE",
"118 -12 OFFCURVE",
"232 -12 CURVE SMOOTH"
);
}
);
width = 615;
}
);
unicode = 00FB;
},
{
glyphname = udieresis;
layers = (
{
hints = (
{
horizontal = 1;
place = "{-12, 153}";
type = Stem;
},
{
place = "{50, 172}";
type = Stem;
},
{
place = "{393, 172}";
type = Stem;
}
);
layerId = "A096C860-9E6F-43F5-BF5F-7670645978FC";
paths = (
{
closed = 1;
nodes = (
"308 -12 OFFCURVE",
"361 21 OFFCURVE",
"393 62 CURVE",
"565 -10 LINE",
"565 531 LINE",
"393 531 LINE",
"393 241 LINE SMOOTH",
"393 173 OFFCURVE",
"353 141 OFFCURVE",
"306 141 CURVE SMOOTH",
"258 141 OFFCURVE",
"222 173 OFFCURVE",
"222 241 CURVE SMOOTH",
"222 531 LINE",
"50 531 LINE",
"50 186 LINE SMOOTH",
"50 61 OFFCURVE",
"118 -12 OFFCURVE",
"232 -12 CURVE SMOOTH"
);
}
);
width = 615;
}
);
unicode = 00FC;
},
{
glyphname = yacute;
layers = (
{
hints = (
{
horizontal = 1;
place = "{-165, 21}";
target = up;
type = BottomGhost;
},
{
place = "{-6, 585}";
type = Stem;
}
);
layerId = "A096C860-9E6F-43F5-BF5F-7670645978FC";
paths = (
{
closed = 1;
nodes = (
"221 -5 LINE",
"168 -165 LINE",
"315 -165 LINE",
"579 531 LINE",
"403 531 LINE",
"293 179 LINE",
"175 531 LINE",
"-6 531 LINE"
);
}
);
width = 574;
}
);
unicode = 00FD;
},
{
glyphname = thorn;
layers = (
{
hints = (
{
horizontal = 1;
place = "{-12, 138}";
type = Stem;
},
{
horizontal = 1;
place = "{346, 139}";
type = Stem;
},
{
place = "{55, 167}";
type = Stem;
},
{
place = "{403, 167}";
type = Stem;
}
);
layerId = "A096C860-9E6F-43F5-BF5F-7670645978FC";
paths = (
{
closed = 1;
nodes = (
"55 -229 LINE",
"222 -229 LINE",
"222 -19 LINE",
"218 56 LINE",
"222 56 LINE",
"243 22 OFFCURVE",
"286 -1 OFFCURVE",
"328 -9 CURVE SMOOTH",
"342 -11 OFFCURVE",
"355 -13 OFFCURVE",
"367 -12 CURVE",
"498 -9 OFFCURVE",
"570 119 OFFCURVE",
"570 239 CURVE SMOOTH",
"570 360 OFFCURVE",
"499 481 OFFCURVE",
"369 485 CURVE",
"354 485 OFFCURVE",
"340 483 OFFCURVE",
"324 480 CURVE",
"278 467 OFFCURVE",
"239 439 OFFCURVE",
"217 411 CURVE",
"218 434 OFFCURVE",
"219 457 OFFCURVE",
"220 481 CURVE",
"220 511 OFFCURVE",
"220 541 OFFCURVE",
"222 570 CURVE",
"222 775 LINE",
"55 775 LINE"
);
},
{
closed = 1;
nodes = (
"248 126 OFFCURVE",
"212 181 OFFCURVE",
"212 238 CURVE SMOOTH",
"212 291 OFFCURVE",
"248 346 OFFCURVE",
"306 346 CURVE SMOOTH",
"366 346 OFFCURVE",
"403 293 OFFCURVE",
"403 238 CURVE SMOOTH",
"403 183 OFFCURVE",
"367 126 OFFCURVE",
"306 126 CURVE SMOOTH"
);
}
);
width = 600;
}
);
unicode = 00FE;
},
{
glyphname = ydieresis;
layers = (
{
hints = (
{
horizontal = 1;
place = "{-165, 21}";
target = up;
type = BottomGhost;
},
{
place = "{-6, 585}";
type = Stem;
}
);
layerId = "A096C860-9E6F-43F5-BF5F-7670645978FC";
paths = (
{
closed = 1;
nodes = (
"221 -5 LINE",
"168 -165 LINE",
"315 -165 LINE",
"579 531 LINE",
"403 531 LINE",
"293 179 LINE",
"175 531 LINE",
"-6 531 LINE"
);
}
);
width = 574;
}
);
unicode = 00FF;
},
{
glyphname = Amacron;
layers = (
{
hints = (
{
horizontal = 1;
place = "{0, 21}";
target = up;
type = BottomGhost;
},
{
horizontal = 1;
place = "{137, 138}";
type = Stem;
},
{
horizontal = 1;
place = "{705, -20}";
target = down;
type = TopGhost;
},
{
horizontal = 1;
place = "{749, 107}";
type = Stem;
},
{
place = "{-7, 767}";
type = Stem;
}
);
layerId = "A096C860-9E6F-43F5-BF5F-7670645978FC";
paths = (
{
closed = 1;
nodes = (
"555 856 LINE",
"196 856 LINE",
"196 749 LINE",
"555 749 LINE"
);
},
{
closed = 1;
nodes = (
"515 137 LINE",
"571 0 LINE",
"760 0 LINE",
"460 705 LINE",
"293 705 LINE",
"-7 0 LINE",
"178 0 LINE",
"234 137 LINE"
);
},
{
closed = 1;
nodes = (
"375 497 LINE",
"463 275 LINE",
"287 275 LINE"
);
}
);
width = 752;
}
);
unicode = 0100;
},
{
glyphname = amacron;
layers = (
{
hints = (
{
horizontal = 1;
place = "{-12, 111}";
type = Stem;
},
{
horizontal = 1;
place = "{240, 88}";
type = Stem;
},
{
horizontal = 1;
place = "{407, 133}";
type = Stem;
},
{
horizontal = 1;
place = "{584, 107}";
type = Stem;
},
{
place = "{30, 168}";
type = Stem;
},
{
place = "{377, 168}";
type = Stem;
}
);
layerId = "A096C860-9E6F-43F5-BF5F-7670645978FC";
paths = (
{
closed = 1;
nodes = (
"468 691 LINE",
"109 691 LINE",
"109 584 LINE",
"468 584 LINE"
);
},
{
closed = 1;
nodes = (
"545 -10 LINE",
"545 311 LINE SMOOTH",
"545 460 OFFCURVE",
"460 540 OFFCURVE",
"284 540 CURVE SMOOTH",
"198 540 OFFCURVE",
"134 522 OFFCURVE",
"74 498 CURVE",
"74 373 LINE",
"134 398 OFFCURVE",
"187 407 OFFCURVE",
"242 407 CURVE SMOOTH",
"330 407 OFFCURVE",
"377 381 OFFCURVE",
"377 316 CURVE SMOOTH",
"377 305 LINE",
"344 318 OFFCURVE",
"294 328 OFFCURVE",
"242 328 CURVE SMOOTH",
"121 328 OFFCURVE",
"30 274 OFFCURVE",
"30 159 CURVE SMOOTH",
"30 50 OFFCURVE",
"114 -12 OFFCURVE",
"217 -12 CURVE SMOOTH",
"288 -12 OFFCURVE",
"337 14 OFFCURVE",
"376 55 CURVE"
);
},
{
closed = 1;
nodes = (
"377 136 LINE",
"349 110 OFFCURVE",
"317 99 OFFCURVE",
"280 99 CURVE SMOOTH",
"236 99 OFFCURVE",
"198 126 OFFCURVE",
"198 169 CURVE SMOOTH",
"198 211 OFFCURVE",
"237 240 OFFCURVE",
"294 240 CURVE SMOOTH",
"328 240 OFFCURVE",
"357 232 OFFCURVE",
"377 222 CURVE"
);
}
);
width = 601;
}
);
unicode = 0101;
},
{
glyphname = Abreve;
layers = (
{
hints = (
{
horizontal = 1;
place = "{0, 21}";
target = up;
type = BottomGhost;
},
{
horizontal = 1;
place = "{137, 138}";
type = Stem;
},
{
horizontal = 1;
place = "{705, -20}";
target = down;
type = TopGhost;
},
{
horizontal = 1;
place = "{761, 175}";
type = Stem;
},
{
place = "{-7, 767}";
type = Stem;
}
);
layerId = "A096C860-9E6F-43F5-BF5F-7670645978FC";
paths = (
{
closed = 1;
nodes = (
"447 936 LINE",
"435 894 OFFCURVE",
"410 869 OFFCURVE",
"378 869 CURVE SMOOTH",
"345 869 OFFCURVE",
"318 894 OFFCURVE",
"306 936 CURVE",
"210 936 LINE",
"218 832 OFFCURVE",
"286 761 OFFCURVE",
"375 761 CURVE SMOOTH",
"466 761 OFFCURVE",
"534 832 OFFCURVE",
"542 936 CURVE"
);
},
{
closed = 1;
nodes = (
"515 137 LINE",
"571 0 LINE",
"760 0 LINE",
"460 705 LINE",
"293 705 LINE",
"-7 0 LINE",
"178 0 LINE",
"234 137 LINE"
);
},
{
closed = 1;
nodes = (
"375 497 LINE",
"463 275 LINE",
"287 275 LINE"
);
}
);
width = 752;
}
);
unicode = 0102;
},
{
glyphname = abreve;
layers = (
{
hints = (
{
horizontal = 1;
place = "{-12, 111}";
type = Stem;
},
{
horizontal = 1;
place = "{240, 88}";
type = Stem;
},
{
horizontal = 1;
place = "{407, 133}";
type = Stem;
},
{
horizontal = 1;
place = "{579, 175}";
type = Stem;
},
{
place = "{30, 168}";
type = Stem;
},
{
place = "{377, 168}";
type = Stem;
}
);
layerId = "A096C860-9E6F-43F5-BF5F-7670645978FC";
paths = (
{
closed = 1;
nodes = (
"377 754 LINE",
"365 712 OFFCURVE",
"340 687 OFFCURVE",
"308 687 CURVE SMOOTH",
"275 687 OFFCURVE",
"248 712 OFFCURVE",
"236 754 CURVE",
"140 754 LINE",
"148 650 OFFCURVE",
"216 579 OFFCURVE",
"305 579 CURVE SMOOTH",
"396 579 OFFCURVE",
"464 650 OFFCURVE",
"472 754 CURVE"
);
},
{
closed = 1;
nodes = (
"545 -10 LINE",
"545 311 LINE SMOOTH",
"545 460 OFFCURVE",
"460 540 OFFCURVE",
"284 540 CURVE SMOOTH",
"198 540 OFFCURVE",
"134 522 OFFCURVE",
"74 498 CURVE",
"74 373 LINE",
"134 398 OFFCURVE",
"187 407 OFFCURVE",
"242 407 CURVE SMOOTH",
"330 407 OFFCURVE",
"377 381 OFFCURVE",
"377 316 CURVE SMOOTH",
"377 305 LINE",
"344 318 OFFCURVE",
"294 328 OFFCURVE",
"242 328 CURVE SMOOTH",
"121 328 OFFCURVE",
"30 274 OFFCURVE",
"30 159 CURVE SMOOTH",
"30 50 OFFCURVE",
"114 -12 OFFCURVE",
"217 -12 CURVE SMOOTH",
"288 -12 OFFCURVE",
"337 14 OFFCURVE",
"376 55 CURVE"
);
},
{
closed = 1;
nodes = (
"377 136 LINE",
"349 110 OFFCURVE",
"317 99 OFFCURVE",
"280 99 CURVE SMOOTH",
"236 99 OFFCURVE",
"198 126 OFFCURVE",
"198 169 CURVE SMOOTH",
"198 211 OFFCURVE",
"237 240 OFFCURVE",
"294 240 CURVE SMOOTH",
"328 240 OFFCURVE",
"357 232 OFFCURVE",
"377 222 CURVE"
);
}
);
width = 601;
}
);
unicode = 0103;
},
{
glyphname = Aogonek;
layers = (
{
hints = (
{
horizontal = 1;
place = "{-231, 96}";
type = Stem;
},
{
horizontal = 1;
place = "{0, 21}";
target = up;
type = BottomGhost;
},
{
horizontal = 1;
place = "{137, 138}";
type = Stem;
},
{
horizontal = 1;
place = "{705, -20}";
target = down;
type = TopGhost;
},
{
place = "{510, 114}";
type = Stem;
}
);
layerId = "A096C860-9E6F-43F5-BF5F-7670645978FC";
paths = (
{
closed = 1;
nodes = (
"515 137 LINE",
"571 0 LINE",
"541 -34 OFFCURVE",
"510 -75 OFFCURVE",
"510 -124 CURVE SMOOTH",
"510 -191 OFFCURVE",
"564 -231 OFFCURVE",
"636 -231 CURVE SMOOTH",
"667 -231 OFFCURVE",
"700 -224 OFFCURVE",
"734 -206 CURVE",
"713 -122 LINE",
"686 -132 OFFCURVE",
"670 -135 OFFCURVE",
"659 -135 CURVE SMOOTH",
"640 -135 OFFCURVE",
"624 -126 OFFCURVE",
"624 -106 CURVE SMOOTH",
"624 -89 OFFCURVE",
"635 -61 OFFCURVE",
"686 0 CURVE",
"760 0 LINE",
"460 705 LINE",
"293 705 LINE",
"-7 0 LINE",
"178 0 LINE",
"234 137 LINE"
);
},
{
closed = 1;
nodes = (
"375 497 LINE",
"463 275 LINE",
"287 275 LINE"
);
}
);
width = 755;
}
);
unicode = 0104;
},
{
glyphname = aogonek;
layers = (
{
hints = (
{
place = "{30, 168}";
type = Stem;
},
{
place = "{369, 114}";
type = Stem;
},
{
place = "{377, 168}";
type = Stem;
},
{
horizontal = 1;
place = "{-231, 96}";
type = Stem;
},
{
horizontal = 1;
place = "{-12, 111}";
type = Stem;
},
{
horizontal = 1;
place = "{240, 88}";
type = Stem;
},
{
horizontal = 1;
place = "{407, 133}";
type = Stem;
}
);
layerId = "A096C860-9E6F-43F5-BF5F-7670645978FC";
paths = (
{
closed = 1;
nodes = (
"545 311 LINE SMOOTH",
"545 460 OFFCURVE",
"460 540 OFFCURVE",
"284 540 CURVE SMOOTH",
"198 540 OFFCURVE",
"134 522 OFFCURVE",
"74 498 CURVE",
"74 373 LINE",
"134 398 OFFCURVE",
"187 407 OFFCURVE",
"242 407 CURVE SMOOTH",
"330 407 OFFCURVE",
"377 381 OFFCURVE",
"377 316 CURVE SMOOTH",
"377 305 LINE",
"344 318 OFFCURVE",
"294 328 OFFCURVE",
"242 328 CURVE SMOOTH",
"121 328 OFFCURVE",
"30 274 OFFCURVE",
"30 159 CURVE SMOOTH",
"30 50 OFFCURVE",
"114 -12 OFFCURVE",
"217 -12 CURVE SMOOTH",
"288 -12 OFFCURVE",
"337 14 OFFCURVE",
"376 55 CURVE",
"453 25 LINE",
"398 -34 OFFCURVE",
"369 -75 OFFCURVE",
"369 -123 CURVE SMOOTH",
"369 -190 OFFCURVE",
"423 -231 OFFCURVE",
"495 -231 CURVE SMOOTH",
"526 -231 OFFCURVE",
"559 -224 OFFCURVE",
"593 -206 CURVE",
"572 -122 LINE",
"545 -132 OFFCURVE",
"529 -135 OFFCURVE",
"518 -135 CURVE SMOOTH",
"498 -135 OFFCURVE",
"483 -125 OFFCURVE",
"483 -106 CURVE SMOOTH",
"483 -89 OFFCURVE",
"494 -61 OFFCURVE",
"545 -10 CURVE"
);
},
{
closed = 1;
nodes = (
"377 136 LINE",
"349 110 OFFCURVE",
"317 99 OFFCURVE",
"280 99 CURVE SMOOTH",
"236 99 OFFCURVE",
"198 126 OFFCURVE",
"198 169 CURVE SMOOTH",
"198 211 OFFCURVE",
"237 240 OFFCURVE",
"294 240 CURVE SMOOTH",
"328 240 OFFCURVE",
"357 232 OFFCURVE",
"377 222 CURVE"
);
}
);
width = 630;
}
);
unicode = 0105;
},
{
glyphname = Cacute;
layers = (
{
hints = (
{
horizontal = 1;
place = "{-14, 160}";
type = Stem;
},
{
horizontal = 1;
place = "{555, 160}";
type = Stem;
},
{
place = "{39, 182}";
type = Stem;
}
);
layerId = "A096C860-9E6F-43F5-BF5F-7670645978FC";
paths = (
{
closed = 1;
nodes = (
"319 781 LINE",
"440 781 LINE",
"584 909 LINE",
"421 960 LINE"
);
},
{
closed = 1;
nodes = (
"626 236 LINE",
"564 179 OFFCURVE",
"500 146 OFFCURVE",
"422 146 CURVE SMOOTH",
"296 146 OFFCURVE",
"221 236 OFFCURVE",
"221 352 CURVE SMOOTH",
"221 464 OFFCURVE",
"297 555 OFFCURVE",
"422 555 CURVE SMOOTH",
"506 555 OFFCURVE",
"574 519 OFFCURVE",
"620 470 CURVE",
"620 651 LINE",
"564 690 OFFCURVE",
"497 715 OFFCURVE",
"408 715 CURVE SMOOTH",
"196 715 OFFCURVE",
"39 555 OFFCURVE",
"39 350 CURVE SMOOTH",
"39 142 OFFCURVE",
"200 -14 OFFCURVE",
"400 -14 CURVE SMOOTH",
"490 -14 OFFCURVE",
"561 11 OFFCURVE",
"626 58 CURVE"
);
}
);
width = 672;
}
);
unicode = 0106;
},
{
glyphname = cacute;
layers = (
{
hints = (
{
horizontal = 1;
place = "{-12, 145}";
type = Stem;
},
{
horizontal = 1;
place = "{397, 145}";
type = Stem;
},
{
place = "{30, 168}";
type = Stem;
}
);
layerId = "A096C860-9E6F-43F5-BF5F-7670645978FC";
paths = (
{
closed = 1;
nodes = (
"430 523 LINE",
"398 537 OFFCURVE",
"352 542 OFFCURVE",
"314 542 CURVE SMOOTH",
"146 542 OFFCURVE",
"30 415 OFFCURVE",
"30 265 CURVE SMOOTH",
"30 112 OFFCURVE",
"152 -12 OFFCURVE",
"311 -12 CURVE SMOOTH",
"354 -12 OFFCURVE",
"401 -3 OFFCURVE",
"435 11 CURVE",
"435 173 LINE",
"401 144 OFFCURVE",
"364 133 OFFCURVE",
"329 133 CURVE SMOOTH",
"256 133 OFFCURVE",
"198 192 OFFCURVE",
"198 266 CURVE SMOOTH",
"198 340 OFFCURVE",
"251 397 OFFCURVE",
"326 397 CURVE SMOOTH",
"367 397 OFFCURVE",
"399 382 OFFCURVE",
"430 356 CURVE"
);
}
);
width = 510;
}
);
unicode = 0107;
},
{
glyphname = Ccircumflex;
layers = (
{
hints = (
{
horizontal = 1;
place = "{-14, 160}";
type = Stem;
},
{
horizontal = 1;
place = "{555, 160}";
type = Stem;
},
{
horizontal = 1;
place = "{780, 179}";
type = Stem;
},
{
place = "{39, 182}";
type = Stem;
}
);
layerId = "A096C860-9E6F-43F5-BF5F-7670645978FC";
paths = (
{
closed = 1;
nodes = (
"436 959 LINE",
"341 959 LINE",
"207 780 LINE",
"327 780 LINE",
"389 845 LINE",
"451 780 LINE",
"570 780 LINE"
);
},
{
closed = 1;
nodes = (
"626 236 LINE",
"564 179 OFFCURVE",
"500 146 OFFCURVE",
"422 146 CURVE SMOOTH",
"296 146 OFFCURVE",
"221 236 OFFCURVE",
"221 352 CURVE SMOOTH",
"221 464 OFFCURVE",
"297 555 OFFCURVE",
"422 555 CURVE SMOOTH",
"506 555 OFFCURVE",
"574 519 OFFCURVE",
"620 470 CURVE",
"620 651 LINE",
"564 690 OFFCURVE",
"497 715 OFFCURVE",
"408 715 CURVE SMOOTH",
"196 715 OFFCURVE",
"39 555 OFFCURVE",
"39 350 CURVE SMOOTH",
"39 142 OFFCURVE",
"200 -14 OFFCURVE",
"400 -14 CURVE SMOOTH",
"490 -14 OFFCURVE",
"561 11 OFFCURVE",
"626 58 CURVE"
);
}
);
width = 672;
}
);
unicode = 0108;
},
{
glyphname = ccircumflex;
layers = (
{
hints = (
{
horizontal = 1;
place = "{-12, 145}";
type = Stem;
},
{
horizontal = 1;
place = "{397, 145}";
type = Stem;
},
{
horizontal = 1;
place = "{615, 179}";
type = Stem;
},
{
place = "{30, 168}";
type = Stem;
}
);
layerId = "A096C860-9E6F-43F5-BF5F-7670645978FC";
paths = (
{
closed = 1;
nodes = (
"331 794 LINE",
"236 794 LINE",
"102 615 LINE",
"222 615 LINE",
"284 680 LINE",
"346 615 LINE",
"465 615 LINE"
);
},
{
closed = 1;
nodes = (
"430 523 LINE",
"398 537 OFFCURVE",
"352 542 OFFCURVE",
"314 542 CURVE SMOOTH",
"146 542 OFFCURVE",
"30 415 OFFCURVE",
"30 265 CURVE SMOOTH",
"30 112 OFFCURVE",
"152 -12 OFFCURVE",
"311 -12 CURVE SMOOTH",
"354 -12 OFFCURVE",
"401 -3 OFFCURVE",
"435 11 CURVE",
"435 173 LINE",
"401 144 OFFCURVE",
"364 133 OFFCURVE",
"329 133 CURVE SMOOTH",
"256 133 OFFCURVE",
"198 192 OFFCURVE",
"198 266 CURVE SMOOTH",
"198 340 OFFCURVE",
"251 397 OFFCURVE",
"326 397 CURVE SMOOTH",
"367 397 OFFCURVE",
"399 382 OFFCURVE",
"430 356 CURVE"
);
}
);
width = 464;
}
);
unicode = 0109;
},
{
glyphname = Cdotaccent;
layers = (
{
hints = (
{
horizontal = 1;
place = "{-14, 160}";
type = Stem;
},
{
horizontal = 1;
place = "{555, 160}";
type = Stem;
},
{
horizontal = 1;
place = "{755, 181}";
type = Stem;
},
{
place = "{36, 182}";
type = Stem;
},
{
place = "{302, 200}";
type = Stem;
}
);
layerId = "A096C860-9E6F-43F5-BF5F-7670645978FC";
paths = (
{
closed = 1;
nodes = (
"302 787 OFFCURVE",
"346 755 OFFCURVE",
"402 755 CURVE SMOOTH",
"457 755 OFFCURVE",
"502 787 OFFCURVE",
"502 846 CURVE SMOOTH",
"502 905 OFFCURVE",
"457 936 OFFCURVE",
"402 936 CURVE SMOOTH",
"346 936 OFFCURVE",
"302 905 OFFCURVE",
"302 846 CURVE SMOOTH"
);
},
{
closed = 1;
nodes = (
"623 236 LINE",
"561 179 OFFCURVE",
"497 146 OFFCURVE",
"419 146 CURVE SMOOTH",
"293 146 OFFCURVE",
"218 236 OFFCURVE",
"218 352 CURVE SMOOTH",
"218 464 OFFCURVE",
"294 555 OFFCURVE",
"419 555 CURVE SMOOTH",
"503 555 OFFCURVE",
"571 519 OFFCURVE",
"617 470 CURVE",
"617 651 LINE",
"561 690 OFFCURVE",
"494 715 OFFCURVE",
"405 715 CURVE SMOOTH",
"193 715 OFFCURVE",
"36 555 OFFCURVE",
"36 350 CURVE SMOOTH",
"36 142 OFFCURVE",
"197 -14 OFFCURVE",
"397 -14 CURVE SMOOTH",
"487 -14 OFFCURVE",
"558 11 OFFCURVE",
"623 58 CURVE"
);
}
);
width = 645;
}
);
unicode = 010A;
},
{
glyphname = cdotaccent;
layers = (
{
hints = (
{
horizontal = 1;
place = "{-12, 145}";
type = Stem;
},
{
horizontal = 1;
place = "{397, 145}";
type = Stem;
},
{
horizontal = 1;
place = "{590, 181}";
type = Stem;
},
{
place = "{31, 168}";
type = Stem;
},
{
place = "{203, 200}";
type = Stem;
}
);
layerId = "A096C860-9E6F-43F5-BF5F-7670645978FC";
paths = (
{
closed = 1;
nodes = (
"203 622 OFFCURVE",
"247 590 OFFCURVE",
"303 590 CURVE SMOOTH",
"358 590 OFFCURVE",
"403 622 OFFCURVE",
"403 681 CURVE SMOOTH",
"403 740 OFFCURVE",
"358 771 OFFCURVE",
"303 771 CURVE SMOOTH",
"247 771 OFFCURVE",
"203 740 OFFCURVE",
"203 681 CURVE SMOOTH"
);
},
{
closed = 1;
nodes = (
"431 523 LINE",
"399 537 OFFCURVE",
"353 542 OFFCURVE",
"315 542 CURVE SMOOTH",
"147 542 OFFCURVE",
"31 415 OFFCURVE",
"31 265 CURVE SMOOTH",
"31 112 OFFCURVE",
"153 -12 OFFCURVE",
"312 -12 CURVE SMOOTH",
"355 -12 OFFCURVE",
"402 -3 OFFCURVE",
"436 11 CURVE",
"436 173 LINE",
"402 144 OFFCURVE",
"365 133 OFFCURVE",
"330 133 CURVE SMOOTH",
"257 133 OFFCURVE",
"199 192 OFFCURVE",
"199 266 CURVE SMOOTH",
"199 340 OFFCURVE",
"252 397 OFFCURVE",
"327 397 CURVE SMOOTH",
"368 397 OFFCURVE",
"400 382 OFFCURVE",
"431 356 CURVE"
);
}
);
width = 455;
}
);
unicode = 010B;
},
{
glyphname = Ccaron;
layers = (
{
hints = (
{
horizontal = 1;
place = "{-14, 160}";
type = Stem;
},
{
horizontal = 1;
place = "{555, 160}";
type = Stem;
},
{
horizontal = 1;
place = "{758, 179}";
type = Stem;
},
{
place = "{39, 182}";
type = Stem;
}
);
layerId = "A096C860-9E6F-43F5-BF5F-7670645978FC";
paths = (
{
closed = 1;
nodes = (
"472 937 LINE",
"412 871 LINE",
"351 937 LINE",
"222 937 LINE",
"362 758 LINE",
"458 758 LINE",
"598 937 LINE"
);
},
{
closed = 1;
nodes = (
"626 236 LINE",
"564 179 OFFCURVE",
"500 146 OFFCURVE",
"422 146 CURVE SMOOTH",
"296 146 OFFCURVE",
"221 236 OFFCURVE",
"221 352 CURVE SMOOTH",
"221 464 OFFCURVE",
"297 555 OFFCURVE",
"422 555 CURVE SMOOTH",
"506 555 OFFCURVE",
"574 519 OFFCURVE",
"620 470 CURVE",
"620 651 LINE",
"564 690 OFFCURVE",
"497 715 OFFCURVE",
"408 715 CURVE SMOOTH",
"196 715 OFFCURVE",
"39 555 OFFCURVE",
"39 350 CURVE SMOOTH",
"39 142 OFFCURVE",
"200 -14 OFFCURVE",
"400 -14 CURVE SMOOTH",
"490 -14 OFFCURVE",
"561 11 OFFCURVE",
"626 58 CURVE"
);
}
);
width = 672;
}
);
unicode = 010C;
},
{
glyphname = ccaron;
layers = (
{
hints = (
{
place = "{30, 168}";
type = Stem;
},
{
horizontal = 1;
place = "{-12, 145}";
type = Stem;
},
{
horizontal = 1;
place = "{397, 145}";
type = Stem;
},
{
horizontal = 1;
place = "{593, 113}";
type = Stem;
},
{
horizontal = 1;
place = "{593, 179}";
type = Stem;
},
{
horizontal = 1;
place = "{706, -20}";
target = down;
type = TopGhost;
}
);
layerId = "A096C860-9E6F-43F5-BF5F-7670645978FC";
paths = (
{
closed = 1;
nodes = (
"352 772 LINE",
"292 706 LINE",
"231 772 LINE",
"102 772 LINE",
"242 593 LINE",
"338 593 LINE",
"478 772 LINE"
);
},
{
closed = 1;
nodes = (
"430 523 LINE",
"398 537 OFFCURVE",
"352 542 OFFCURVE",
"314 542 CURVE SMOOTH",
"146 542 OFFCURVE",
"30 415 OFFCURVE",
"30 265 CURVE SMOOTH",
"30 112 OFFCURVE",
"152 -12 OFFCURVE",
"311 -12 CURVE SMOOTH",
"354 -12 OFFCURVE",
"401 -3 OFFCURVE",
"435 11 CURVE",
"435 173 LINE",
"401 144 OFFCURVE",
"364 133 OFFCURVE",
"329 133 CURVE SMOOTH",
"256 133 OFFCURVE",
"198 192 OFFCURVE",
"198 266 CURVE SMOOTH",
"198 340 OFFCURVE",
"251 397 OFFCURVE",
"326 397 CURVE SMOOTH",
"367 397 OFFCURVE",
"399 382 OFFCURVE",
"430 356 CURVE"
);
}
);
width = 478;
}
);
unicode = 010D;
},
{
glyphname = Dcaron;
layers = (
{
hints = (
{
horizontal = 1;
place = "{0, 156}";
type = Stem;
},
{
horizontal = 1;
place = "{545, 156}";
type = Stem;
},
{
horizontal = 1;
place = "{758, 179}";
type = Stem;
},
{
place = "{62, 175}";
type = Stem;
},
{
place = "{534, 181}";
type = Stem;
}
);
layerId = "A096C860-9E6F-43F5-BF5F-7670645978FC";
paths = (
{
closed = 1;
nodes = (
"424 937 LINE",
"364 871 LINE",
"303 937 LINE",
"174 937 LINE",
"314 758 LINE",
"410 758 LINE",
"550 937 LINE"
);
},
{
closed = 1;
nodes = (
"62 0 LINE",
"320 0 LINE SMOOTH",
"568 0 OFFCURVE",
"715 151 OFFCURVE",
"715 354 CURVE SMOOTH",
"715 559 OFFCURVE",
"568 701 OFFCURVE",
"323 701 CURVE SMOOTH",
"62 701 LINE"
);
},
{
closed = 1;
nodes = (
"237 545 LINE",
"333 545 LINE SMOOTH",
"455 545 OFFCURVE",
"534 466 OFFCURVE",
"534 351 CURVE SMOOTH",
"534 230 OFFCURVE",
"453 156 OFFCURVE",
"325 156 CURVE SMOOTH",
"237 156 LINE"
);
}
);
width = 756;
}
);
unicode = 010E;
},
{
glyphname = dcaron;
layers = (
{
hints = (
{
horizontal = 1;
place = "{-12, 145}";
type = Stem;
},
{
horizontal = 1;
place = "{399, 144}";
type = Stem;
},
{
horizontal = 1;
place = "{587, 143}";
type = Stem;
},
{
place = "{30, 170}";
type = Stem;
},
{
place = "{437, 172}";
type = Stem;
}
);
layerId = "A096C860-9E6F-43F5-BF5F-7670645978FC";
paths = (
{
closed = 1;
nodes = (
"800 810 LINE",
"682 810 LINE",
"643 587 LINE",
"736 587 LINE"
);
},
{
closed = 1;
nodes = (
"609 -10 LINE",
"609 730 LINE",
"437 730 LINE",
"437 462 LINE",
"400 506 OFFCURVE",
"350 543 OFFCURVE",
"269 543 CURVE SMOOTH",
"141 543 OFFCURVE",
"30 437 OFFCURVE",
"30 265 CURVE SMOOTH",
"30 94 OFFCURVE",
"142 -12 OFFCURVE",
"270 -12 CURVE SMOOTH",
"350 -12 OFFCURVE",
"397 27 OFFCURVE",
"436 73 CURVE"
);
},
{
closed = 1;
nodes = (
"200 345 OFFCURVE",
"255 399 OFFCURVE",
"319 399 CURVE SMOOTH",
"386 399 OFFCURVE",
"440 344 OFFCURVE",
"440 267 CURVE SMOOTH",
"440 187 OFFCURVE",
"386 133 OFFCURVE",
"319 133 CURVE SMOOTH",
"254 133 OFFCURVE",
"200 188 OFFCURVE",
"200 265 CURVE SMOOTH"
);
}
);
width = 632;
}
);
unicode = 010F;
},
{
glyphname = Dcroat;
layers = (
{
hints = (
{
horizontal = 1;
place = "{0, 156}";
type = Stem;
},
{
horizontal = 1;
place = "{261, 152}";
type = Stem;
},
{
horizontal = 1;
place = "{545, 156}";
type = Stem;
},
{
place = "{86, 176}";
type = Stem;
},
{
place = "{559, 181}";
type = Stem;
}
);
layerId = "A096C860-9E6F-43F5-BF5F-7670645978FC";
paths = (
{
closed = 1;
nodes = (
"86 0 LINE",
"345 0 LINE SMOOTH",
"593 0 OFFCURVE",
"740 151 OFFCURVE",
"740 354 CURVE SMOOTH",
"740 559 OFFCURVE",
"593 701 OFFCURVE",
"348 701 CURVE SMOOTH",
"86 701 LINE",
"86 413 LINE",
"9 413 LINE",
"9 261 LINE",
"86 261 LINE"
);
},
{
closed = 1;
nodes = (
"262 545 LINE",
"358 545 LINE SMOOTH",
"480 545 OFFCURVE",
"559 466 OFFCURVE",
"559 351 CURVE SMOOTH",
"559 230 OFFCURVE",
"478 156 OFFCURVE",
"350 156 CURVE SMOOTH",
"262 156 LINE",
"262 261 LINE",
"327 261 LINE",
"327 413 LINE",
"262 413 LINE"
);
}
);
width = 780;
}
);
unicode = 0110;
},
{
glyphname = dcroat;
layers = (
{
hints = (
{
place = "{30, 170}";
type = Stem;
},
{
place = "{437, 172}";
type = Stem;
},
{
horizontal = 1;
place = "{-12, 145}";
type = Stem;
},
{
horizontal = 1;
place = "{399, 144}";
type = Stem;
},
{
horizontal = 1;
place = "{550, 152}";
type = Stem;
},
{
horizontal = 1;
place = "{550, 180}";
type = Stem;
}
);
layerId = "A096C860-9E6F-43F5-BF5F-7670645978FC";
paths = (
{
closed = 1;
nodes = (
"609 -10 LINE",
"609 550 LINE",
"668 550 LINE",
"668 702 LINE",
"609 702 LINE",
"609 730 LINE",
"437 730 LINE",
"437 702 LINE",
"350 702 LINE",
"350 550 LINE",
"437 550 LINE",
"437 462 LINE",
"400 506 OFFCURVE",
"350 543 OFFCURVE",
"269 543 CURVE SMOOTH",
"141 543 OFFCURVE",
"30 437 OFFCURVE",
"30 265 CURVE SMOOTH",
"30 94 OFFCURVE",
"142 -12 OFFCURVE",
"270 -12 CURVE SMOOTH",
"350 -12 OFFCURVE",
"397 27 OFFCURVE",
"436 73 CURVE"
);
},
{
closed = 1;
nodes = (
"200 345 OFFCURVE",
"255 399 OFFCURVE",
"319 399 CURVE SMOOTH",
"386 399 OFFCURVE",
"440 344 OFFCURVE",
"440 267 CURVE SMOOTH",
"440 187 OFFCURVE",
"386 133 OFFCURVE",
"319 133 CURVE SMOOTH",
"254 133 OFFCURVE",
"200 188 OFFCURVE",
"200 265 CURVE SMOOTH"
);
}
);
width = 665;
}
);
unicode = 0111;
},
{
glyphname = Emacron;
layers = (
{
hints = (
{
place = "{62, 174}";
type = Stem;
},
{
place = "{170, 359}";
type = Stem;
},
{
horizontal = 1;
place = "{0, 150}";
type = Stem;
},
{
horizontal = 1;
place = "{284, 140}";
type = Stem;
},
{
horizontal = 1;
place = "{551, 150}";
type = Stem;
},
{
horizontal = 1;
place = "{749, 107}";
type = Stem;
}
);
layerId = "A096C860-9E6F-43F5-BF5F-7670645978FC";
paths = (
{
closed = 1;
nodes = (
"529 856 LINE",
"170 856 LINE",
"170 749 LINE",
"529 749 LINE"
);
},
{
closed = 1;
nodes = (
"236 284 LINE",
"573 284 LINE",
"573 424 LINE",
"236 424 LINE",
"236 551 LINE",
"607 551 LINE",
"607 701 LINE",
"62 701 LINE",
"62 0 LINE",
"613 0 LINE",
"613 150 LINE",
"236 150 LINE"
);
}
);
width = 666;
}
);
unicode = 0112;
},
{
glyphname = emacron;
layers = (
{
hints = (
{
horizontal = 1;
place = "{-16, 127}";
type = Stem;
},
{
horizontal = 1;
place = "{410, 129}";
type = Stem;
},
{
horizontal = 1;
place = "{584, 107}";
type = Stem;
},
{
place = "{30, 164}";
type = Stem;
}
);
layerId = "A096C860-9E6F-43F5-BF5F-7670645978FC";
paths = (
{
closed = 1;
nodes = (
"478 691 LINE",
"119 691 LINE",
"119 584 LINE",
"478 584 LINE"
);
},
{
closed = 1;
nodes = (
"266 111 OFFCURVE",
"232 125 OFFCURVE",
"208 153 CURVE",
"566 244 LINE",
"563 399 OFFCURVE",
"474 539 OFFCURVE",
"304 539 CURVE SMOOTH",
"144 539 OFFCURVE",
"30 421 OFFCURVE",
"30 264 CURVE SMOOTH",
"30 102 OFFCURVE",
"144 -16 OFFCURVE",
"307 -16 CURVE SMOOTH",
"368 -16 OFFCURVE",
"450 -1 OFFCURVE",
"515 42 CURVE",
"515 180 LINE",
"466 136 OFFCURVE",
"378 111 OFFCURVE",
"310 111 CURVE SMOOTH"
);
},
{
closed = 1;
nodes = (
"194 270 LINE SMOOTH",
"194 335 OFFCURVE",
"221 410 OFFCURVE",
"295 410 CURVE SMOOTH",
"347 410 OFFCURVE",
"384 375 OFFCURVE",
"397 319 CURVE",
"194 267 LINE"
);
}
);
width = 596;
}
);
unicode = 0113;
},
{
glyphname = Ebreve;
layers = (
{
hints = (
{
horizontal = 1;
place = "{0, 150}";
type = Stem;
},
{
horizontal = 1;
place = "{284, 140}";
type = Stem;
},
{
horizontal = 1;
place = "{551, 150}";
type = Stem;
},
{
horizontal = 1;
place = "{744, 175}";
type = Stem;
},
{
place = "{62, 174}";
type = Stem;
}
);
layerId = "A096C860-9E6F-43F5-BF5F-7670645978FC";
paths = (
{
closed = 1;
nodes = (
"411 919 LINE",
"399 877 OFFCURVE",
"374 852 OFFCURVE",
"342 852 CURVE SMOOTH",
"309 852 OFFCURVE",
"282 877 OFFCURVE",
"270 919 CURVE",
"174 919 LINE",
"182 815 OFFCURVE",
"250 744 OFFCURVE",
"339 744 CURVE SMOOTH",
"430 744 OFFCURVE",
"498 815 OFFCURVE",
"506 919 CURVE"
);
},
{
closed = 1;
nodes = (
"236 284 LINE",
"573 284 LINE",
"573 424 LINE",
"236 424 LINE",
"236 551 LINE",
"607 551 LINE",
"607 701 LINE",
"62 701 LINE",
"62 0 LINE",
"613 0 LINE",
"613 150 LINE",
"236 150 LINE"
);
}
);
width = 666;
}
);
unicode = 0114;
},
{
glyphname = ebreve;
layers = (
{
hints = (
{
horizontal = 1;
place = "{-16, 127}";
type = Stem;
},
{
horizontal = 1;
place = "{410, 129}";
type = Stem;
},
{
horizontal = 1;
place = "{579, 175}";
type = Stem;
},
{
place = "{30, 164}";
type = Stem;
}
);
layerId = "A096C860-9E6F-43F5-BF5F-7670645978FC";
paths = (
{
closed = 1;
nodes = (
"382 754 LINE",
"370 712 OFFCURVE",
"345 687 OFFCURVE",
"313 687 CURVE SMOOTH",
"280 687 OFFCURVE",
"253 712 OFFCURVE",
"241 754 CURVE",
"145 754 LINE",
"153 650 OFFCURVE",
"221 579 OFFCURVE",
"310 579 CURVE SMOOTH",
"401 579 OFFCURVE",
"469 650 OFFCURVE",
"477 754 CURVE"
);
},
{
closed = 1;
nodes = (
"266 111 OFFCURVE",
"232 125 OFFCURVE",
"208 153 CURVE",
"566 244 LINE",
"563 399 OFFCURVE",
"474 539 OFFCURVE",
"304 539 CURVE SMOOTH",
"144 539 OFFCURVE",
"30 421 OFFCURVE",
"30 264 CURVE SMOOTH",
"30 102 OFFCURVE",
"144 -16 OFFCURVE",
"307 -16 CURVE SMOOTH",
"368 -16 OFFCURVE",
"450 -1 OFFCURVE",
"515 42 CURVE",
"515 180 LINE",
"466 136 OFFCURVE",
"378 111 OFFCURVE",
"310 111 CURVE SMOOTH"
);
},
{
closed = 1;
nodes = (
"194 270 LINE SMOOTH",
"194 335 OFFCURVE",
"221 410 OFFCURVE",
"295 410 CURVE SMOOTH",
"347 410 OFFCURVE",
"384 375 OFFCURVE",
"397 319 CURVE",
"194 267 LINE"
);
}
);
width = 596;
}
);
unicode = 0115;
},
{
glyphname = Edotaccent;
layers = (
{
hints = (
{
horizontal = 1;
place = "{0, 150}";
type = Stem;
},
{
horizontal = 1;
place = "{284, 140}";
type = Stem;
},
{
horizontal = 1;
place = "{551, 150}";
type = Stem;
},
{
horizontal = 1;
place = "{755, 181}";
type = Stem;
},
{
place = "{62, 174}";
type = Stem;
},
{
place = "{237, 200}";
type = Stem;
}
);
layerId = "A096C860-9E6F-43F5-BF5F-7670645978FC";
paths = (
{
closed = 1;
nodes = (
"237 787 OFFCURVE",
"281 755 OFFCURVE",
"337 755 CURVE SMOOTH",
"392 755 OFFCURVE",
"437 787 OFFCURVE",
"437 846 CURVE SMOOTH",
"437 905 OFFCURVE",
"392 936 OFFCURVE",
"337 936 CURVE SMOOTH",
"281 936 OFFCURVE",
"237 905 OFFCURVE",
"237 846 CURVE SMOOTH"
);
},
{
closed = 1;
nodes = (
"236 284 LINE",
"573 284 LINE",
"573 424 LINE",
"236 424 LINE",
"236 551 LINE",
"607 551 LINE",
"607 701 LINE",
"62 701 LINE",
"62 0 LINE",
"613 0 LINE",
"613 150 LINE",
"236 150 LINE"
);
}
);
width = 666;
}
);
unicode = 0116;
},
{
glyphname = edotaccent;
layers = (
{
hints = (
{
horizontal = 1;
place = "{-16, 127}";
type = Stem;
},
{
horizontal = 1;
place = "{410, 129}";
type = Stem;
},
{
horizontal = 1;
place = "{590, 181}";
type = Stem;
},
{
place = "{30, 164}";
type = Stem;
},
{
place = "{196, 200}";
type = Stem;
}
);
layerId = "A096C860-9E6F-43F5-BF5F-7670645978FC";
paths = (
{
closed = 1;
nodes = (
"196 622 OFFCURVE",
"240 590 OFFCURVE",
"296 590 CURVE SMOOTH",
"351 590 OFFCURVE",
"396 622 OFFCURVE",
"396 681 CURVE SMOOTH",
"396 740 OFFCURVE",
"351 771 OFFCURVE",
"296 771 CURVE SMOOTH",
"240 771 OFFCURVE",
"196 740 OFFCURVE",
"196 681 CURVE SMOOTH"
);
},
{
closed = 1;
nodes = (
"266 111 OFFCURVE",
"232 125 OFFCURVE",
"208 153 CURVE",
"566 244 LINE",
"563 399 OFFCURVE",
"474 539 OFFCURVE",
"304 539 CURVE SMOOTH",
"144 539 OFFCURVE",
"30 421 OFFCURVE",
"30 264 CURVE SMOOTH",
"30 102 OFFCURVE",
"144 -16 OFFCURVE",
"307 -16 CURVE SMOOTH",
"368 -16 OFFCURVE",
"450 -1 OFFCURVE",
"515 42 CURVE",
"515 180 LINE",
"466 136 OFFCURVE",
"378 111 OFFCURVE",
"310 111 CURVE SMOOTH"
);
},
{
closed = 1;
nodes = (
"194 270 LINE SMOOTH",
"194 335 OFFCURVE",
"221 410 OFFCURVE",
"295 410 CURVE SMOOTH",
"347 410 OFFCURVE",
"384 375 OFFCURVE",
"397 319 CURVE",
"194 267 LINE"
);
}
);
width = 596;
}
);
unicode = 0117;
},
{
glyphname = Eogonek;
layers = (
{
hints = (
{
horizontal = 1;
place = "{-231, 96}";
type = Stem;
},
{
horizontal = 1;
place = "{0, 150}";
type = Stem;
},
{
horizontal = 1;
place = "{284, 140}";
type = Stem;
},
{
horizontal = 1;
place = "{551, 150}";
type = Stem;
},
{
place = "{62, 174}";
type = Stem;
},
{
place = "{438, 114}";
type = Stem;
}
);
layerId = "A096C860-9E6F-43F5-BF5F-7670645978FC";
paths = (
{
closed = 1;
nodes = (
"236 284 LINE",
"573 284 LINE",
"573 424 LINE",
"236 424 LINE",
"236 551 LINE",
"607 551 LINE",
"607 701 LINE",
"62 701 LINE",
"62 0 LINE",
"499 0 LINE",
"469 -34 OFFCURVE",
"438 -75 OFFCURVE",
"438 -124 CURVE SMOOTH",
"438 -191 OFFCURVE",
"492 -231 OFFCURVE",
"564 -231 CURVE SMOOTH",
"595 -231 OFFCURVE",
"628 -224 OFFCURVE",
"662 -206 CURVE",
"641 -122 LINE",
"614 -132 OFFCURVE",
"598 -135 OFFCURVE",
"587 -135 CURVE SMOOTH",
"568 -135 OFFCURVE",
"552 -126 OFFCURVE",
"552 -106 CURVE SMOOTH",
"552 -89 OFFCURVE",
"563 -61 OFFCURVE",
"614 0 CURVE",
"613 0 LINE",
"613 150 LINE",
"236 150 LINE"
);
}
);
width = 713;
}
);
unicode = 0118;
},
{
glyphname = eogonek;
layers = (
{
hints = (
{
place = "{30, 164}";
type = Stem;
},
{
place = "{304, 114}";
type = Stem;
},
{
horizontal = 1;
place = "{-230, 96}";
type = Stem;
},
{
horizontal = 1;
place = "{-16, 127}";
type = Stem;
},
{
horizontal = 1;
place = "{-13, 21}";
target = up;
type = BottomGhost;
},
{
horizontal = 1;
place = "{410, 129}";
type = Stem;
}
);
layerId = "A096C860-9E6F-43F5-BF5F-7670645978FC";
paths = (
{
closed = 1;
nodes = (
"507 -121 LINE",
"480 -131 OFFCURVE",
"464 -134 OFFCURVE",
"453 -134 CURVE SMOOTH",
"434 -134 OFFCURVE",
"418 -125 OFFCURVE",
"418 -102 CURVE SMOOTH",
"418 -84 OFFCURVE",
"426 -45 OFFCURVE",
"513 41 CURVE",
"513 41 OFFCURVE",
"514 42 OFFCURVE",
"515 42 CURVE",
"515 43 LINE",
"515 43 OFFCURVE",
"515 43 OFFCURVE",
"516 43 CURVE",
"515 43 LINE",
"515 180 LINE",
"466 136 OFFCURVE",
"378 111 OFFCURVE",
"310 111 CURVE SMOOTH",
"266 111 OFFCURVE",
"232 125 OFFCURVE",
"208 153 CURVE",
"566 244 LINE",
"563 399 OFFCURVE",
"474 539 OFFCURVE",
"304 539 CURVE SMOOTH",
"144 539 OFFCURVE",
"30 421 OFFCURVE",
"30 264 CURVE SMOOTH",
"30 102 OFFCURVE",
"144 -16 OFFCURVE",
"307 -16 CURVE SMOOTH",
"321 -16 OFFCURVE",
"337 -15 OFFCURVE",
"352 -13 CURVE",
"327 -44 OFFCURVE",
"304 -81 OFFCURVE",
"304 -123 CURVE SMOOTH",
"304 -190 OFFCURVE",
"358 -230 OFFCURVE",
"430 -230 CURVE SMOOTH",
"461 -230 OFFCURVE",
"494 -223 OFFCURVE",
"528 -205 CURVE"
);
},
{
closed = 1;
nodes = (
"194 270 LINE SMOOTH",
"194 335 OFFCURVE",
"221 410 OFFCURVE",
"295 410 CURVE SMOOTH",
"347 410 OFFCURVE",
"384 375 OFFCURVE",
"397 319 CURVE",
"194 267 LINE"
);
}
);
width = 596;
}
);
unicode = 0119;
},
{
glyphname = Ecaron;
layers = (
{
hints = (
{
horizontal = 1;
place = "{0, 150}";
type = Stem;
},
{
horizontal = 1;
place = "{284, 140}";
type = Stem;
},
{
horizontal = 1;
place = "{551, 150}";
type = Stem;
},
{
horizontal = 1;
place = "{758, 179}";
type = Stem;
},
{
place = "{62, 174}";
type = Stem;
}
);
layerId = "A096C860-9E6F-43F5-BF5F-7670645978FC";
paths = (
{
closed = 1;
nodes = (
"411 937 LINE",
"351 871 LINE",
"290 937 LINE",
"161 937 LINE",
"301 758 LINE",
"397 758 LINE",
"537 937 LINE"
);
},
{
closed = 1;
nodes = (
"236 284 LINE",
"573 284 LINE",
"573 424 LINE",
"236 424 LINE",
"236 551 LINE",
"607 551 LINE",
"607 701 LINE",
"62 701 LINE",
"62 0 LINE",
"613 0 LINE",
"613 150 LINE",
"236 150 LINE"
);
}
);
width = 666;
}
);
unicode = 011A;
},
{
glyphname = ecaron;
layers = (
{
hints = (
{
horizontal = 1;
place = "{-16, 127}";
type = Stem;
},
{
horizontal = 1;
place = "{410, 129}";
type = Stem;
},
{
place = "{30, 164}";
type = Stem;
}
);
layerId = "A096C860-9E6F-43F5-BF5F-7670645978FC";
paths = (
{
closed = 1;
nodes = (
"266 111 OFFCURVE",
"232 125 OFFCURVE",
"208 153 CURVE",
"566 244 LINE",
"563 399 OFFCURVE",
"474 539 OFFCURVE",
"304 539 CURVE SMOOTH",
"144 539 OFFCURVE",
"30 421 OFFCURVE",
"30 264 CURVE SMOOTH",
"30 102 OFFCURVE",
"144 -16 OFFCURVE",
"307 -16 CURVE SMOOTH",
"368 -16 OFFCURVE",
"450 -1 OFFCURVE",
"515 42 CURVE",
"515 180 LINE",
"466 136 OFFCURVE",
"378 111 OFFCURVE",
"310 111 CURVE SMOOTH"
);
},
{
closed = 1;
nodes = (
"194 270 LINE SMOOTH",
"194 335 OFFCURVE",
"221 410 OFFCURVE",
"295 410 CURVE SMOOTH",
"347 410 OFFCURVE",
"384 375 OFFCURVE",
"397 319 CURVE",
"194 267 LINE"
);
}
);
width = 596;
}
);
unicode = 011B;
},
{
glyphname = Gcircumflex;
layers = (
{
hints = (
{
place = "{39, 180}";
type = Stem;
},
{
place = "{415, 199}";
type = Stem;
},
{
place = "{565, 167}";
type = Stem;
},
{
horizontal = 1;
place = "{-14, 152}";
type = Stem;
},
{
horizontal = 1;
place = "{276, 131}";
type = Stem;
},
{
horizontal = 1;
place = "{558, 157}";
type = Stem;
},
{
horizontal = 1;
place = "{780, 179}";
type = Stem;
}
);
layerId = "A096C860-9E6F-43F5-BF5F-7670645978FC";
paths = (
{
closed = 1;
nodes = (
"467 959 LINE",
"372 959 LINE",
"238 780 LINE",
"358 780 LINE",
"420 845 LINE",
"482 780 LINE",
"601 780 LINE"
);
},
{
closed = 1;
nodes = (
"565 276 LINE",
"565 180 OFFCURVE",
"482 138 OFFCURVE",
"411 138 CURVE SMOOTH",
"305 138 OFFCURVE",
"219 226 OFFCURVE",
"219 350 CURVE SMOOTH",
"219 465 OFFCURVE",
"308 558 OFFCURVE",
"427 558 CURVE SMOOTH",
"498 558 OFFCURVE",
"563 532 OFFCURVE",
"614 488 CURVE",
"614 675 LINE",
"561 701 OFFCURVE",
"487 715 OFFCURVE",
"417 715 CURVE SMOOTH",
"201 715 OFFCURVE",
"39 555 OFFCURVE",
"39 350 CURVE SMOOTH",
"39 140 OFFCURVE",
"201 -14 OFFCURVE",
"402 -14 CURVE SMOOTH",
"572 -14 OFFCURVE",
"732 84 OFFCURVE",
"732 370 CURVE SMOOTH",
"732 407 LINE",
"415 407 LINE",
"415 276 LINE"
);
}
);
width = 771;
}
);
unicode = 011C;
},
{
glyphname = gcircumflex;
layers = (
{
hints = (
{
horizontal = 1;
place = "{-167, 125}";
type = Stem;
},
{
horizontal = 1;
place = "{43, 135}";
type = Stem;
},
{
horizontal = 1;
place = "{408, 135}";
type = Stem;
},
{
horizontal = 1;
place = "{615, 179}";
type = Stem;
},
{
place = "{35, 170}";
type = Stem;
},
{
place = "{445, 169}";
type = Stem;
}
);
layerId = "A096C860-9E6F-43F5-BF5F-7670645978FC";
paths = (
{
closed = 1;
nodes = (
"377 794 LINE",
"282 794 LINE",
"148 615 LINE",
"268 615 LINE",
"330 680 LINE",
"392 615 LINE",
"511 615 LINE"
);
},
{
closed = 1;
nodes = (
"199 -42 OFFCURVE",
"110 -4 OFFCURVE",
"55 32 CURVE",
"55 -108 LINE",
"129 -146 OFFCURVE",
"192 -167 OFFCURVE",
"285 -167 CURVE SMOOTH",
"476 -167 OFFCURVE",
"614 -73 OFFCURVE",
"614 119 CURVE SMOOTH",
"614 531 LINE",
"441 466 LINE",
"400 510 OFFCURVE",
"351 543 OFFCURVE",
"275 543 CURVE SMOOTH",
"144 543 OFFCURVE",
"35 447 OFFCURVE",
"35 293 CURVE SMOOTH",
"35 140 OFFCURVE",
"142 43 OFFCURVE",
"274 43 CURVE SMOOTH",
"355 43 OFFCURVE",
"405 80 OFFCURVE",
"445 128 CURVE",
"445 100 LINE SMOOTH",
"445 5 OFFCURVE",
"385 -42 OFFCURVE",
"284 -42 CURVE SMOOTH"
);
},
{
closed = 1;
nodes = (
"205 360 OFFCURVE",
"254 408 OFFCURVE",
"325 408 CURVE SMOOTH",
"394 408 OFFCURVE",
"445 360 OFFCURVE",
"445 294 CURVE SMOOTH",
"445 227 OFFCURVE",
"394 178 OFFCURVE",
"325 178 CURVE SMOOTH",
"255 178 OFFCURVE",
"205 227 OFFCURVE",
"205 292 CURVE SMOOTH"
);
}
);
width = 669;
}
);
unicode = 011D;
},
{
glyphname = Gbreve;
layers = (
{
hints = (
{
place = "{39, 180}";
type = Stem;
},
{
place = "{415, 199}";
type = Stem;
},
{
place = "{565, 167}";
type = Stem;
},
{
horizontal = 1;
place = "{-14, 152}";
type = Stem;
},
{
horizontal = 1;
place = "{276, 131}";
type = Stem;
},
{
horizontal = 1;
place = "{558, 157}";
type = Stem;
},
{
horizontal = 1;
place = "{744, 175}";
type = Stem;
}
);
layerId = "A096C860-9E6F-43F5-BF5F-7670645978FC";
paths = (
{
closed = 1;
nodes = (
"468 919 LINE",
"456 877 OFFCURVE",
"431 852 OFFCURVE",
"399 852 CURVE SMOOTH",
"366 852 OFFCURVE",
"339 877 OFFCURVE",
"327 919 CURVE",
"231 919 LINE",
"239 815 OFFCURVE",
"307 744 OFFCURVE",
"396 744 CURVE SMOOTH",
"487 744 OFFCURVE",
"555 815 OFFCURVE",
"563 919 CURVE"
);
},
{
closed = 1;
nodes = (
"565 276 LINE",
"565 180 OFFCURVE",
"482 138 OFFCURVE",
"411 138 CURVE SMOOTH",
"305 138 OFFCURVE",
"219 226 OFFCURVE",
"219 350 CURVE SMOOTH",
"219 465 OFFCURVE",
"308 558 OFFCURVE",
"427 558 CURVE SMOOTH",
"498 558 OFFCURVE",
"563 532 OFFCURVE",
"614 488 CURVE",
"614 675 LINE",
"561 701 OFFCURVE",
"487 715 OFFCURVE",
"417 715 CURVE SMOOTH",
"201 715 OFFCURVE",
"39 555 OFFCURVE",
"39 350 CURVE SMOOTH",
"39 140 OFFCURVE",
"201 -14 OFFCURVE",
"402 -14 CURVE SMOOTH",
"572 -14 OFFCURVE",
"732 84 OFFCURVE",
"732 370 CURVE SMOOTH",
"732 407 LINE",
"415 407 LINE",
"415 276 LINE"
);
}
);
width = 771;
}
);
unicode = 011E;
},
{
glyphname = gbreve;
layers = (
{
hints = (
{
horizontal = 1;
place = "{-167, 125}";
type = Stem;
},
{
horizontal = 1;
place = "{43, 135}";
type = Stem;
},
{
horizontal = 1;
place = "{408, 135}";
type = Stem;
},
{
horizontal = 1;
place = "{579, 175}";
type = Stem;
},
{
place = "{35, 170}";
type = Stem;
},
{
place = "{445, 169}";
type = Stem;
}
);
layerId = "A096C860-9E6F-43F5-BF5F-7670645978FC";
paths = (
{
closed = 1;
nodes = (
"423 754 LINE",
"411 712 OFFCURVE",
"386 687 OFFCURVE",
"354 687 CURVE SMOOTH",
"321 687 OFFCURVE",
"294 712 OFFCURVE",
"282 754 CURVE",
"186 754 LINE",
"194 650 OFFCURVE",
"262 579 OFFCURVE",
"351 579 CURVE SMOOTH",
"442 579 OFFCURVE",
"510 650 OFFCURVE",
"518 754 CURVE"
);
},
{
closed = 1;
nodes = (
"199 -42 OFFCURVE",
"110 -4 OFFCURVE",
"55 32 CURVE",
"55 -108 LINE",
"129 -146 OFFCURVE",
"192 -167 OFFCURVE",
"285 -167 CURVE SMOOTH",
"476 -167 OFFCURVE",
"614 -73 OFFCURVE",
"614 119 CURVE SMOOTH",
"614 531 LINE",
"441 466 LINE",
"400 510 OFFCURVE",
"351 543 OFFCURVE",
"275 543 CURVE SMOOTH",
"144 543 OFFCURVE",
"35 447 OFFCURVE",
"35 293 CURVE SMOOTH",
"35 140 OFFCURVE",
"142 43 OFFCURVE",
"274 43 CURVE SMOOTH",
"355 43 OFFCURVE",
"405 80 OFFCURVE",
"445 128 CURVE",
"445 100 LINE SMOOTH",
"445 5 OFFCURVE",
"385 -42 OFFCURVE",
"284 -42 CURVE SMOOTH"
);
},
{
closed = 1;
nodes = (
"205 360 OFFCURVE",
"254 408 OFFCURVE",
"325 408 CURVE SMOOTH",
"394 408 OFFCURVE",
"445 360 OFFCURVE",
"445 294 CURVE SMOOTH",
"445 227 OFFCURVE",
"394 178 OFFCURVE",
"325 178 CURVE SMOOTH",
"255 178 OFFCURVE",
"205 227 OFFCURVE",
"205 292 CURVE SMOOTH"
);
}
);
width = 669;
}
);
unicode = 011F;
},
